<?xml version="1.0" encoding="utf-8"?>
<svg xmlns="http://www.w3.org/2000/svg" xmlns:xlink="http://www.w3.org/1999/xlink" width="600" height="400" viewBox="0 0 2400 1600">
<defs>
  <clipPath id="clip070">
    <rect x="0" y="0" width="2400" height="1600"/>
  </clipPath>
</defs>
<path clip-path="url(#clip070)" d="
M0 1600 L2400 1600 L2400 0 L0 0  Z
  " fill="#ffffff" fill-rule="evenodd" fill-opacity="1"/>
<defs>
  <clipPath id="clip071">
    <rect x="480" y="0" width="1681" height="1600"/>
  </clipPath>
</defs>
<path clip-path="url(#clip070)" d="
M156.598 1486.45 L2352.76 1486.45 L2352.76 47.2441 L156.598 47.2441  Z
  " fill="#ffffff" fill-rule="evenodd" fill-opacity="1"/>
<defs>
  <clipPath id="clip072">
    <rect x="156" y="47" width="2197" height="1440"/>
  </clipPath>
</defs>
<polyline clip-path="url(#clip072)" style="stroke:#000000; stroke-linecap:butt; stroke-linejoin:round; stroke-width:2; stroke-opacity:0.1; fill:none" points="
  419.034,1486.45 419.034,47.2441 
  "/>
<polyline clip-path="url(#clip072)" style="stroke:#000000; stroke-linecap:butt; stroke-linejoin:round; stroke-width:2; stroke-opacity:0.1; fill:none" points="
  697.582,1486.45 697.582,47.2441 
  "/>
<polyline clip-path="url(#clip072)" style="stroke:#000000; stroke-linecap:butt; stroke-linejoin:round; stroke-width:2; stroke-opacity:0.1; fill:none" points="
  976.129,1486.45 976.129,47.2441 
  "/>
<polyline clip-path="url(#clip072)" style="stroke:#000000; stroke-linecap:butt; stroke-linejoin:round; stroke-width:2; stroke-opacity:0.1; fill:none" points="
  1254.68,1486.45 1254.68,47.2441 
  "/>
<polyline clip-path="url(#clip072)" style="stroke:#000000; stroke-linecap:butt; stroke-linejoin:round; stroke-width:2; stroke-opacity:0.1; fill:none" points="
  1533.22,1486.45 1533.22,47.2441 
  "/>
<polyline clip-path="url(#clip072)" style="stroke:#000000; stroke-linecap:butt; stroke-linejoin:round; stroke-width:2; stroke-opacity:0.1; fill:none" points="
  1811.77,1486.45 1811.77,47.2441 
  "/>
<polyline clip-path="url(#clip072)" style="stroke:#000000; stroke-linecap:butt; stroke-linejoin:round; stroke-width:2; stroke-opacity:0.1; fill:none" points="
  2090.32,1486.45 2090.32,47.2441 
  "/>
<polyline clip-path="url(#clip070)" style="stroke:#000000; stroke-linecap:butt; stroke-linejoin:round; stroke-width:4; stroke-opacity:1; fill:none" points="
  156.598,1486.45 2352.76,1486.45 
  "/>
<polyline clip-path="url(#clip070)" style="stroke:#000000; stroke-linecap:butt; stroke-linejoin:round; stroke-width:4; stroke-opacity:1; fill:none" points="
  419.034,1486.45 419.034,1467.55 
  "/>
<polyline clip-path="url(#clip070)" style="stroke:#000000; stroke-linecap:butt; stroke-linejoin:round; stroke-width:4; stroke-opacity:1; fill:none" points="
  697.582,1486.45 697.582,1467.55 
  "/>
<polyline clip-path="url(#clip070)" style="stroke:#000000; stroke-linecap:butt; stroke-linejoin:round; stroke-width:4; stroke-opacity:1; fill:none" points="
  976.129,1486.45 976.129,1467.55 
  "/>
<polyline clip-path="url(#clip070)" style="stroke:#000000; stroke-linecap:butt; stroke-linejoin:round; stroke-width:4; stroke-opacity:1; fill:none" points="
  1254.68,1486.45 1254.68,1467.55 
  "/>
<polyline clip-path="url(#clip070)" style="stroke:#000000; stroke-linecap:butt; stroke-linejoin:round; stroke-width:4; stroke-opacity:1; fill:none" points="
  1533.22,1486.45 1533.22,1467.55 
  "/>
<polyline clip-path="url(#clip070)" style="stroke:#000000; stroke-linecap:butt; stroke-linejoin:round; stroke-width:4; stroke-opacity:1; fill:none" points="
  1811.77,1486.45 1811.77,1467.55 
  "/>
<polyline clip-path="url(#clip070)" style="stroke:#000000; stroke-linecap:butt; stroke-linejoin:round; stroke-width:4; stroke-opacity:1; fill:none" points="
  2090.32,1486.45 2090.32,1467.55 
  "/>
<path clip-path="url(#clip070)" d="M388.502 1532.02 L418.178 1532.02 L418.178 1535.95 L388.502 1535.95 L388.502 1532.02 Z" fill="#000000" fill-rule="evenodd" fill-opacity="1" /><path clip-path="url(#clip070)" d="M442.437 1530.21 Q445.793 1530.93 447.668 1533.2 Q449.566 1535.47 449.566 1538.8 Q449.566 1543.92 446.048 1546.72 Q442.529 1549.52 436.048 1549.52 Q433.872 1549.52 431.557 1549.08 Q429.265 1548.66 426.812 1547.81 L426.812 1543.29 Q428.756 1544.43 431.071 1545.01 Q433.386 1545.58 435.909 1545.58 Q440.307 1545.58 442.599 1543.85 Q444.914 1542.11 444.914 1538.8 Q444.914 1535.75 442.761 1534.03 Q440.631 1532.3 436.812 1532.3 L432.784 1532.3 L432.784 1528.45 L436.997 1528.45 Q440.446 1528.45 442.275 1527.09 Q444.103 1525.7 444.103 1523.11 Q444.103 1520.45 442.205 1519.03 Q440.33 1517.6 436.812 1517.6 Q434.89 1517.6 432.691 1518.01 Q430.492 1518.43 427.853 1519.31 L427.853 1515.14 Q430.515 1514.4 432.83 1514.03 Q435.168 1513.66 437.228 1513.66 Q442.552 1513.66 445.654 1516.09 Q448.756 1518.5 448.756 1522.62 Q448.756 1525.49 447.113 1527.48 Q445.469 1529.45 442.437 1530.21 Z" fill="#000000" fill-rule="evenodd" fill-opacity="1" /><path clip-path="url(#clip070)" d="M667.524 1532.02 L697.2 1532.02 L697.2 1535.95 L667.524 1535.95 L667.524 1532.02 Z" fill="#000000" fill-rule="evenodd" fill-opacity="1" /><path clip-path="url(#clip070)" d="M711.32 1544.91 L727.639 1544.91 L727.639 1548.85 L705.695 1548.85 L705.695 1544.91 Q708.357 1542.16 712.94 1537.53 Q717.547 1532.88 718.727 1531.53 Q720.973 1529.01 721.852 1527.27 Q722.755 1525.51 722.755 1523.82 Q722.755 1521.07 720.811 1519.33 Q718.889 1517.6 715.788 1517.6 Q713.589 1517.6 711.135 1518.36 Q708.704 1519.13 705.927 1520.68 L705.927 1515.95 Q708.751 1514.82 711.204 1514.24 Q713.658 1513.66 715.695 1513.66 Q721.065 1513.66 724.26 1516.35 Q727.454 1519.03 727.454 1523.52 Q727.454 1525.65 726.644 1527.57 Q725.857 1529.47 723.751 1532.07 Q723.172 1532.74 720.07 1535.95 Q716.968 1539.15 711.32 1544.91 Z" fill="#000000" fill-rule="evenodd" fill-opacity="1" /><path clip-path="url(#clip070)" d="M945.886 1532.02 L975.562 1532.02 L975.562 1535.95 L945.886 1535.95 L945.886 1532.02 Z" fill="#000000" fill-rule="evenodd" fill-opacity="1" /><path clip-path="url(#clip070)" d="M986.465 1544.91 L994.104 1544.91 L994.104 1518.55 L985.794 1520.21 L985.794 1515.95 L994.058 1514.29 L998.733 1514.29 L998.733 1544.91 L1006.37 1544.91 L1006.37 1548.85 L986.465 1548.85 L986.465 1544.91 Z" fill="#000000" fill-rule="evenodd" fill-opacity="1" /><path clip-path="url(#clip070)" d="M1254.68 1517.37 Q1251.07 1517.37 1249.24 1520.93 Q1247.43 1524.47 1247.43 1531.6 Q1247.43 1538.71 1249.24 1542.27 Q1251.07 1545.82 1254.68 1545.82 Q1258.31 1545.82 1260.12 1542.27 Q1261.95 1538.71 1261.95 1531.6 Q1261.95 1524.47 1260.12 1520.93 Q1258.31 1517.37 1254.68 1517.37 M1254.68 1513.66 Q1260.49 1513.66 1263.54 1518.27 Q1266.62 1522.85 1266.62 1531.6 Q1266.62 1540.33 1263.54 1544.94 Q1260.49 1549.52 1254.68 1549.52 Q1248.87 1549.52 1245.79 1544.94 Q1242.73 1540.33 1242.73 1531.6 Q1242.73 1522.85 1245.79 1518.27 Q1248.87 1513.66 1254.68 1513.66 Z" fill="#000000" fill-rule="evenodd" fill-opacity="1" /><path clip-path="url(#clip070)" d="M1523.61 1544.91 L1531.25 1544.91 L1531.25 1518.55 L1522.94 1520.21 L1522.94 1515.95 L1531.2 1514.29 L1535.88 1514.29 L1535.88 1544.91 L1543.51 1544.91 L1543.51 1548.85 L1523.61 1548.85 L1523.61 1544.91 Z" fill="#000000" fill-rule="evenodd" fill-opacity="1" /><path clip-path="url(#clip070)" d="M1806.43 1544.91 L1822.74 1544.91 L1822.74 1548.85 L1800.8 1548.85 L1800.8 1544.91 Q1803.46 1542.16 1808.05 1537.53 Q1812.65 1532.88 1813.83 1531.53 Q1816.08 1529.01 1816.96 1527.27 Q1817.86 1525.51 1817.86 1523.82 Q1817.86 1521.07 1815.92 1519.33 Q1813.99 1517.6 1810.89 1517.6 Q1808.69 1517.6 1806.24 1518.36 Q1803.81 1519.13 1801.03 1520.68 L1801.03 1515.95 Q1803.86 1514.82 1806.31 1514.24 Q1808.76 1513.66 1810.8 1513.66 Q1816.17 1513.66 1819.36 1516.35 Q1822.56 1519.03 1822.56 1523.52 Q1822.56 1525.65 1821.75 1527.57 Q1820.96 1529.47 1818.86 1532.07 Q1818.28 1532.74 1815.18 1535.95 Q1812.07 1539.15 1806.43 1544.91 Z" fill="#000000" fill-rule="evenodd" fill-opacity="1" /><path clip-path="url(#clip070)" d="M2094.57 1530.21 Q2097.92 1530.93 2099.8 1533.2 Q2101.7 1535.47 2101.7 1538.8 Q2101.7 1543.92 2098.18 1546.72 Q2094.66 1549.52 2088.18 1549.52 Q2086 1549.52 2083.69 1549.08 Q2081.4 1548.66 2078.94 1547.81 L2078.94 1543.29 Q2080.89 1544.43 2083.2 1545.01 Q2085.52 1545.58 2088.04 1545.58 Q2092.44 1545.58 2094.73 1543.85 Q2097.04 1542.11 2097.04 1538.8 Q2097.04 1535.75 2094.89 1534.03 Q2092.76 1532.3 2088.94 1532.3 L2084.92 1532.3 L2084.92 1528.45 L2089.13 1528.45 Q2092.58 1528.45 2094.41 1527.09 Q2096.23 1525.7 2096.23 1523.11 Q2096.23 1520.45 2094.34 1519.03 Q2092.46 1517.6 2088.94 1517.6 Q2087.02 1517.6 2084.82 1518.01 Q2082.62 1518.43 2079.98 1519.31 L2079.98 1515.14 Q2082.65 1514.4 2084.96 1514.03 Q2087.3 1513.66 2089.36 1513.66 Q2094.68 1513.66 2097.79 1516.09 Q2100.89 1518.5 2100.89 1522.62 Q2100.89 1525.49 2099.24 1527.48 Q2097.6 1529.45 2094.57 1530.21 Z" fill="#000000" fill-rule="evenodd" fill-opacity="1" /><polyline clip-path="url(#clip072)" style="stroke:#000000; stroke-linecap:butt; stroke-linejoin:round; stroke-width:2; stroke-opacity:0.1; fill:none" points="
  156.598,1445.72 2352.76,1445.72 
  "/>
<polyline clip-path="url(#clip072)" style="stroke:#000000; stroke-linecap:butt; stroke-linejoin:round; stroke-width:2; stroke-opacity:0.1; fill:none" points="
  156.598,1105.34 2352.76,1105.34 
  "/>
<polyline clip-path="url(#clip072)" style="stroke:#000000; stroke-linecap:butt; stroke-linejoin:round; stroke-width:2; stroke-opacity:0.1; fill:none" points="
  156.598,764.957 2352.76,764.957 
  "/>
<polyline clip-path="url(#clip072)" style="stroke:#000000; stroke-linecap:butt; stroke-linejoin:round; stroke-width:2; stroke-opacity:0.1; fill:none" points="
  156.598,424.578 2352.76,424.578 
  "/>
<polyline clip-path="url(#clip072)" style="stroke:#000000; stroke-linecap:butt; stroke-linejoin:round; stroke-width:2; stroke-opacity:0.1; fill:none" points="
  156.598,84.1986 2352.76,84.1986 
  "/>
<polyline clip-path="url(#clip070)" style="stroke:#000000; stroke-linecap:butt; stroke-linejoin:round; stroke-width:4; stroke-opacity:1; fill:none" points="
  156.598,1486.45 156.598,47.2441 
  "/>
<polyline clip-path="url(#clip070)" style="stroke:#000000; stroke-linecap:butt; stroke-linejoin:round; stroke-width:4; stroke-opacity:1; fill:none" points="
  156.598,1445.72 175.496,1445.72 
  "/>
<polyline clip-path="url(#clip070)" style="stroke:#000000; stroke-linecap:butt; stroke-linejoin:round; stroke-width:4; stroke-opacity:1; fill:none" points="
  156.598,1105.34 175.496,1105.34 
  "/>
<polyline clip-path="url(#clip070)" style="stroke:#000000; stroke-linecap:butt; stroke-linejoin:round; stroke-width:4; stroke-opacity:1; fill:none" points="
  156.598,764.957 175.496,764.957 
  "/>
<polyline clip-path="url(#clip070)" style="stroke:#000000; stroke-linecap:butt; stroke-linejoin:round; stroke-width:4; stroke-opacity:1; fill:none" points="
  156.598,424.578 175.496,424.578 
  "/>
<polyline clip-path="url(#clip070)" style="stroke:#000000; stroke-linecap:butt; stroke-linejoin:round; stroke-width:4; stroke-opacity:1; fill:none" points="
  156.598,84.1986 175.496,84.1986 
  "/>
<path clip-path="url(#clip070)" d="M63.4226 1431.51 Q59.8115 1431.51 57.9828 1435.08 Q56.1773 1438.62 56.1773 1445.75 Q56.1773 1452.86 57.9828 1456.42 Q59.8115 1459.96 63.4226 1459.96 Q67.0569 1459.96 68.8624 1456.42 Q70.6911 1452.86 70.6911 1445.75 Q70.6911 1438.62 68.8624 1435.08 Q67.0569 1431.51 63.4226 1431.51 M63.4226 1427.81 Q69.2328 1427.81 72.2883 1432.42 Q75.367 1437 75.367 1445.75 Q75.367 1454.48 72.2883 1459.08 Q69.2328 1463.67 63.4226 1463.67 Q57.6125 1463.67 54.5338 1459.08 Q51.4782 1454.48 51.4782 1445.75 Q51.4782 1437 54.5338 1432.42 Q57.6125 1427.81 63.4226 1427.81 Z" fill="#000000" fill-rule="evenodd" fill-opacity="1" /><path clip-path="url(#clip070)" d="M83.5845 1457.12 L88.4688 1457.12 L88.4688 1463 L83.5845 1463 L83.5845 1457.12 Z" fill="#000000" fill-rule="evenodd" fill-opacity="1" /><path clip-path="url(#clip070)" d="M108.654 1431.51 Q105.043 1431.51 103.214 1435.08 Q101.409 1438.62 101.409 1445.75 Q101.409 1452.86 103.214 1456.42 Q105.043 1459.96 108.654 1459.96 Q112.288 1459.96 114.094 1456.42 Q115.922 1452.86 115.922 1445.75 Q115.922 1438.62 114.094 1435.08 Q112.288 1431.51 108.654 1431.51 M108.654 1427.81 Q114.464 1427.81 117.52 1432.42 Q120.598 1437 120.598 1445.75 Q120.598 1454.48 117.52 1459.08 Q114.464 1463.67 108.654 1463.67 Q102.844 1463.67 99.765 1459.08 Q96.7095 1454.48 96.7095 1445.75 Q96.7095 1437 99.765 1432.42 Q102.844 1427.81 108.654 1427.81 Z" fill="#000000" fill-rule="evenodd" fill-opacity="1" /><path clip-path="url(#clip070)" d="M64.6495 1091.14 Q61.0384 1091.14 59.2097 1094.7 Q57.4041 1098.24 57.4041 1105.37 Q57.4041 1112.48 59.2097 1116.04 Q61.0384 1119.58 64.6495 1119.58 Q68.2837 1119.58 70.0892 1116.04 Q71.9179 1112.48 71.9179 1105.37 Q71.9179 1098.24 70.0892 1094.7 Q68.2837 1091.14 64.6495 1091.14 M64.6495 1087.43 Q70.4596 1087.43 73.5152 1092.04 Q76.5938 1096.62 76.5938 1105.37 Q76.5938 1114.1 73.5152 1118.7 Q70.4596 1123.29 64.6495 1123.29 Q58.8393 1123.29 55.7606 1118.7 Q52.7051 1114.1 52.7051 1105.37 Q52.7051 1096.62 55.7606 1092.04 Q58.8393 1087.43 64.6495 1087.43 Z" fill="#000000" fill-rule="evenodd" fill-opacity="1" /><path clip-path="url(#clip070)" d="M84.8114 1116.74 L89.6956 1116.74 L89.6956 1122.62 L84.8114 1122.62 L84.8114 1116.74 Z" fill="#000000" fill-rule="evenodd" fill-opacity="1" /><path clip-path="url(#clip070)" d="M100.691 1118.68 L108.33 1118.68 L108.33 1092.32 L100.02 1093.98 L100.02 1089.72 L108.283 1088.06 L112.959 1088.06 L112.959 1118.68 L120.598 1118.68 L120.598 1122.62 L100.691 1122.62 L100.691 1118.68 Z" fill="#000000" fill-rule="evenodd" fill-opacity="1" /><path clip-path="url(#clip070)" d="M65.0198 750.756 Q61.4087 750.756 59.58 754.321 Q57.7745 757.862 57.7745 764.992 Q57.7745 772.098 59.58 775.663 Q61.4087 779.205 65.0198 779.205 Q68.6541 779.205 70.4596 775.663 Q72.2883 772.098 72.2883 764.992 Q72.2883 757.862 70.4596 754.321 Q68.6541 750.756 65.0198 750.756 M65.0198 747.052 Q70.83 747.052 73.8855 751.659 Q76.9642 756.242 76.9642 764.992 Q76.9642 773.719 73.8855 778.325 Q70.83 782.908 65.0198 782.908 Q59.2097 782.908 56.131 778.325 Q53.0754 773.719 53.0754 764.992 Q53.0754 756.242 56.131 751.659 Q59.2097 747.052 65.0198 747.052 Z" fill="#000000" fill-rule="evenodd" fill-opacity="1" /><path clip-path="url(#clip070)" d="M85.1818 776.358 L90.066 776.358 L90.066 782.237 L85.1818 782.237 L85.1818 776.358 Z" fill="#000000" fill-rule="evenodd" fill-opacity="1" /><path clip-path="url(#clip070)" d="M104.279 778.302 L120.598 778.302 L120.598 782.237 L98.6539 782.237 L98.6539 778.302 Q101.316 775.547 105.899 770.918 Q110.506 766.265 111.686 764.922 Q113.932 762.399 114.811 760.663 Q115.714 758.904 115.714 757.214 Q115.714 754.46 113.77 752.723 Q111.848 750.987 108.746 750.987 Q106.547 750.987 104.094 751.751 Q101.663 752.515 98.8854 754.066 L98.8854 749.344 Q101.709 748.21 104.163 747.631 Q106.617 747.052 108.654 747.052 Q114.024 747.052 117.219 749.737 Q120.413 752.423 120.413 756.913 Q120.413 759.043 119.603 760.964 Q118.816 762.862 116.709 765.455 Q116.131 766.126 113.029 769.344 Q109.927 772.538 104.279 778.302 Z" fill="#000000" fill-rule="evenodd" fill-opacity="1" /><path clip-path="url(#clip070)" d="M64.0708 410.377 Q60.4597 410.377 58.631 413.941 Q56.8254 417.483 56.8254 424.613 Q56.8254 431.719 58.631 435.284 Q60.4597 438.826 64.0708 438.826 Q67.705 438.826 69.5105 435.284 Q71.3392 431.719 71.3392 424.613 Q71.3392 417.483 69.5105 413.941 Q67.705 410.377 64.0708 410.377 M64.0708 406.673 Q69.8809 406.673 72.9365 411.279 Q76.0151 415.863 76.0151 424.613 Q76.0151 433.339 72.9365 437.946 Q69.8809 442.529 64.0708 442.529 Q58.2606 442.529 55.1819 437.946 Q52.1264 433.339 52.1264 424.613 Q52.1264 415.863 55.1819 411.279 Q58.2606 406.673 64.0708 406.673 Z" fill="#000000" fill-rule="evenodd" fill-opacity="1" /><path clip-path="url(#clip070)" d="M84.2327 435.978 L89.1169 435.978 L89.1169 441.858 L84.2327 441.858 L84.2327 435.978 Z" fill="#000000" fill-rule="evenodd" fill-opacity="1" /><path clip-path="url(#clip070)" d="M113.469 423.224 Q116.825 423.941 118.7 426.21 Q120.598 428.478 120.598 431.812 Q120.598 436.927 117.08 439.728 Q113.561 442.529 107.08 442.529 Q104.904 442.529 102.589 442.089 Q100.297 441.673 97.8437 440.816 L97.8437 436.302 Q99.7882 437.437 102.103 438.015 Q104.418 438.594 106.941 438.594 Q111.339 438.594 113.631 436.858 Q115.945 435.122 115.945 431.812 Q115.945 428.756 113.793 427.043 Q111.663 425.307 107.844 425.307 L103.816 425.307 L103.816 421.464 L108.029 421.464 Q111.478 421.464 113.307 420.099 Q115.135 418.71 115.135 416.117 Q115.135 413.455 113.237 412.043 Q111.362 410.608 107.844 410.608 Q105.922 410.608 103.723 411.025 Q101.524 411.441 98.8854 412.321 L98.8854 408.154 Q101.547 407.414 103.862 407.043 Q106.2 406.673 108.26 406.673 Q113.584 406.673 116.686 409.103 Q119.788 411.511 119.788 415.631 Q119.788 418.502 118.145 420.492 Q116.501 422.46 113.469 423.224 Z" fill="#000000" fill-rule="evenodd" fill-opacity="1" /><path clip-path="url(#clip070)" d="M62.9365 69.9973 Q59.3254 69.9973 57.4967 73.5621 Q55.6912 77.1038 55.6912 84.2334 Q55.6912 91.3398 57.4967 94.9046 Q59.3254 98.4463 62.9365 98.4463 Q66.5707 98.4463 68.3763 94.9046 Q70.205 91.3398 70.205 84.2334 Q70.205 77.1038 68.3763 73.5621 Q66.5707 69.9973 62.9365 69.9973 M62.9365 66.2937 Q68.7467 66.2937 71.8022 70.9001 Q74.8809 75.4834 74.8809 84.2334 Q74.8809 92.9602 71.8022 97.5666 Q68.7467 102.15 62.9365 102.15 Q57.1264 102.15 54.0477 97.5666 Q50.9921 92.9602 50.9921 84.2334 Q50.9921 75.4834 54.0477 70.9001 Q57.1264 66.2937 62.9365 66.2937 Z" fill="#000000" fill-rule="evenodd" fill-opacity="1" /><path clip-path="url(#clip070)" d="M83.0984 95.599 L87.9827 95.599 L87.9827 101.479 L83.0984 101.479 L83.0984 95.599 Z" fill="#000000" fill-rule="evenodd" fill-opacity="1" /><path clip-path="url(#clip070)" d="M111.015 70.9927 L99.2095 89.4417 L111.015 89.4417 L111.015 70.9927 M109.788 66.9186 L115.668 66.9186 L115.668 89.4417 L120.598 89.4417 L120.598 93.3305 L115.668 93.3305 L115.668 101.479 L111.015 101.479 L111.015 93.3305 L95.4132 93.3305 L95.4132 88.8167 L109.788 66.9186 Z" fill="#000000" fill-rule="evenodd" fill-opacity="1" /><path clip-path="url(#clip072)" d="
M218.754 1444.37 L225.498 1444.24 L232.242 1444.1 L294.604 1442.14 L356.966 1438.17 L394.443 1434.19 L431.92 1428.4 L463.607 1421.65 L495.293 1412.68 L512.503 1406.7 
  L529.713 1399.8 L546.923 1391.89 L564.133 1382.86 L579.999 1373.45 L595.866 1362.89 L611.732 1351.1 L627.598 1337.98 L644.608 1322.34 L661.618 1304.94 L678.629 1285.69 
  L695.639 1264.49 L715.347 1237.36 L735.055 1207.37 L754.763 1174.42 L774.471 1138.46 L791.985 1103.96 L809.499 1067.08 L827.013 1027.88 L844.528 986.444 L859.886 948.358 
  L875.244 908.749 L890.603 867.745 L905.961 825.499 L939.45 729.947 L972.94 631.529 L1006.63 532.287 L1040.32 435.83 L1049.63 410.092 L1058.94 384.883 L1068.25 360.275 
  L1077.56 336.336 L1086.88 313.135 L1096.19 290.741 L1105.5 269.22 L1114.81 248.636 L1123.67 229.978 L1132.53 212.279 L1141.39 195.587 L1150.25 179.95 L1159.11 165.414 
  L1167.97 152.02 L1176.83 139.808 L1185.69 128.814 L1194.9 118.709 L1204.11 109.988 L1213.33 102.68 L1222.54 96.8076 L1231.75 92.3908 L1240.96 89.4438 L1250.17 87.9763 
  L1259.39 87.993 L1267.14 89.1578 L1274.9 91.3717 L1282.65 94.6295 L1290.41 98.9238 L1298.16 104.245 L1305.92 110.579 L1313.67 117.914 L1321.42 126.231 L1330.89 137.69 
  L1340.36 150.547 L1349.83 164.758 L1359.3 180.276 L1368.76 197.049 L1378.23 215.022 L1387.7 234.138 L1397.17 254.333 L1414.51 293.922 L1431.86 336.505 L1440.53 358.784 
  L1449.2 381.648 L1457.88 405.04 L1466.55 428.905 L1498.59 520.231 L1530.63 614.427 L1563.09 710.065 L1595.54 803.479 L1613.73 854.06 L1631.92 902.976 L1650.1 949.965 
  L1668.29 994.813 L1684.77 1033.46 L1701.25 1070.11 L1717.73 1104.7 L1734.21 1137.18 L1753.08 1171.77 L1771.95 1203.6 L1790.82 1232.71 L1809.69 1259.18 L1827.16 1281.41 
  L1844.63 1301.57 L1862.1 1319.75 L1879.57 1336.07 L1896.8 1350.45 L1914.02 1363.27 L1931.25 1374.63 L1948.47 1384.66 L1965.19 1393.23 L1981.92 1400.77 L1998.64 1407.36 
  L2015.36 1413.1 L2049.65 1422.59 L2083.94 1429.56 L2121.5 1435 L2159.07 1438.74 L2213.64 1442.09 L2268.21 1443.9 L2279.41 1444.15 L2290.6 1444.37 L2290.6 1445.72 
  L2279.41 1445.72 L2268.21 1445.72 L2213.64 1445.72 L2159.07 1445.72 L2121.5 1445.72 L2083.94 1445.72 L2049.65 1445.72 L2015.36 1445.72 L1998.64 1445.72 L1981.92 1445.72 
  L1965.19 1445.72 L1948.47 1445.72 L1931.25 1445.72 L1914.02 1445.72 L1896.8 1445.72 L1879.57 1445.72 L1862.1 1445.72 L1844.63 1445.72 L1827.16 1445.72 L1809.69 1445.72 
  L1790.82 1445.72 L1771.95 1445.72 L1753.08 1445.72 L1734.21 1445.72 L1717.73 1445.72 L1701.25 1445.72 L1684.77 1445.72 L1668.29 1445.72 L1650.1 1445.72 L1631.92 1445.72 
  L1613.73 1445.72 L1595.54 1445.72 L1563.09 1445.72 L1530.63 1445.72 L1498.59 1445.72 L1466.55 1445.72 L1457.88 1445.72 L1449.2 1445.72 L1440.53 1445.72 L1431.86 1445.72 
  L1414.51 1445.72 L1397.17 1445.72 L1387.7 1445.72 L1378.23 1445.72 L1368.76 1445.72 L1359.3 1445.72 L1349.83 1445.72 L1340.36 1445.72 L1330.89 1445.72 L1321.42 1445.72 
  L1313.67 1445.72 L1305.92 1445.72 L1298.16 1445.72 L1290.41 1445.72 L1282.65 1445.72 L1274.9 1445.72 L1267.14 1445.72 L1259.39 1445.72 L1250.17 1445.72 L1240.96 1445.72 
  L1231.75 1445.72 L1222.54 1445.72 L1213.33 1445.72 L1204.11 1445.72 L1194.9 1445.72 L1185.69 1445.72 L1176.83 1445.72 L1167.97 1445.72 L1159.11 1445.72 L1150.25 1445.72 
  L1141.39 1445.72 L1132.53 1445.72 L1123.67 1445.72 L1114.81 1445.72 L1105.5 1445.72 L1096.19 1445.72 L1086.88 1445.72 L1077.56 1445.72 L1068.25 1445.72 L1058.94 1445.72 
  L1049.63 1445.72 L1040.32 1445.72 L1006.63 1445.72 L972.94 1445.72 L939.45 1445.72 L905.961 1445.72 L890.603 1445.72 L875.244 1445.72 L859.886 1445.72 L844.528 1445.72 
  L827.013 1445.72 L809.499 1445.72 L791.985 1445.72 L774.471 1445.72 L754.763 1445.72 L735.055 1445.72 L715.347 1445.72 L695.639 1445.72 L678.629 1445.72 L661.618 1445.72 
  L644.608 1445.72 L627.598 1445.72 L611.732 1445.72 L595.866 1445.72 L579.999 1445.72 L564.133 1445.72 L546.923 1445.72 L529.713 1445.72 L512.503 1445.72 L495.293 1445.72 
  L463.607 1445.72 L431.92 1445.72 L394.443 1445.72 L356.966 1445.72 L294.604 1445.72 L232.242 1445.72 L225.498 1445.72 L218.754 1445.72  Z
  " fill="#ff0000" fill-rule="evenodd" fill-opacity="0.5"/>
<polyline clip-path="url(#clip072)" style="stroke:#009af9; stroke-linecap:butt; stroke-linejoin:round; stroke-width:4; stroke-opacity:1; fill:none" points="
  218.754,1444.37 225.498,1444.24 232.242,1444.1 294.604,1442.14 356.966,1438.17 394.443,1434.19 431.92,1428.4 463.607,1421.65 495.293,1412.68 512.503,1406.7 
  529.713,1399.8 546.923,1391.89 564.133,1382.86 579.999,1373.45 595.866,1362.89 611.732,1351.1 627.598,1337.98 644.608,1322.34 661.618,1304.94 678.629,1285.69 
  695.639,1264.49 715.347,1237.36 735.055,1207.37 754.763,1174.42 774.471,1138.46 791.985,1103.96 809.499,1067.08 827.013,1027.88 844.528,986.444 859.886,948.358 
  875.244,908.749 890.603,867.745 905.961,825.499 939.45,729.947 972.94,631.529 1006.63,532.287 1040.32,435.83 1049.63,410.092 1058.94,384.883 1068.25,360.275 
  1077.56,336.336 1086.88,313.135 1096.19,290.741 1105.5,269.22 1114.81,248.636 1123.67,229.978 1132.53,212.279 1141.39,195.587 1150.25,179.95 1159.11,165.414 
  1167.97,152.02 1176.83,139.808 1185.69,128.814 1194.9,118.709 1204.11,109.988 1213.33,102.68 1222.54,96.8076 1231.75,92.3908 1240.96,89.4438 1250.17,87.9763 
  1259.39,87.993 1267.14,89.1578 1274.9,91.3717 1282.65,94.6295 1290.41,98.9238 1298.16,104.245 1305.92,110.579 1313.67,117.914 1321.42,126.231 1330.89,137.69 
  1340.36,150.547 1349.83,164.758 1359.3,180.276 1368.76,197.049 1378.23,215.022 1387.7,234.138 1397.17,254.333 1414.51,293.922 1431.86,336.505 1440.53,358.784 
  1449.2,381.648 1457.88,405.04 1466.55,428.905 1498.59,520.231 1530.63,614.427 1563.09,710.065 1595.54,803.479 1613.73,854.06 1631.92,902.976 1650.1,949.965 
  1668.29,994.813 1684.77,1033.46 1701.25,1070.11 1717.73,1104.7 1734.21,1137.18 1753.08,1171.77 1771.95,1203.6 1790.82,1232.71 1809.69,1259.18 1827.16,1281.41 
  1844.63,1301.57 1862.1,1319.75 1879.57,1336.07 1896.8,1350.45 1914.02,1363.27 1931.25,1374.63 1948.47,1384.66 1965.19,1393.23 1981.92,1400.77 1998.64,1407.36 
  2015.36,1413.1 2049.65,1422.59 2083.94,1429.56 2121.5,1435 2159.07,1438.74 2213.64,1442.09 2268.21,1443.9 2279.41,1444.15 2290.6,1444.37 
  "/>
<path clip-path="url(#clip070)" d="
M1983.1 198.898 L2279.55 198.898 L2279.55 95.2176 L1983.1 95.2176  Z
  " fill="#ffffff" fill-rule="evenodd" fill-opacity="1"/>
<polyline clip-path="url(#clip070)" style="stroke:#000000; stroke-linecap:butt; stroke-linejoin:round; stroke-width:4; stroke-opacity:1; fill:none" points="
  1983.1,198.898 2279.55,198.898 2279.55,95.2176 1983.1,95.2176 1983.1,198.898 
  "/>
<path clip-path="url(#clip070)" d="
M2007.5 167.794 L2153.92 167.794 L2153.92 126.322 L2007.5 126.322 L2007.5 167.794  Z
  " fill="#ff0000" fill-rule="evenodd" fill-opacity="0.5"/>
<polyline clip-path="url(#clip070)" style="stroke:#009af9; stroke-linecap:butt; stroke-linejoin:round; stroke-width:4; stroke-opacity:1; fill:none" points="
  2007.5,126.322 2153.92,126.322 
  "/>
<path clip-path="url(#clip070)" d="M2192.16 166.745 Q2190.35 171.375 2188.64 172.787 Q2186.93 174.199 2184.06 174.199 L2180.65 174.199 L2180.65 170.634 L2183.15 170.634 Q2184.91 170.634 2185.89 169.8 Q2186.86 168.967 2188.04 165.865 L2188.8 163.921 L2178.32 138.412 L2182.83 138.412 L2190.93 158.689 L2199.03 138.412 L2203.55 138.412 L2192.16 166.745 Z" fill="#000000" fill-rule="evenodd" fill-opacity="1" /><path clip-path="url(#clip070)" d="M2210.84 160.402 L2218.48 160.402 L2218.48 134.037 L2210.17 135.703 L2210.17 131.444 L2218.43 129.778 L2223.11 129.778 L2223.11 160.402 L2230.75 160.402 L2230.75 164.338 L2210.84 164.338 L2210.84 160.402 Z" fill="#000000" fill-rule="evenodd" fill-opacity="1" /></svg>
