<?xml version="1.0" encoding="utf-8"?>
<svg xmlns="http://www.w3.org/2000/svg" xmlns:xlink="http://www.w3.org/1999/xlink" width="600" height="400" viewBox="0 0 2400 1600">
<defs>
  <clipPath id="clip110">
    <rect x="0" y="0" width="2400" height="1600"/>
  </clipPath>
</defs>
<path clip-path="url(#clip110)" d="
M0 1600 L2400 1600 L2400 0 L0 0  Z
  " fill="#ffffff" fill-rule="evenodd" fill-opacity="1"/>
<defs>
  <clipPath id="clip111">
    <rect x="480" y="0" width="1681" height="1600"/>
  </clipPath>
</defs>
<path clip-path="url(#clip110)" d="
M219.866 1423.18 L2352.76 1423.18 L2352.76 123.472 L219.866 123.472  Z
  " fill="#ffffff" fill-rule="evenodd" fill-opacity="1"/>
<defs>
  <clipPath id="clip112">
    <rect x="219" y="123" width="2134" height="1301"/>
  </clipPath>
</defs>
<polyline clip-path="url(#clip112)" style="stroke:#000000; stroke-linecap:butt; stroke-linejoin:round; stroke-width:2; stroke-opacity:0.1; fill:none" points="
  474.742,1423.18 474.742,123.472 
  "/>
<polyline clip-path="url(#clip112)" style="stroke:#000000; stroke-linecap:butt; stroke-linejoin:round; stroke-width:2; stroke-opacity:0.1; fill:none" points="
  745.265,1423.18 745.265,123.472 
  "/>
<polyline clip-path="url(#clip112)" style="stroke:#000000; stroke-linecap:butt; stroke-linejoin:round; stroke-width:2; stroke-opacity:0.1; fill:none" points="
  1015.79,1423.18 1015.79,123.472 
  "/>
<polyline clip-path="url(#clip112)" style="stroke:#000000; stroke-linecap:butt; stroke-linejoin:round; stroke-width:2; stroke-opacity:0.1; fill:none" points="
  1286.31,1423.18 1286.31,123.472 
  "/>
<polyline clip-path="url(#clip112)" style="stroke:#000000; stroke-linecap:butt; stroke-linejoin:round; stroke-width:2; stroke-opacity:0.1; fill:none" points="
  1556.83,1423.18 1556.83,123.472 
  "/>
<polyline clip-path="url(#clip112)" style="stroke:#000000; stroke-linecap:butt; stroke-linejoin:round; stroke-width:2; stroke-opacity:0.1; fill:none" points="
  1827.36,1423.18 1827.36,123.472 
  "/>
<polyline clip-path="url(#clip112)" style="stroke:#000000; stroke-linecap:butt; stroke-linejoin:round; stroke-width:2; stroke-opacity:0.1; fill:none" points="
  2097.88,1423.18 2097.88,123.472 
  "/>
<polyline clip-path="url(#clip110)" style="stroke:#000000; stroke-linecap:butt; stroke-linejoin:round; stroke-width:4; stroke-opacity:1; fill:none" points="
  219.866,1423.18 2352.76,1423.18 
  "/>
<polyline clip-path="url(#clip110)" style="stroke:#000000; stroke-linecap:butt; stroke-linejoin:round; stroke-width:4; stroke-opacity:1; fill:none" points="
  474.742,1423.18 474.742,1404.28 
  "/>
<polyline clip-path="url(#clip110)" style="stroke:#000000; stroke-linecap:butt; stroke-linejoin:round; stroke-width:4; stroke-opacity:1; fill:none" points="
  745.265,1423.18 745.265,1404.28 
  "/>
<polyline clip-path="url(#clip110)" style="stroke:#000000; stroke-linecap:butt; stroke-linejoin:round; stroke-width:4; stroke-opacity:1; fill:none" points="
  1015.79,1423.18 1015.79,1404.28 
  "/>
<polyline clip-path="url(#clip110)" style="stroke:#000000; stroke-linecap:butt; stroke-linejoin:round; stroke-width:4; stroke-opacity:1; fill:none" points="
  1286.31,1423.18 1286.31,1404.28 
  "/>
<polyline clip-path="url(#clip110)" style="stroke:#000000; stroke-linecap:butt; stroke-linejoin:round; stroke-width:4; stroke-opacity:1; fill:none" points="
  1556.83,1423.18 1556.83,1404.28 
  "/>
<polyline clip-path="url(#clip110)" style="stroke:#000000; stroke-linecap:butt; stroke-linejoin:round; stroke-width:4; stroke-opacity:1; fill:none" points="
  1827.36,1423.18 1827.36,1404.28 
  "/>
<polyline clip-path="url(#clip110)" style="stroke:#000000; stroke-linecap:butt; stroke-linejoin:round; stroke-width:4; stroke-opacity:1; fill:none" points="
  2097.88,1423.18 2097.88,1404.28 
  "/>
<path clip-path="url(#clip110)" d="M444.209 1468.75 L473.885 1468.75 L473.885 1472.69 L444.209 1472.69 L444.209 1468.75 Z" fill="#000000" fill-rule="evenodd" fill-opacity="1" /><path clip-path="url(#clip110)" d="M498.144 1466.95 Q501.501 1467.66 503.376 1469.93 Q505.274 1472.2 505.274 1475.53 Q505.274 1480.65 501.755 1483.45 Q498.237 1486.25 491.755 1486.25 Q489.58 1486.25 487.265 1485.81 Q484.973 1485.39 482.519 1484.54 L482.519 1480.02 Q484.464 1481.16 486.779 1481.74 Q489.093 1482.32 491.617 1482.32 Q496.015 1482.32 498.306 1480.58 Q500.621 1478.84 500.621 1475.53 Q500.621 1472.48 498.468 1470.77 Q496.339 1469.03 492.519 1469.03 L488.492 1469.03 L488.492 1465.19 L492.705 1465.19 Q496.154 1465.19 497.982 1463.82 Q499.811 1462.43 499.811 1459.84 Q499.811 1457.18 497.913 1455.77 Q496.038 1454.33 492.519 1454.33 Q490.598 1454.33 488.399 1454.75 Q486.2 1455.16 483.561 1456.04 L483.561 1451.88 Q486.223 1451.14 488.538 1450.77 Q490.876 1450.39 492.936 1450.39 Q498.26 1450.39 501.362 1452.83 Q504.464 1455.23 504.464 1459.35 Q504.464 1462.22 502.82 1464.21 Q501.177 1466.18 498.144 1466.95 Z" fill="#000000" fill-rule="evenodd" fill-opacity="1" /><path clip-path="url(#clip110)" d="M715.207 1468.75 L744.883 1468.75 L744.883 1472.69 L715.207 1472.69 L715.207 1468.75 Z" fill="#000000" fill-rule="evenodd" fill-opacity="1" /><path clip-path="url(#clip110)" d="M759.003 1481.64 L775.323 1481.64 L775.323 1485.58 L753.378 1485.58 L753.378 1481.64 Q756.04 1478.89 760.624 1474.26 Q765.23 1469.61 766.411 1468.27 Q768.656 1465.74 769.536 1464.01 Q770.438 1462.25 770.438 1460.56 Q770.438 1457.8 768.494 1456.07 Q766.573 1454.33 763.471 1454.33 Q761.272 1454.33 758.818 1455.09 Q756.387 1455.86 753.61 1457.41 L753.61 1452.69 Q756.434 1451.55 758.887 1450.97 Q761.341 1450.39 763.378 1450.39 Q768.748 1450.39 771.943 1453.08 Q775.137 1455.77 775.137 1460.26 Q775.137 1462.39 774.327 1464.31 Q773.54 1466.2 771.434 1468.8 Q770.855 1469.47 767.753 1472.69 Q764.651 1475.88 759.003 1481.64 Z" fill="#000000" fill-rule="evenodd" fill-opacity="1" /><path clip-path="url(#clip110)" d="M985.545 1468.75 L1015.22 1468.75 L1015.22 1472.69 L985.545 1472.69 L985.545 1468.75 Z" fill="#000000" fill-rule="evenodd" fill-opacity="1" /><path clip-path="url(#clip110)" d="M1026.12 1481.64 L1033.76 1481.64 L1033.76 1455.28 L1025.45 1456.95 L1025.45 1452.69 L1033.72 1451.02 L1038.39 1451.02 L1038.39 1481.64 L1046.03 1481.64 L1046.03 1485.58 L1026.12 1485.58 L1026.12 1481.64 Z" fill="#000000" fill-rule="evenodd" fill-opacity="1" /><path clip-path="url(#clip110)" d="M1286.31 1454.1 Q1282.7 1454.1 1280.87 1457.66 Q1279.07 1461.2 1279.07 1468.33 Q1279.07 1475.44 1280.87 1479.01 Q1282.7 1482.55 1286.31 1482.55 Q1289.95 1482.55 1291.75 1479.01 Q1293.58 1475.44 1293.58 1468.33 Q1293.58 1461.2 1291.75 1457.66 Q1289.95 1454.1 1286.31 1454.1 M1286.31 1450.39 Q1292.12 1450.39 1295.18 1455 Q1298.26 1459.58 1298.26 1468.33 Q1298.26 1477.06 1295.18 1481.67 Q1292.12 1486.25 1286.31 1486.25 Q1280.5 1486.25 1277.42 1481.67 Q1274.37 1477.06 1274.37 1468.33 Q1274.37 1459.58 1277.42 1455 Q1280.5 1450.39 1286.31 1450.39 Z" fill="#000000" fill-rule="evenodd" fill-opacity="1" /><path clip-path="url(#clip110)" d="M1547.22 1481.64 L1554.86 1481.64 L1554.86 1455.28 L1546.54 1456.95 L1546.54 1452.69 L1554.81 1451.02 L1559.48 1451.02 L1559.48 1481.64 L1567.12 1481.64 L1567.12 1485.58 L1547.22 1485.58 L1547.22 1481.64 Z" fill="#000000" fill-rule="evenodd" fill-opacity="1" /><path clip-path="url(#clip110)" d="M1822.01 1481.64 L1838.33 1481.64 L1838.33 1485.58 L1816.39 1485.58 L1816.39 1481.64 Q1819.05 1478.89 1823.63 1474.26 Q1828.24 1469.61 1829.42 1468.27 Q1831.66 1465.74 1832.54 1464.01 Q1833.45 1462.25 1833.45 1460.56 Q1833.45 1457.8 1831.5 1456.07 Q1829.58 1454.33 1826.48 1454.33 Q1824.28 1454.33 1821.82 1455.09 Q1819.39 1455.86 1816.62 1457.41 L1816.62 1452.69 Q1819.44 1451.55 1821.89 1450.97 Q1824.35 1450.39 1826.39 1450.39 Q1831.76 1450.39 1834.95 1453.08 Q1838.14 1455.77 1838.14 1460.26 Q1838.14 1462.39 1837.33 1464.31 Q1836.55 1466.2 1834.44 1468.8 Q1833.86 1469.47 1830.76 1472.69 Q1827.66 1475.88 1822.01 1481.64 Z" fill="#000000" fill-rule="evenodd" fill-opacity="1" /><path clip-path="url(#clip110)" d="M2102.13 1466.95 Q2105.48 1467.66 2107.36 1469.93 Q2109.26 1472.2 2109.26 1475.53 Q2109.26 1480.65 2105.74 1483.45 Q2102.22 1486.25 2095.74 1486.25 Q2093.56 1486.25 2091.25 1485.81 Q2088.96 1485.39 2086.5 1484.54 L2086.5 1480.02 Q2088.45 1481.16 2090.76 1481.74 Q2093.08 1482.32 2095.6 1482.32 Q2100 1482.32 2102.29 1480.58 Q2104.61 1478.84 2104.61 1475.53 Q2104.61 1472.48 2102.45 1470.77 Q2100.32 1469.03 2096.5 1469.03 L2092.48 1469.03 L2092.48 1465.19 L2096.69 1465.19 Q2100.14 1465.19 2101.97 1463.82 Q2103.79 1462.43 2103.79 1459.84 Q2103.79 1457.18 2101.9 1455.77 Q2100.02 1454.33 2096.5 1454.33 Q2094.58 1454.33 2092.38 1454.75 Q2090.18 1455.16 2087.54 1456.04 L2087.54 1451.88 Q2090.21 1451.14 2092.52 1450.77 Q2094.86 1450.39 2096.92 1450.39 Q2102.24 1450.39 2105.35 1452.83 Q2108.45 1455.23 2108.45 1459.35 Q2108.45 1462.22 2106.8 1464.21 Q2105.16 1466.18 2102.13 1466.95 Z" fill="#000000" fill-rule="evenodd" fill-opacity="1" /><path clip-path="url(#clip110)" d="M1302.93 1532.4 L1290.04 1549.74 L1303.59 1568.04 L1296.69 1568.04 L1286.31 1554.04 L1275.93 1568.04 L1269.03 1568.04 L1282.87 1549.39 L1270.21 1532.4 L1277.11 1532.4 L1286.57 1545.1 L1296.02 1532.4 L1302.93 1532.4 Z" fill="#000000" fill-rule="evenodd" fill-opacity="1" /><polyline clip-path="url(#clip112)" style="stroke:#000000; stroke-linecap:butt; stroke-linejoin:round; stroke-width:2; stroke-opacity:0.1; fill:none" points="
  219.866,1386.4 2352.76,1386.4 
  "/>
<polyline clip-path="url(#clip112)" style="stroke:#000000; stroke-linecap:butt; stroke-linejoin:round; stroke-width:2; stroke-opacity:0.1; fill:none" points="
  219.866,1079.01 2352.76,1079.01 
  "/>
<polyline clip-path="url(#clip112)" style="stroke:#000000; stroke-linecap:butt; stroke-linejoin:round; stroke-width:2; stroke-opacity:0.1; fill:none" points="
  219.866,771.62 2352.76,771.62 
  "/>
<polyline clip-path="url(#clip112)" style="stroke:#000000; stroke-linecap:butt; stroke-linejoin:round; stroke-width:2; stroke-opacity:0.1; fill:none" points="
  219.866,464.233 2352.76,464.233 
  "/>
<polyline clip-path="url(#clip112)" style="stroke:#000000; stroke-linecap:butt; stroke-linejoin:round; stroke-width:2; stroke-opacity:0.1; fill:none" points="
  219.866,156.845 2352.76,156.845 
  "/>
<polyline clip-path="url(#clip110)" style="stroke:#000000; stroke-linecap:butt; stroke-linejoin:round; stroke-width:4; stroke-opacity:1; fill:none" points="
  219.866,1423.18 219.866,123.472 
  "/>
<polyline clip-path="url(#clip110)" style="stroke:#000000; stroke-linecap:butt; stroke-linejoin:round; stroke-width:4; stroke-opacity:1; fill:none" points="
  219.866,1386.4 238.764,1386.4 
  "/>
<polyline clip-path="url(#clip110)" style="stroke:#000000; stroke-linecap:butt; stroke-linejoin:round; stroke-width:4; stroke-opacity:1; fill:none" points="
  219.866,1079.01 238.764,1079.01 
  "/>
<polyline clip-path="url(#clip110)" style="stroke:#000000; stroke-linecap:butt; stroke-linejoin:round; stroke-width:4; stroke-opacity:1; fill:none" points="
  219.866,771.62 238.764,771.62 
  "/>
<polyline clip-path="url(#clip110)" style="stroke:#000000; stroke-linecap:butt; stroke-linejoin:round; stroke-width:4; stroke-opacity:1; fill:none" points="
  219.866,464.233 238.764,464.233 
  "/>
<polyline clip-path="url(#clip110)" style="stroke:#000000; stroke-linecap:butt; stroke-linejoin:round; stroke-width:4; stroke-opacity:1; fill:none" points="
  219.866,156.845 238.764,156.845 
  "/>
<path clip-path="url(#clip110)" d="M126.691 1372.19 Q123.08 1372.19 121.251 1375.76 Q119.445 1379.3 119.445 1386.43 Q119.445 1393.54 121.251 1397.1 Q123.08 1400.64 126.691 1400.64 Q130.325 1400.64 132.13 1397.1 Q133.959 1393.54 133.959 1386.43 Q133.959 1379.3 132.13 1375.76 Q130.325 1372.19 126.691 1372.19 M126.691 1368.49 Q132.501 1368.49 135.556 1373.1 Q138.635 1377.68 138.635 1386.43 Q138.635 1395.16 135.556 1399.76 Q132.501 1404.35 126.691 1404.35 Q120.88 1404.35 117.802 1399.76 Q114.746 1395.16 114.746 1386.43 Q114.746 1377.68 117.802 1373.1 Q120.88 1368.49 126.691 1368.49 Z" fill="#000000" fill-rule="evenodd" fill-opacity="1" /><path clip-path="url(#clip110)" d="M146.853 1397.8 L151.737 1397.8 L151.737 1403.68 L146.853 1403.68 L146.853 1397.8 Z" fill="#000000" fill-rule="evenodd" fill-opacity="1" /><path clip-path="url(#clip110)" d="M171.922 1372.19 Q168.311 1372.19 166.482 1375.76 Q164.677 1379.3 164.677 1386.43 Q164.677 1393.54 166.482 1397.1 Q168.311 1400.64 171.922 1400.64 Q175.556 1400.64 177.362 1397.1 Q179.19 1393.54 179.19 1386.43 Q179.19 1379.3 177.362 1375.76 Q175.556 1372.19 171.922 1372.19 M171.922 1368.49 Q177.732 1368.49 180.788 1373.1 Q183.866 1377.68 183.866 1386.43 Q183.866 1395.16 180.788 1399.76 Q177.732 1404.35 171.922 1404.35 Q166.112 1404.35 163.033 1399.76 Q159.978 1395.16 159.978 1386.43 Q159.978 1377.68 163.033 1373.1 Q166.112 1368.49 171.922 1368.49 Z" fill="#000000" fill-rule="evenodd" fill-opacity="1" /><path clip-path="url(#clip110)" d="M127.917 1064.81 Q124.306 1064.81 122.478 1068.37 Q120.672 1071.91 120.672 1079.04 Q120.672 1086.15 122.478 1089.71 Q124.306 1093.26 127.917 1093.26 Q131.552 1093.26 133.357 1089.71 Q135.186 1086.15 135.186 1079.04 Q135.186 1071.91 133.357 1068.37 Q131.552 1064.81 127.917 1064.81 M127.917 1061.1 Q133.728 1061.1 136.783 1065.71 Q139.862 1070.29 139.862 1079.04 Q139.862 1087.77 136.783 1092.38 Q133.728 1096.96 127.917 1096.96 Q122.107 1096.96 119.029 1092.38 Q115.973 1087.77 115.973 1079.04 Q115.973 1070.29 119.029 1065.71 Q122.107 1061.1 127.917 1061.1 Z" fill="#000000" fill-rule="evenodd" fill-opacity="1" /><path clip-path="url(#clip110)" d="M148.079 1090.41 L152.964 1090.41 L152.964 1096.29 L148.079 1096.29 L148.079 1090.41 Z" fill="#000000" fill-rule="evenodd" fill-opacity="1" /><path clip-path="url(#clip110)" d="M163.959 1092.35 L171.598 1092.35 L171.598 1065.99 L163.288 1067.65 L163.288 1063.39 L171.552 1061.73 L176.227 1061.73 L176.227 1092.35 L183.866 1092.35 L183.866 1096.29 L163.959 1096.29 L163.959 1092.35 Z" fill="#000000" fill-rule="evenodd" fill-opacity="1" /><path clip-path="url(#clip110)" d="M128.288 757.419 Q124.677 757.419 122.848 760.984 Q121.043 764.525 121.043 771.655 Q121.043 778.761 122.848 782.326 Q124.677 785.868 128.288 785.868 Q131.922 785.868 133.728 782.326 Q135.556 778.761 135.556 771.655 Q135.556 764.525 133.728 760.984 Q131.922 757.419 128.288 757.419 M128.288 753.715 Q134.098 753.715 137.154 758.322 Q140.232 762.905 140.232 771.655 Q140.232 780.382 137.154 784.988 Q134.098 789.572 128.288 789.572 Q122.478 789.572 119.399 784.988 Q116.343 780.382 116.343 771.655 Q116.343 762.905 119.399 758.322 Q122.478 753.715 128.288 753.715 Z" fill="#000000" fill-rule="evenodd" fill-opacity="1" /><path clip-path="url(#clip110)" d="M148.45 783.021 L153.334 783.021 L153.334 788.9 L148.45 788.9 L148.45 783.021 Z" fill="#000000" fill-rule="evenodd" fill-opacity="1" /><path clip-path="url(#clip110)" d="M167.547 784.965 L183.866 784.965 L183.866 788.9 L161.922 788.9 L161.922 784.965 Q164.584 782.21 169.167 777.581 Q173.774 772.928 174.954 771.586 Q177.2 769.062 178.079 767.326 Q178.982 765.567 178.982 763.877 Q178.982 761.123 177.038 759.387 Q175.116 757.65 172.014 757.65 Q169.815 757.65 167.362 758.414 Q164.931 759.178 162.153 760.729 L162.153 756.007 Q164.977 754.873 167.431 754.294 Q169.885 753.715 171.922 753.715 Q177.292 753.715 180.487 756.4 Q183.681 759.086 183.681 763.576 Q183.681 765.706 182.871 767.627 Q182.084 769.525 179.977 772.118 Q179.399 772.789 176.297 776.007 Q173.195 779.201 167.547 784.965 Z" fill="#000000" fill-rule="evenodd" fill-opacity="1" /><path clip-path="url(#clip110)" d="M127.339 450.031 Q123.728 450.031 121.899 453.596 Q120.093 457.138 120.093 464.267 Q120.093 471.374 121.899 474.938 Q123.728 478.48 127.339 478.48 Q130.973 478.48 132.779 474.938 Q134.607 471.374 134.607 464.267 Q134.607 457.138 132.779 453.596 Q130.973 450.031 127.339 450.031 M127.339 446.328 Q133.149 446.328 136.204 450.934 Q139.283 455.517 139.283 464.267 Q139.283 472.994 136.204 477.601 Q133.149 482.184 127.339 482.184 Q121.529 482.184 118.45 477.601 Q115.394 472.994 115.394 464.267 Q115.394 455.517 118.45 450.934 Q121.529 446.328 127.339 446.328 Z" fill="#000000" fill-rule="evenodd" fill-opacity="1" /><path clip-path="url(#clip110)" d="M147.501 475.633 L152.385 475.633 L152.385 481.513 L147.501 481.513 L147.501 475.633 Z" fill="#000000" fill-rule="evenodd" fill-opacity="1" /><path clip-path="url(#clip110)" d="M176.737 462.878 Q180.093 463.596 181.968 465.864 Q183.866 468.133 183.866 471.466 Q183.866 476.582 180.348 479.383 Q176.829 482.184 170.348 482.184 Q168.172 482.184 165.857 481.744 Q163.565 481.327 161.112 480.471 L161.112 475.957 Q163.056 477.091 165.371 477.67 Q167.686 478.249 170.209 478.249 Q174.607 478.249 176.899 476.513 Q179.214 474.776 179.214 471.466 Q179.214 468.411 177.061 466.698 Q174.931 464.962 171.112 464.962 L167.084 464.962 L167.084 461.119 L171.297 461.119 Q174.746 461.119 176.575 459.753 Q178.403 458.365 178.403 455.772 Q178.403 453.11 176.505 451.698 Q174.63 450.263 171.112 450.263 Q169.19 450.263 166.991 450.679 Q164.792 451.096 162.153 451.976 L162.153 447.809 Q164.815 447.068 167.13 446.698 Q169.468 446.328 171.528 446.328 Q176.852 446.328 179.954 448.758 Q183.056 451.165 183.056 455.286 Q183.056 458.156 181.413 460.147 Q179.769 462.114 176.737 462.878 Z" fill="#000000" fill-rule="evenodd" fill-opacity="1" /><path clip-path="url(#clip110)" d="M126.205 142.644 Q122.593 142.644 120.765 146.208 Q118.959 149.75 118.959 156.88 Q118.959 163.986 120.765 167.551 Q122.593 171.092 126.205 171.092 Q129.839 171.092 131.644 167.551 Q133.473 163.986 133.473 156.88 Q133.473 149.75 131.644 146.208 Q129.839 142.644 126.205 142.644 M126.205 138.94 Q132.015 138.94 135.07 143.546 Q138.149 148.13 138.149 156.88 Q138.149 165.606 135.07 170.213 Q132.015 174.796 126.205 174.796 Q120.394 174.796 117.316 170.213 Q114.26 165.606 114.26 156.88 Q114.26 148.13 117.316 143.546 Q120.394 138.94 126.205 138.94 Z" fill="#000000" fill-rule="evenodd" fill-opacity="1" /><path clip-path="url(#clip110)" d="M146.366 168.245 L151.251 168.245 L151.251 174.125 L146.366 174.125 L146.366 168.245 Z" fill="#000000" fill-rule="evenodd" fill-opacity="1" /><path clip-path="url(#clip110)" d="M174.283 143.639 L162.477 162.088 L174.283 162.088 L174.283 143.639 M173.056 139.565 L178.936 139.565 L178.936 162.088 L183.866 162.088 L183.866 165.977 L178.936 165.977 L178.936 174.125 L174.283 174.125 L174.283 165.977 L158.681 165.977 L158.681 161.463 L173.056 139.565 Z" fill="#000000" fill-rule="evenodd" fill-opacity="1" /><path clip-path="url(#clip110)" d="M58.657 827.084 L77.5631 827.084 L77.5631 832.973 L28.3562 832.973 L28.3562 827.084 L33.7671 827.084 Q30.5842 825.238 29.0564 822.437 Q27.4968 819.605 27.4968 815.69 Q27.4968 809.197 32.6531 805.155 Q37.8093 801.08 46.212 801.08 Q54.6147 801.08 59.771 805.155 Q64.9272 809.197 64.9272 815.69 Q64.9272 819.605 63.3994 822.437 Q61.8398 825.238 58.657 827.084 M46.212 807.16 Q39.7508 807.16 36.0905 809.833 Q32.3984 812.475 32.3984 817.122 Q32.3984 821.769 36.0905 824.443 Q39.7508 827.084 46.212 827.084 Q52.6732 827.084 56.3653 824.443 Q60.0256 821.769 60.0256 817.122 Q60.0256 812.475 56.3653 809.833 Q52.6732 807.16 46.212 807.16 Z" fill="#000000" fill-rule="evenodd" fill-opacity="1" /><path clip-path="url(#clip110)" d="M14.5426 777.305 Q21.8632 781.57 29.0246 783.638 Q36.186 785.707 43.5384 785.707 Q50.8908 785.707 58.1159 783.638 Q65.3091 781.538 72.5979 777.305 L72.5979 782.397 Q65.1182 787.171 57.8931 789.559 Q50.668 791.914 43.5384 791.914 Q36.4406 791.914 29.2474 789.559 Q22.0542 787.203 14.5426 782.397 L14.5426 777.305 Z" fill="#000000" fill-rule="evenodd" fill-opacity="1" /><path clip-path="url(#clip110)" d="M28.3562 736.309 L45.7028 749.2 L64.0042 735.641 L64.0042 742.548 L49.9996 752.924 L64.0042 763.3 L64.0042 770.207 L45.3526 756.361 L28.3562 769.029 L28.3562 762.122 L41.0558 752.669 L28.3562 743.216 L28.3562 736.309 Z" fill="#000000" fill-rule="evenodd" fill-opacity="1" /><path clip-path="url(#clip110)" d="M14.5426 728.289 L14.5426 723.196 Q22.0542 718.422 29.2474 716.066 Q36.4406 713.679 43.5384 713.679 Q50.668 713.679 57.8931 716.066 Q65.1182 718.422 72.5979 723.196 L72.5979 728.289 Q65.3091 724.055 58.1159 721.987 Q50.8908 719.886 43.5384 719.886 Q36.186 719.886 29.0246 721.987 Q21.8632 724.055 14.5426 728.289 Z" fill="#000000" fill-rule="evenodd" fill-opacity="1" /><path clip-path="url(#clip110)" d="M724.329 14.0809 L724.329 22.0612 Q719.671 19.8332 715.539 18.7395 Q711.407 17.6457 707.558 17.6457 Q700.874 17.6457 697.229 20.2383 Q693.623 22.8309 693.623 27.611 Q693.623 31.6214 696.013 33.6873 Q698.444 35.7128 705.168 36.9686 L710.11 37.9813 Q719.266 39.7232 723.6 44.1387 Q727.975 48.5136 727.975 55.8863 Q727.975 64.6767 722.061 69.2137 Q716.187 73.7508 704.804 73.7508 Q700.51 73.7508 695.649 72.7785 Q690.828 71.8063 685.643 69.9024 L685.643 61.4765 Q690.626 64.2716 695.406 65.6895 Q700.186 67.1073 704.804 67.1073 Q711.812 67.1073 715.62 64.3527 Q719.428 61.598 719.428 56.4939 Q719.428 52.0379 716.673 49.5264 Q713.959 47.0148 707.72 45.759 L702.738 44.7868 Q693.583 42.9639 689.491 39.075 Q685.4 35.1862 685.4 28.2591 Q685.4 20.2383 691.031 15.6203 Q696.702 11.0023 706.627 11.0023 Q710.88 11.0023 715.296 11.7719 Q719.711 12.5416 724.329 14.0809 Z" fill="#000000" fill-rule="evenodd" fill-opacity="1" /><path clip-path="url(#clip110)" d="M747.784 14.324 L747.784 27.2059 L763.137 27.2059 L763.137 32.9987 L747.784 32.9987 L747.784 57.6282 Q747.784 63.1779 749.283 64.7578 Q750.822 66.3376 755.481 66.3376 L763.137 66.3376 L763.137 72.576 L755.481 72.576 Q746.852 72.576 743.571 69.3758 Q740.29 66.1351 740.29 57.6282 L740.29 32.9987 L734.821 32.9987 L734.821 27.2059 L740.29 27.2059 L740.29 14.324 L747.784 14.324 Z" fill="#000000" fill-rule="evenodd" fill-opacity="1" /><path clip-path="url(#clip110)" d="M793.559 49.7694 Q784.526 49.7694 781.042 51.8354 Q777.558 53.9013 777.558 58.8839 Q777.558 62.8538 780.151 65.2034 Q782.784 67.5124 787.28 67.5124 Q793.478 67.5124 797.205 63.1374 Q800.972 58.7219 800.972 51.4303 L800.972 49.7694 L793.559 49.7694 M808.426 46.6907 L808.426 72.576 L800.972 72.576 L800.972 65.6895 Q798.42 69.8214 794.612 71.8063 Q790.804 73.7508 785.295 73.7508 Q778.328 73.7508 774.196 69.8619 Q770.104 65.9325 770.104 59.3701 Q770.104 51.7138 775.209 47.825 Q780.353 43.9361 790.521 43.9361 L800.972 43.9361 L800.972 43.2069 Q800.972 38.0623 797.569 35.2672 Q794.207 32.4315 788.09 32.4315 Q784.202 32.4315 780.515 33.3632 Q776.829 34.295 773.426 36.1584 L773.426 29.2718 Q777.518 27.692 781.366 26.9223 Q785.214 26.1121 788.86 26.1121 Q798.704 26.1121 803.565 31.2163 Q808.426 36.3204 808.426 46.6907 Z" fill="#000000" fill-rule="evenodd" fill-opacity="1" /><path clip-path="url(#clip110)" d="M861.493 45.1919 L861.493 72.576 L854.039 72.576 L854.039 45.4349 Q854.039 38.994 851.528 35.7938 Q849.016 32.5936 843.993 32.5936 Q837.957 32.5936 834.473 36.4419 Q830.989 40.2903 830.989 46.9338 L830.989 72.576 L823.495 72.576 L823.495 27.2059 L830.989 27.2059 L830.989 34.2544 Q833.663 30.163 837.268 28.1376 Q840.914 26.1121 845.654 26.1121 Q853.472 26.1121 857.482 30.9732 Q861.493 35.7938 861.493 45.1919 Z" fill="#000000" fill-rule="evenodd" fill-opacity="1" /><path clip-path="url(#clip110)" d="M906.215 34.0924 L906.215 9.54393 L913.668 9.54393 L913.668 72.576 L906.215 72.576 L906.215 65.7705 Q903.865 69.8214 900.26 71.8063 Q896.695 73.7508 891.672 73.7508 Q883.449 73.7508 878.264 67.1883 Q873.119 60.6258 873.119 49.9314 Q873.119 39.2371 878.264 32.6746 Q883.449 26.1121 891.672 26.1121 Q896.695 26.1121 900.26 28.0971 Q903.865 30.0415 906.215 34.0924 M880.816 49.9314 Q880.816 58.1548 884.178 62.8538 Q887.581 67.5124 893.495 67.5124 Q899.409 67.5124 902.812 62.8538 Q906.215 58.1548 906.215 49.9314 Q906.215 41.7081 902.812 37.0496 Q899.409 32.3505 893.495 32.3505 Q887.581 32.3505 884.178 37.0496 Q880.816 41.7081 880.816 49.9314 Z" fill="#000000" fill-rule="evenodd" fill-opacity="1" /><path clip-path="url(#clip110)" d="M949.64 49.7694 Q940.607 49.7694 937.123 51.8354 Q933.639 53.9013 933.639 58.8839 Q933.639 62.8538 936.232 65.2034 Q938.865 67.5124 943.362 67.5124 Q949.559 67.5124 953.286 63.1374 Q957.054 58.7219 957.054 51.4303 L957.054 49.7694 L949.64 49.7694 M964.507 46.6907 L964.507 72.576 L957.054 72.576 L957.054 65.6895 Q954.502 69.8214 950.694 71.8063 Q946.886 73.7508 941.377 73.7508 Q934.409 73.7508 930.277 69.8619 Q926.186 65.9325 926.186 59.3701 Q926.186 51.7138 931.29 47.825 Q936.434 43.9361 946.602 43.9361 L957.054 43.9361 L957.054 43.2069 Q957.054 38.0623 953.651 35.2672 Q950.289 32.4315 944.172 32.4315 Q940.283 32.4315 936.597 33.3632 Q932.91 34.295 929.507 36.1584 L929.507 29.2718 Q933.599 27.692 937.447 26.9223 Q941.296 26.1121 944.941 26.1121 Q954.785 26.1121 959.646 31.2163 Q964.507 36.3204 964.507 46.6907 Z" fill="#000000" fill-rule="evenodd" fill-opacity="1" /><path clip-path="url(#clip110)" d="M1006.15 34.1734 Q1004.89 33.4443 1003.4 33.1202 Q1001.94 32.7556 1000.16 32.7556 Q993.836 32.7556 990.433 36.8875 Q987.071 40.9789 987.071 48.6757 L987.071 72.576 L979.577 72.576 L979.577 27.2059 L987.071 27.2059 L987.071 34.2544 Q989.42 30.1225 993.188 28.1376 Q996.955 26.1121 1002.34 26.1121 Q1003.11 26.1121 1004.04 26.2337 Q1004.98 26.3147 1006.11 26.5172 L1006.15 34.1734 Z" fill="#000000" fill-rule="evenodd" fill-opacity="1" /><path clip-path="url(#clip110)" d="M1042.37 34.0924 L1042.37 9.54393 L1049.82 9.54393 L1049.82 72.576 L1042.37 72.576 L1042.37 65.7705 Q1040.02 69.8214 1036.41 71.8063 Q1032.85 73.7508 1027.82 73.7508 Q1019.6 73.7508 1014.41 67.1883 Q1009.27 60.6258 1009.27 49.9314 Q1009.27 39.2371 1014.41 32.6746 Q1019.6 26.1121 1027.82 26.1121 Q1032.85 26.1121 1036.41 28.0971 Q1040.02 30.0415 1042.37 34.0924 M1016.97 49.9314 Q1016.97 58.1548 1020.33 62.8538 Q1023.73 67.5124 1029.65 67.5124 Q1035.56 67.5124 1038.96 62.8538 Q1042.37 58.1548 1042.37 49.9314 Q1042.37 41.7081 1038.96 37.0496 Q1035.56 32.3505 1029.65 32.3505 Q1023.73 32.3505 1020.33 37.0496 Q1016.97 41.7081 1016.97 49.9314 Z" fill="#000000" fill-rule="evenodd" fill-opacity="1" /><path clip-path="url(#clip110)" d="M1091.87 12.096 L1102.89 12.096 L1129.7 62.6918 L1129.7 12.096 L1137.64 12.096 L1137.64 72.576 L1126.62 72.576 L1099.81 21.9802 L1099.81 72.576 L1091.87 72.576 L1091.87 12.096 Z" fill="#000000" fill-rule="evenodd" fill-opacity="1" /><path clip-path="url(#clip110)" d="M1171.18 32.4315 Q1165.19 32.4315 1161.71 37.1306 Q1158.22 41.7891 1158.22 49.9314 Q1158.22 58.0738 1161.66 62.7728 Q1165.15 67.4314 1171.18 67.4314 Q1177.14 67.4314 1180.62 62.7323 Q1184.11 58.0333 1184.11 49.9314 Q1184.11 41.8701 1180.62 37.1711 Q1177.14 32.4315 1171.18 32.4315 M1171.18 26.1121 Q1180.91 26.1121 1186.46 32.4315 Q1192.01 38.7509 1192.01 49.9314 Q1192.01 61.0714 1186.46 67.4314 Q1180.91 73.7508 1171.18 73.7508 Q1161.42 73.7508 1155.87 67.4314 Q1150.36 61.0714 1150.36 49.9314 Q1150.36 38.7509 1155.87 32.4315 Q1161.42 26.1121 1171.18 26.1121 Z" fill="#000000" fill-rule="evenodd" fill-opacity="1" /><path clip-path="url(#clip110)" d="M1230.65 34.1734 Q1229.4 33.4443 1227.9 33.1202 Q1226.44 32.7556 1224.66 32.7556 Q1218.34 32.7556 1214.93 36.8875 Q1211.57 40.9789 1211.57 48.6757 L1211.57 72.576 L1204.08 72.576 L1204.08 27.2059 L1211.57 27.2059 L1211.57 34.2544 Q1213.92 30.1225 1217.69 28.1376 Q1221.46 26.1121 1226.84 26.1121 Q1227.61 26.1121 1228.55 26.2337 Q1229.48 26.3147 1230.61 26.5172 L1230.65 34.1734 Z" fill="#000000" fill-rule="evenodd" fill-opacity="1" /><path clip-path="url(#clip110)" d="M1272.34 35.9153 Q1275.13 30.8922 1279.02 28.5022 Q1282.91 26.1121 1288.17 26.1121 Q1295.26 26.1121 1299.11 31.0947 Q1302.96 36.0368 1302.96 45.1919 L1302.96 72.576 L1295.47 72.576 L1295.47 45.4349 Q1295.47 38.913 1293.16 35.7533 Q1290.85 32.5936 1286.11 32.5936 Q1280.32 32.5936 1276.95 36.4419 Q1273.59 40.2903 1273.59 46.9338 L1273.59 72.576 L1266.1 72.576 L1266.1 45.4349 Q1266.1 38.8725 1263.79 35.7533 Q1261.48 32.5936 1256.66 32.5936 Q1250.95 32.5936 1247.58 36.4824 Q1244.22 40.3308 1244.22 46.9338 L1244.22 72.576 L1236.73 72.576 L1236.73 27.2059 L1244.22 27.2059 L1244.22 34.2544 Q1246.77 30.082 1250.34 28.0971 Q1253.9 26.1121 1258.81 26.1121 Q1263.75 26.1121 1267.19 28.6237 Q1270.67 31.1352 1272.34 35.9153 Z" fill="#000000" fill-rule="evenodd" fill-opacity="1" /><path clip-path="url(#clip110)" d="M1338.45 49.7694 Q1329.41 49.7694 1325.93 51.8354 Q1322.45 53.9013 1322.45 58.8839 Q1322.45 62.8538 1325.04 65.2034 Q1327.67 67.5124 1332.17 67.5124 Q1338.37 67.5124 1342.09 63.1374 Q1345.86 58.7219 1345.86 51.4303 L1345.86 49.7694 L1338.45 49.7694 M1353.31 46.6907 L1353.31 72.576 L1345.86 72.576 L1345.86 65.6895 Q1343.31 69.8214 1339.5 71.8063 Q1335.69 73.7508 1330.18 73.7508 Q1323.21 73.7508 1319.08 69.8619 Q1314.99 65.9325 1314.99 59.3701 Q1314.99 51.7138 1320.1 47.825 Q1325.24 43.9361 1335.41 43.9361 L1345.86 43.9361 L1345.86 43.2069 Q1345.86 38.0623 1342.46 35.2672 Q1339.09 32.4315 1332.98 32.4315 Q1329.09 32.4315 1325.4 33.3632 Q1321.72 34.295 1318.31 36.1584 L1318.31 29.2718 Q1322.4 27.692 1326.25 26.9223 Q1330.1 26.1121 1333.75 26.1121 Q1343.59 26.1121 1348.45 31.2163 Q1353.31 36.3204 1353.31 46.6907 Z" fill="#000000" fill-rule="evenodd" fill-opacity="1" /><path clip-path="url(#clip110)" d="M1368.67 9.54393 L1376.12 9.54393 L1376.12 72.576 L1368.67 72.576 L1368.67 9.54393 Z" fill="#000000" fill-rule="evenodd" fill-opacity="1" /><path clip-path="url(#clip110)" d="M1426.59 18.8205 L1426.59 65.8515 L1436.48 65.8515 Q1449 65.8515 1454.79 60.1802 Q1460.62 54.509 1460.62 42.2752 Q1460.62 30.1225 1454.79 24.4918 Q1449 18.8205 1436.48 18.8205 L1426.59 18.8205 M1418.41 12.096 L1435.22 12.096 Q1452.8 12.096 1461.03 19.4281 Q1469.25 26.7198 1469.25 42.2752 Q1469.25 57.9117 1460.99 65.2439 Q1452.72 72.576 1435.22 72.576 L1418.41 72.576 L1418.41 12.096 Z" fill="#000000" fill-rule="evenodd" fill-opacity="1" /><path clip-path="url(#clip110)" d="M1481.97 27.2059 L1489.42 27.2059 L1489.42 72.576 L1481.97 72.576 L1481.97 27.2059 M1481.97 9.54393 L1489.42 9.54393 L1489.42 18.9825 L1481.97 18.9825 L1481.97 9.54393 Z" fill="#000000" fill-rule="evenodd" fill-opacity="1" /><path clip-path="url(#clip110)" d="M1533.94 28.5427 L1533.94 35.5912 Q1530.78 33.9709 1527.38 33.1607 Q1523.98 32.3505 1520.33 32.3505 Q1514.78 32.3505 1511.99 34.0519 Q1509.23 35.7533 1509.23 39.156 Q1509.23 41.7486 1511.22 43.2475 Q1513.2 44.7058 1519.2 46.0426 L1521.75 46.6097 Q1529.69 48.3111 1533.01 51.4303 Q1536.37 54.509 1536.37 60.0587 Q1536.37 66.3781 1531.35 70.0644 Q1526.37 73.7508 1517.62 73.7508 Q1513.97 73.7508 1510 73.0216 Q1506.07 72.3329 1501.7 70.9151 L1501.7 63.2184 Q1505.83 65.3654 1509.84 66.4591 Q1513.85 67.5124 1517.78 67.5124 Q1523.05 67.5124 1525.88 65.73 Q1528.72 63.9071 1528.72 60.6258 Q1528.72 57.5877 1526.65 55.9673 Q1524.63 54.3469 1517.7 52.8481 L1515.11 52.2405 Q1508.18 50.7821 1505.1 47.7845 Q1502.02 44.7463 1502.02 39.4801 Q1502.02 33.0797 1506.56 29.5959 Q1511.1 26.1121 1519.44 26.1121 Q1523.57 26.1121 1527.22 26.7198 Q1530.86 27.3274 1533.94 28.5427 Z" fill="#000000" fill-rule="evenodd" fill-opacity="1" /><path clip-path="url(#clip110)" d="M1555.62 14.324 L1555.62 27.2059 L1570.97 27.2059 L1570.97 32.9987 L1555.62 32.9987 L1555.62 57.6282 Q1555.62 63.1779 1557.11 64.7578 Q1558.65 66.3376 1563.31 66.3376 L1570.97 66.3376 L1570.97 72.576 L1563.31 72.576 Q1554.68 72.576 1551.4 69.3758 Q1548.12 66.1351 1548.12 57.6282 L1548.12 32.9987 L1542.65 32.9987 L1542.65 27.2059 L1548.12 27.2059 L1548.12 14.324 L1555.62 14.324 Z" fill="#000000" fill-rule="evenodd" fill-opacity="1" /><path clip-path="url(#clip110)" d="M1607.06 34.1734 Q1605.81 33.4443 1604.31 33.1202 Q1602.85 32.7556 1601.07 32.7556 Q1594.75 32.7556 1591.34 36.8875 Q1587.98 40.9789 1587.98 48.6757 L1587.98 72.576 L1580.49 72.576 L1580.49 27.2059 L1587.98 27.2059 L1587.98 34.2544 Q1590.33 30.1225 1594.1 28.1376 Q1597.87 26.1121 1603.25 26.1121 Q1604.02 26.1121 1604.96 26.2337 Q1605.89 26.3147 1607.02 26.5172 L1607.06 34.1734 Z" fill="#000000" fill-rule="evenodd" fill-opacity="1" /><path clip-path="url(#clip110)" d="M1614.88 27.2059 L1622.33 27.2059 L1622.33 72.576 L1614.88 72.576 L1614.88 27.2059 M1614.88 9.54393 L1622.33 9.54393 L1622.33 18.9825 L1614.88 18.9825 L1614.88 9.54393 Z" fill="#000000" fill-rule="evenodd" fill-opacity="1" /><path clip-path="url(#clip110)" d="M1670.5 49.9314 Q1670.5 41.7081 1667.1 37.0496 Q1663.73 32.3505 1657.82 32.3505 Q1651.91 32.3505 1648.5 37.0496 Q1645.14 41.7081 1645.14 49.9314 Q1645.14 58.1548 1648.5 62.8538 Q1651.91 67.5124 1657.82 67.5124 Q1663.73 67.5124 1667.1 62.8538 Q1670.5 58.1548 1670.5 49.9314 M1645.14 34.0924 Q1647.49 30.0415 1651.05 28.0971 Q1654.66 26.1121 1659.64 26.1121 Q1667.91 26.1121 1673.05 32.6746 Q1678.24 39.2371 1678.24 49.9314 Q1678.24 60.6258 1673.05 67.1883 Q1667.91 73.7508 1659.64 73.7508 Q1654.66 73.7508 1651.05 71.8063 Q1647.49 69.8214 1645.14 65.7705 L1645.14 72.576 L1637.65 72.576 L1637.65 9.54393 L1645.14 9.54393 L1645.14 34.0924 Z" fill="#000000" fill-rule="evenodd" fill-opacity="1" /><path clip-path="url(#clip110)" d="M1689.82 54.671 L1689.82 27.2059 L1697.28 27.2059 L1697.28 54.3874 Q1697.28 60.8284 1699.79 64.0691 Q1702.3 67.2693 1707.32 67.2693 Q1713.36 67.2693 1716.84 63.421 Q1720.37 59.5726 1720.37 52.9291 L1720.37 27.2059 L1727.82 27.2059 L1727.82 72.576 L1720.37 72.576 L1720.37 65.6084 Q1717.65 69.7404 1714.05 71.7658 Q1710.48 73.7508 1705.74 73.7508 Q1697.92 73.7508 1693.87 68.8897 Q1689.82 64.0286 1689.82 54.671 M1708.58 26.1121 L1708.58 26.1121 Z" fill="#000000" fill-rule="evenodd" fill-opacity="1" /><path clip-path="url(#clip110)" d="M1750.54 14.324 L1750.54 27.2059 L1765.9 27.2059 L1765.9 32.9987 L1750.54 32.9987 L1750.54 57.6282 Q1750.54 63.1779 1752.04 64.7578 Q1753.58 66.3376 1758.24 66.3376 L1765.9 66.3376 L1765.9 72.576 L1758.24 72.576 Q1749.61 72.576 1746.33 69.3758 Q1743.05 66.1351 1743.05 57.6282 L1743.05 32.9987 L1737.58 32.9987 L1737.58 27.2059 L1743.05 27.2059 L1743.05 14.324 L1750.54 14.324 Z" fill="#000000" fill-rule="evenodd" fill-opacity="1" /><path clip-path="url(#clip110)" d="M1775.7 27.2059 L1783.15 27.2059 L1783.15 72.576 L1775.7 72.576 L1775.7 27.2059 M1775.7 9.54393 L1783.15 9.54393 L1783.15 18.9825 L1775.7 18.9825 L1775.7 9.54393 Z" fill="#000000" fill-rule="evenodd" fill-opacity="1" /><path clip-path="url(#clip110)" d="M1816.33 32.4315 Q1810.34 32.4315 1806.85 37.1306 Q1803.37 41.7891 1803.37 49.9314 Q1803.37 58.0738 1806.81 62.7728 Q1810.3 67.4314 1816.33 67.4314 Q1822.29 67.4314 1825.77 62.7323 Q1829.25 58.0333 1829.25 49.9314 Q1829.25 41.8701 1825.77 37.1711 Q1822.29 32.4315 1816.33 32.4315 M1816.33 26.1121 Q1826.05 26.1121 1831.6 32.4315 Q1837.15 38.7509 1837.15 49.9314 Q1837.15 61.0714 1831.6 67.4314 Q1826.05 73.7508 1816.33 73.7508 Q1806.57 73.7508 1801.02 67.4314 Q1795.51 61.0714 1795.51 49.9314 Q1795.51 38.7509 1801.02 32.4315 Q1806.57 26.1121 1816.33 26.1121 Z" fill="#000000" fill-rule="evenodd" fill-opacity="1" /><path clip-path="url(#clip110)" d="M1887.22 45.1919 L1887.22 72.576 L1879.77 72.576 L1879.77 45.4349 Q1879.77 38.994 1877.26 35.7938 Q1874.75 32.5936 1869.72 32.5936 Q1863.69 32.5936 1860.2 36.4419 Q1856.72 40.2903 1856.72 46.9338 L1856.72 72.576 L1849.22 72.576 L1849.22 27.2059 L1856.72 27.2059 L1856.72 34.2544 Q1859.39 30.163 1863 28.1376 Q1866.64 26.1121 1871.38 26.1121 Q1879.2 26.1121 1883.21 30.9732 Q1887.22 35.7938 1887.22 45.1919 Z" fill="#000000" fill-rule="evenodd" fill-opacity="1" /><path clip-path="url(#clip112)" d="
M280.231 1385.18 L286.781 1385.06 L293.331 1384.94 L353.897 1383.17 L414.462 1379.59 L450.859 1375.98 L487.257 1370.76 L518.03 1364.66 L548.804 1356.56 L565.518 1351.16 
  L582.232 1344.93 L598.946 1337.79 L615.661 1329.64 L631.07 1321.13 L646.479 1311.6 L661.888 1300.95 L677.297 1289.1 L693.817 1274.97 L710.338 1259.27 L726.858 1241.88 
  L743.378 1222.74 L762.518 1198.24 L781.658 1171.15 L800.799 1141.4 L819.939 1108.92 L836.949 1077.76 L853.958 1044.46 L870.968 1009.06 L887.977 971.639 L902.893 937.245 
  L917.809 901.475 L932.725 864.445 L947.641 826.294 L980.165 740.003 L1012.69 651.124 L1045.41 561.502 L1078.13 474.394 L1087.17 451.15 L1096.21 428.385 L1105.26 406.162 
  L1114.3 384.543 L1123.34 363.592 L1132.39 343.368 L1141.43 323.932 L1150.47 305.344 L1159.08 288.495 L1167.68 272.511 L1176.29 257.436 L1184.89 243.315 L1193.5 230.188 
  L1202.1 218.093 L1210.71 207.064 L1219.31 197.136 L1228.26 188.01 L1237.2 180.135 L1246.15 173.535 L1255.1 168.232 L1264.04 164.243 L1272.99 161.582 L1281.94 160.256 
  L1290.89 160.271 L1298.42 161.323 L1305.95 163.323 L1313.48 166.265 L1321.01 170.143 L1328.54 174.948 L1336.07 180.669 L1343.6 187.292 L1351.14 194.803 L1360.33 205.152 
  L1369.53 216.762 L1378.72 229.596 L1387.92 243.61 L1397.11 258.757 L1406.31 274.988 L1415.5 292.251 L1424.69 310.489 L1441.54 346.241 L1458.39 384.696 L1466.81 404.816 
  L1475.23 425.464 L1483.66 446.589 L1492.08 468.14 L1523.2 550.614 L1554.31 635.68 L1585.84 722.049 L1617.36 806.409 L1635.02 852.087 L1652.68 896.261 L1670.35 938.696 
  L1688.01 979.197 L1704.02 1014.1 L1720.02 1047.2 L1736.03 1078.43 L1752.03 1107.77 L1770.36 1139.01 L1788.68 1167.75 L1807.01 1194.04 L1825.33 1217.94 L1842.3 1238.02 
  L1859.27 1256.22 L1876.24 1272.64 L1893.2 1287.38 L1909.93 1300.37 L1926.66 1311.94 L1943.39 1322.2 L1960.12 1331.26 L1976.36 1339 L1992.6 1345.8 L2008.84 1351.76 
  L2025.08 1356.94 L2058.38 1365.51 L2091.68 1371.81 L2128.17 1376.72 L2164.65 1380.09 L2217.65 1383.12 L2270.65 1384.76 L2281.52 1384.98 L2292.39 1385.18 L2292.39 1386.4 
  L2281.52 1386.4 L2270.65 1386.4 L2217.65 1386.4 L2164.65 1386.4 L2128.17 1386.4 L2091.68 1386.4 L2058.38 1386.4 L2025.08 1386.4 L2008.84 1386.4 L1992.6 1386.4 
  L1976.36 1386.4 L1960.12 1386.4 L1943.39 1386.4 L1926.66 1386.4 L1909.93 1386.4 L1893.2 1386.4 L1876.24 1386.4 L1859.27 1386.4 L1842.3 1386.4 L1825.33 1386.4 
  L1807.01 1386.4 L1788.68 1386.4 L1770.36 1386.4 L1752.03 1386.4 L1736.03 1386.4 L1720.02 1386.4 L1704.02 1386.4 L1688.01 1386.4 L1670.35 1386.4 L1652.68 1386.4 
  L1635.02 1386.4 L1617.36 1386.4 L1585.84 1386.4 L1554.31 1386.4 L1523.2 1386.4 L1492.08 1386.4 L1483.66 1386.4 L1475.23 1386.4 L1466.81 1386.4 L1458.39 1386.4 
  L1441.54 1386.4 L1424.69 1386.4 L1415.5 1386.4 L1406.31 1386.4 L1397.11 1386.4 L1387.92 1386.4 L1378.72 1386.4 L1369.53 1386.4 L1360.33 1386.4 L1351.14 1386.4 
  L1343.6 1386.4 L1336.07 1386.4 L1328.54 1386.4 L1321.01 1386.4 L1313.48 1386.4 L1305.95 1386.4 L1298.42 1386.4 L1290.89 1386.4 L1281.94 1386.4 L1272.99 1386.4 
  L1264.04 1386.4 L1255.1 1386.4 L1246.15 1386.4 L1237.2 1386.4 L1228.26 1386.4 L1219.31 1386.4 L1210.71 1386.4 L1202.1 1386.4 L1193.5 1386.4 L1184.89 1386.4 
  L1176.29 1386.4 L1167.68 1386.4 L1159.08 1386.4 L1150.47 1386.4 L1141.43 1386.4 L1132.39 1386.4 L1123.34 1386.4 L1114.3 1386.4 L1105.26 1386.4 L1096.21 1386.4 
  L1087.17 1386.4 L1078.13 1386.4 L1045.41 1386.4 L1012.69 1386.4 L980.165 1386.4 L947.641 1386.4 L932.725 1386.4 L917.809 1386.4 L902.893 1386.4 L887.977 1386.4 
  L870.968 1386.4 L853.958 1386.4 L836.949 1386.4 L819.939 1386.4 L800.799 1386.4 L781.658 1386.4 L762.518 1386.4 L743.378 1386.4 L726.858 1386.4 L710.338 1386.4 
  L693.817 1386.4 L677.297 1386.4 L661.888 1386.4 L646.479 1386.4 L631.07 1386.4 L615.661 1386.4 L598.946 1386.4 L582.232 1386.4 L565.518 1386.4 L548.804 1386.4 
  L518.03 1386.4 L487.257 1386.4 L450.859 1386.4 L414.462 1386.4 L353.897 1386.4 L293.331 1386.4 L286.781 1386.4 L280.231 1386.4  Z
  " fill="#ff0000" fill-rule="evenodd" fill-opacity="0.5"/>
<polyline clip-path="url(#clip112)" style="stroke:#009af9; stroke-linecap:butt; stroke-linejoin:round; stroke-width:4; stroke-opacity:1; fill:none" points="
  280.231,1385.18 286.781,1385.06 293.331,1384.94 353.897,1383.17 414.462,1379.59 450.859,1375.98 487.257,1370.76 518.03,1364.66 548.804,1356.56 565.518,1351.16 
  582.232,1344.93 598.946,1337.79 615.661,1329.64 631.07,1321.13 646.479,1311.6 661.888,1300.95 677.297,1289.1 693.817,1274.97 710.338,1259.27 726.858,1241.88 
  743.378,1222.74 762.518,1198.24 781.658,1171.15 800.799,1141.4 819.939,1108.92 836.949,1077.76 853.958,1044.46 870.968,1009.06 887.977,971.639 902.893,937.245 
  917.809,901.475 932.725,864.445 947.641,826.294 980.165,740.003 1012.69,651.124 1045.41,561.502 1078.13,474.394 1087.17,451.15 1096.21,428.385 1105.26,406.162 
  1114.3,384.543 1123.34,363.592 1132.39,343.368 1141.43,323.932 1150.47,305.344 1159.08,288.495 1167.68,272.511 1176.29,257.436 1184.89,243.315 1193.5,230.188 
  1202.1,218.093 1210.71,207.064 1219.31,197.136 1228.26,188.01 1237.2,180.135 1246.15,173.535 1255.1,168.232 1264.04,164.243 1272.99,161.582 1281.94,160.256 
  1290.89,160.271 1298.42,161.323 1305.95,163.323 1313.48,166.265 1321.01,170.143 1328.54,174.948 1336.07,180.669 1343.6,187.292 1351.14,194.803 1360.33,205.152 
  1369.53,216.762 1378.72,229.596 1387.92,243.61 1397.11,258.757 1406.31,274.988 1415.5,292.251 1424.69,310.489 1441.54,346.241 1458.39,384.696 1466.81,404.816 
  1475.23,425.464 1483.66,446.589 1492.08,468.14 1523.2,550.614 1554.31,635.68 1585.84,722.049 1617.36,806.409 1635.02,852.087 1652.68,896.261 1670.35,938.696 
  1688.01,979.197 1704.02,1014.1 1720.02,1047.2 1736.03,1078.43 1752.03,1107.77 1770.36,1139.01 1788.68,1167.75 1807.01,1194.04 1825.33,1217.94 1842.3,1238.02 
  1859.27,1256.22 1876.24,1272.64 1893.2,1287.38 1909.93,1300.37 1926.66,1311.94 1943.39,1322.2 1960.12,1331.26 1976.36,1339 1992.6,1345.8 2008.84,1351.76 
  2025.08,1356.94 2058.38,1365.51 2091.68,1371.81 2128.17,1376.72 2164.65,1380.09 2217.65,1383.12 2270.65,1384.76 2281.52,1384.98 2292.39,1385.18 
  "/>
</svg>
