<?xml version="1.0" encoding="utf-8"?>
<svg xmlns="http://www.w3.org/2000/svg" xmlns:xlink="http://www.w3.org/1999/xlink" width="600" height="400" viewBox="0 0 2400 1600">
<defs>
  <clipPath id="clip150">
    <rect x="0" y="0" width="2400" height="1600"/>
  </clipPath>
</defs>
<path clip-path="url(#clip150)" d="
M0 1600 L2400 1600 L2400 0 L0 0  Z
  " fill="#ffffff" fill-rule="evenodd" fill-opacity="1"/>
<defs>
  <clipPath id="clip151">
    <rect x="480" y="0" width="1681" height="1600"/>
  </clipPath>
</defs>
<path clip-path="url(#clip150)" d="
M429.554 1350.11 L2352.76 1350.11 L2352.76 140.752 L429.554 140.752  Z
  " fill="#ffffff" fill-rule="evenodd" fill-opacity="1"/>
<defs>
  <clipPath id="clip152">
    <rect x="429" y="140" width="1924" height="1210"/>
  </clipPath>
</defs>
<polyline clip-path="url(#clip152)" style="stroke:#000000; stroke-linecap:butt; stroke-linejoin:round; stroke-width:2; stroke-opacity:0.1; fill:none" points="
  659.372,1350.11 659.372,140.752 
  "/>
<polyline clip-path="url(#clip152)" style="stroke:#000000; stroke-linecap:butt; stroke-linejoin:round; stroke-width:2; stroke-opacity:0.1; fill:none" points="
  903.299,1350.11 903.299,140.752 
  "/>
<polyline clip-path="url(#clip152)" style="stroke:#000000; stroke-linecap:butt; stroke-linejoin:round; stroke-width:2; stroke-opacity:0.1; fill:none" points="
  1147.23,1350.11 1147.23,140.752 
  "/>
<polyline clip-path="url(#clip152)" style="stroke:#000000; stroke-linecap:butt; stroke-linejoin:round; stroke-width:2; stroke-opacity:0.1; fill:none" points="
  1391.15,1350.11 1391.15,140.752 
  "/>
<polyline clip-path="url(#clip152)" style="stroke:#000000; stroke-linecap:butt; stroke-linejoin:round; stroke-width:2; stroke-opacity:0.1; fill:none" points="
  1635.08,1350.11 1635.08,140.752 
  "/>
<polyline clip-path="url(#clip152)" style="stroke:#000000; stroke-linecap:butt; stroke-linejoin:round; stroke-width:2; stroke-opacity:0.1; fill:none" points="
  1879.01,1350.11 1879.01,140.752 
  "/>
<polyline clip-path="url(#clip152)" style="stroke:#000000; stroke-linecap:butt; stroke-linejoin:round; stroke-width:2; stroke-opacity:0.1; fill:none" points="
  2122.94,1350.11 2122.94,140.752 
  "/>
<polyline clip-path="url(#clip150)" style="stroke:#000000; stroke-linecap:butt; stroke-linejoin:round; stroke-width:4; stroke-opacity:1; fill:none" points="
  429.554,1350.11 2352.76,1350.11 
  "/>
<polyline clip-path="url(#clip150)" style="stroke:#000000; stroke-linecap:butt; stroke-linejoin:round; stroke-width:4; stroke-opacity:1; fill:none" points="
  659.372,1350.11 659.372,1331.21 
  "/>
<polyline clip-path="url(#clip150)" style="stroke:#000000; stroke-linecap:butt; stroke-linejoin:round; stroke-width:4; stroke-opacity:1; fill:none" points="
  903.299,1350.11 903.299,1331.21 
  "/>
<polyline clip-path="url(#clip150)" style="stroke:#000000; stroke-linecap:butt; stroke-linejoin:round; stroke-width:4; stroke-opacity:1; fill:none" points="
  1147.23,1350.11 1147.23,1331.21 
  "/>
<polyline clip-path="url(#clip150)" style="stroke:#000000; stroke-linecap:butt; stroke-linejoin:round; stroke-width:4; stroke-opacity:1; fill:none" points="
  1391.15,1350.11 1391.15,1331.21 
  "/>
<polyline clip-path="url(#clip150)" style="stroke:#000000; stroke-linecap:butt; stroke-linejoin:round; stroke-width:4; stroke-opacity:1; fill:none" points="
  1635.08,1350.11 1635.08,1331.21 
  "/>
<polyline clip-path="url(#clip150)" style="stroke:#000000; stroke-linecap:butt; stroke-linejoin:round; stroke-width:4; stroke-opacity:1; fill:none" points="
  1879.01,1350.11 1879.01,1331.21 
  "/>
<polyline clip-path="url(#clip150)" style="stroke:#000000; stroke-linecap:butt; stroke-linejoin:round; stroke-width:4; stroke-opacity:1; fill:none" points="
  2122.94,1350.11 2122.94,1331.21 
  "/>
<g clip-path="url(#clip150)">
<text style="fill:#000000; fill-opacity:1; font-family:Courier,Courier New,Lucida Sans Typewriter,Lucida Typewriter,monospace; font-size:134px; text-anchor:middle;" transform="rotate(0, 659.372, 1466.35)" x="659.372" y="1466.35">−3</text>
</g>
<g clip-path="url(#clip150)">
<text style="fill:#000000; fill-opacity:1; font-family:Courier,Courier New,Lucida Sans Typewriter,Lucida Typewriter,monospace; font-size:134px; text-anchor:middle;" transform="rotate(0, 903.299, 1466.35)" x="903.299" y="1466.35">−2</text>
</g>
<g clip-path="url(#clip150)">
<text style="fill:#000000; fill-opacity:1; font-family:Courier,Courier New,Lucida Sans Typewriter,Lucida Typewriter,monospace; font-size:134px; text-anchor:middle;" transform="rotate(0, 1147.23, 1466.35)" x="1147.23" y="1466.35">−1</text>
</g>
<g clip-path="url(#clip150)">
<text style="fill:#000000; fill-opacity:1; font-family:Courier,Courier New,Lucida Sans Typewriter,Lucida Typewriter,monospace; font-size:134px; text-anchor:middle;" transform="rotate(0, 1391.15, 1466.35)" x="1391.15" y="1466.35">0</text>
</g>
<g clip-path="url(#clip150)">
<text style="fill:#000000; fill-opacity:1; font-family:Courier,Courier New,Lucida Sans Typewriter,Lucida Typewriter,monospace; font-size:134px; text-anchor:middle;" transform="rotate(0, 1635.08, 1466.35)" x="1635.08" y="1466.35">1</text>
</g>
<g clip-path="url(#clip150)">
<text style="fill:#000000; fill-opacity:1; font-family:Courier,Courier New,Lucida Sans Typewriter,Lucida Typewriter,monospace; font-size:134px; text-anchor:middle;" transform="rotate(0, 1879.01, 1466.35)" x="1879.01" y="1466.35">2</text>
</g>
<g clip-path="url(#clip150)">
<text style="fill:#000000; fill-opacity:1; font-family:Courier,Courier New,Lucida Sans Typewriter,Lucida Typewriter,monospace; font-size:134px; text-anchor:middle;" transform="rotate(0, 2122.94, 1466.35)" x="2122.94" y="1466.35">3</text>
</g>
<path clip-path="url(#clip150)" d="M1418.34 1537.17 L1397.25 1565.56 L1419.44 1595.51 L1408.13 1595.51 L1391.15 1572.59 L1374.18 1595.51 L1362.87 1595.51 L1385.53 1564.99 L1364.8 1537.17 L1376.1 1537.17 L1391.57 1557.96 L1407.04 1537.17 L1418.34 1537.17 Z" fill="#000000" fill-rule="evenodd" fill-opacity="1" /><polyline clip-path="url(#clip152)" style="stroke:#000000; stroke-linecap:butt; stroke-linejoin:round; stroke-width:2; stroke-opacity:0.1; fill:none" points="
  429.554,1315.88 2352.76,1315.88 
  "/>
<polyline clip-path="url(#clip152)" style="stroke:#000000; stroke-linecap:butt; stroke-linejoin:round; stroke-width:2; stroke-opacity:0.1; fill:none" points="
  429.554,1029.86 2352.76,1029.86 
  "/>
<polyline clip-path="url(#clip152)" style="stroke:#000000; stroke-linecap:butt; stroke-linejoin:round; stroke-width:2; stroke-opacity:0.1; fill:none" points="
  429.554,743.843 2352.76,743.843 
  "/>
<polyline clip-path="url(#clip152)" style="stroke:#000000; stroke-linecap:butt; stroke-linejoin:round; stroke-width:2; stroke-opacity:0.1; fill:none" points="
  429.554,457.824 2352.76,457.824 
  "/>
<polyline clip-path="url(#clip152)" style="stroke:#000000; stroke-linecap:butt; stroke-linejoin:round; stroke-width:2; stroke-opacity:0.1; fill:none" points="
  429.554,171.805 2352.76,171.805 
  "/>
<polyline clip-path="url(#clip150)" style="stroke:#000000; stroke-linecap:butt; stroke-linejoin:round; stroke-width:4; stroke-opacity:1; fill:none" points="
  429.554,1350.11 429.554,140.752 
  "/>
<polyline clip-path="url(#clip150)" style="stroke:#000000; stroke-linecap:butt; stroke-linejoin:round; stroke-width:4; stroke-opacity:1; fill:none" points="
  429.554,1315.88 448.451,1315.88 
  "/>
<polyline clip-path="url(#clip150)" style="stroke:#000000; stroke-linecap:butt; stroke-linejoin:round; stroke-width:4; stroke-opacity:1; fill:none" points="
  429.554,1029.86 448.451,1029.86 
  "/>
<polyline clip-path="url(#clip150)" style="stroke:#000000; stroke-linecap:butt; stroke-linejoin:round; stroke-width:4; stroke-opacity:1; fill:none" points="
  429.554,743.843 448.451,743.843 
  "/>
<polyline clip-path="url(#clip150)" style="stroke:#000000; stroke-linecap:butt; stroke-linejoin:round; stroke-width:4; stroke-opacity:1; fill:none" points="
  429.554,457.824 448.451,457.824 
  "/>
<polyline clip-path="url(#clip150)" style="stroke:#000000; stroke-linecap:butt; stroke-linejoin:round; stroke-width:4; stroke-opacity:1; fill:none" points="
  429.554,171.805 448.451,171.805 
  "/>
<g clip-path="url(#clip150)">
<text style="fill:#000000; fill-opacity:1; font-family:Courier,Courier New,Lucida Sans Typewriter,Lucida Typewriter,monospace; font-size:134px; text-anchor:middle;" transform="rotate(0, 269.027, 1354.88)" x="269.027" y="1354.88">0.0</text>
</g>
<g clip-path="url(#clip150)">
<text style="fill:#000000; fill-opacity:1; font-family:Courier,Courier New,Lucida Sans Typewriter,Lucida Typewriter,monospace; font-size:134px; text-anchor:middle;" transform="rotate(0, 269.027, 1068.86)" x="269.027" y="1068.86">0.1</text>
</g>
<g clip-path="url(#clip150)">
<text style="fill:#000000; fill-opacity:1; font-family:Courier,Courier New,Lucida Sans Typewriter,Lucida Typewriter,monospace; font-size:134px; text-anchor:middle;" transform="rotate(0, 269.027, 782.843)" x="269.027" y="782.843">0.2</text>
</g>
<g clip-path="url(#clip150)">
<text style="fill:#000000; fill-opacity:1; font-family:Courier,Courier New,Lucida Sans Typewriter,Lucida Typewriter,monospace; font-size:134px; text-anchor:middle;" transform="rotate(0, 269.027, 496.824)" x="269.027" y="496.824">0.3</text>
</g>
<g clip-path="url(#clip150)">
<text style="fill:#000000; fill-opacity:1; font-family:Courier,Courier New,Lucida Sans Typewriter,Lucida Typewriter,monospace; font-size:134px; text-anchor:middle;" transform="rotate(0, 269.027, 210.805)" x="269.027" y="210.805">0.4</text>
</g>
<path clip-path="url(#clip150)" d="M76.4222 833.399 L107.36 833.399 L107.36 843.034 L26.8391 843.034 L26.8391 833.399 L35.6933 833.399 Q30.485 830.378 27.985 825.795 Q25.4329 821.159 25.4329 814.753 Q25.4329 804.128 33.8703 797.514 Q42.3078 790.847 56.0577 790.847 Q69.8077 790.847 78.2451 797.514 Q86.6826 804.128 86.6826 814.753 Q86.6826 821.159 84.1826 825.795 Q81.6305 830.378 76.4222 833.399 M56.0577 800.795 Q45.4849 800.795 39.4953 805.17 Q33.4537 809.493 33.4537 817.097 Q33.4537 824.701 39.4953 829.076 Q45.4849 833.399 56.0577 833.399 Q66.6306 833.399 72.6722 829.076 Q78.6618 824.701 78.6618 817.097 Q78.6618 809.493 72.6722 805.17 Q66.6306 800.795 56.0577 800.795 Z" fill="#000000" fill-rule="evenodd" fill-opacity="1" /><path clip-path="url(#clip150)" d="M4.23509 751.941 Q16.2142 758.92 27.9329 762.305 Q39.6516 765.691 51.6828 765.691 Q63.7139 765.691 75.5368 762.305 Q87.3076 758.868 99.2346 751.941 L99.2346 760.274 Q86.9951 768.087 75.1722 771.993 Q63.3494 775.847 51.6828 775.847 Q40.0682 775.847 28.2975 771.993 Q16.5267 768.139 4.23509 760.274 L4.23509 751.941 Z" fill="#000000" fill-rule="evenodd" fill-opacity="1" /><path clip-path="url(#clip150)" d="M26.8391 684.858 L55.2244 705.952 L85.1722 683.764 L85.1722 695.066 L62.2556 712.045 L85.1722 729.024 L85.1722 740.326 L54.6515 717.67 L26.8391 738.399 L26.8391 727.097 L47.6203 711.629 L26.8391 696.16 L26.8391 684.858 Z" fill="#000000" fill-rule="evenodd" fill-opacity="1" /><path clip-path="url(#clip150)" d="M4.23509 671.733 L4.23509 663.4 Q16.5267 655.587 28.2975 651.733 Q40.0682 647.827 51.6828 647.827 Q63.3494 647.827 75.1722 651.733 Q86.9951 655.587 99.2346 663.4 L99.2346 671.733 Q87.3076 664.806 75.5368 661.421 Q63.7139 657.983 51.6828 657.983 Q39.6516 657.983 27.9329 661.421 Q16.2142 664.806 4.23509 671.733 Z" fill="#000000" fill-rule="evenodd" fill-opacity="1" /><path clip-path="url(#clip150)" d="M642.513 93.0897 L642.513 70.3008 Q642.513 69.0224 642.569 68.5778 Q642.624 68.1331 642.958 67.7996 Q643.291 67.4661 643.958 67.4661 Q645.237 67.4661 645.348 68.6333 Q645.681 79.9166 652.407 86.1418 Q659.021 92.3115 670.36 92.3115 Q677.197 92.3115 681.421 87.4202 Q685.645 82.4734 685.645 76.0258 Q685.645 69.8562 682.088 65.5207 Q680.587 63.5753 678.697 62.3525 Q676.863 61.0741 675.696 60.685 Q674.584 60.296 672.417 59.7401 Q658.299 56.3496 657.409 55.9605 Q650.684 53.6816 646.571 47.9566 Q642.513 42.176 642.513 35.1171 Q642.513 26.0015 648.905 19.5539 Q655.353 13.0508 664.691 13.0508 Q669.36 13.0508 673.25 14.5515 Q677.197 15.9967 678.809 17.3306 Q680.421 18.6646 682.922 21.0547 L686.868 14.5515 Q687.757 13.0508 688.591 13.0508 Q689.48 13.0508 689.647 13.6066 Q689.87 14.1069 689.87 15.7743 L689.87 38.6743 Q689.87 39.9527 689.814 40.3974 Q689.758 40.8421 689.369 41.12 Q689.036 41.3979 688.369 41.3979 Q687.257 41.3979 686.979 40.0639 Q683.811 16.2746 664.802 16.2746 Q658.299 16.2746 654.019 20.6656 Q649.795 25.001 649.795 31.1707 Q649.795 36.1731 652.907 40.2862 Q656.02 44.3438 661.3 45.6222 L675.863 49.1239 Q683.144 50.8469 688.035 57.2945 Q692.927 63.7421 692.927 72.135 Q692.927 81.8064 686.59 88.8098 Q680.309 95.8132 670.471 95.8132 Q663.412 95.8132 657.965 93.4787 Q652.518 91.1443 649.572 87.8649 Q647.293 91.6445 645.793 93.7567 L645.459 94.3125 Q644.57 95.8132 643.736 95.8132 Q642.847 95.8132 642.68 95.2574 Q642.513 94.7016 642.513 93.0897 Z" fill="#000000" fill-rule="evenodd" fill-opacity="1" /><path clip-path="url(#clip150)" d="M701.431 47.7899 L701.431 45.2887 Q706.656 45.0663 710.102 41.3979 Q713.603 37.6739 714.771 33.1161 Q715.993 28.5583 716.105 23.278 L718.939 23.278 L718.939 44.2326 L735.225 44.2326 L735.225 47.7899 L718.939 47.7899 L718.939 79.4164 Q718.939 91.7001 726.61 91.7001 Q729.889 91.7001 732.057 88.3652 Q734.224 84.9746 734.224 78.9717 L734.224 72.6909 L737.059 72.6909 L737.059 79.194 Q737.059 85.3637 734.224 89.977 Q731.39 94.5904 725.776 94.5904 Q723.719 94.5904 721.663 94.0346 Q719.662 93.5343 716.994 92.2003 Q714.381 90.8108 712.714 87.4758 Q711.102 84.0853 711.102 79.194 L711.102 47.7899 L701.431 47.7899 Z" fill="#000000" fill-rule="evenodd" fill-opacity="1" /><path clip-path="url(#clip150)" d="M748.176 82.4734 Q748.176 72.802 759.57 67.6884 Q766.407 64.4091 780.525 63.5753 L780.525 59.4066 Q780.525 52.3477 776.801 48.6236 Q773.132 44.844 768.463 44.844 Q760.126 44.844 756.124 50.0688 Q759.515 50.1799 760.737 51.903 Q761.96 53.5705 761.96 55.2935 Q761.96 57.5724 760.515 59.0731 Q759.125 60.5183 756.735 60.5183 Q754.457 60.5183 752.956 59.1287 Q751.455 57.6836 751.455 55.1824 Q751.455 49.6241 756.457 45.9557 Q761.515 42.2872 768.686 42.2872 Q778.024 42.2872 784.249 48.568 Q786.194 50.5134 787.139 53.0146 Q788.14 55.5159 788.251 57.1833 Q788.362 58.7952 788.362 62.019 L788.362 84.7523 Q788.362 85.4193 788.584 86.5309 Q788.807 87.6426 789.807 89.0877 Q790.863 90.4773 792.586 90.4773 Q796.699 90.4773 796.644 83.196 L796.644 76.804 L799.534 76.804 L799.534 83.196 Q799.534 89.2545 796.31 91.6445 Q793.142 93.979 790.196 93.979 Q786.416 93.979 784.026 91.1999 Q781.636 88.4207 781.303 84.6411 Q779.58 88.9766 775.633 91.8113 Q771.743 94.5904 766.407 94.5904 Q762.294 94.5904 758.403 93.5343 Q754.568 92.5338 751.344 89.6991 Q748.176 86.8088 748.176 82.4734 M756.958 82.3622 Q756.958 86.5865 759.959 89.3101 Q762.961 92.0336 767.185 92.0336 Q771.965 92.0336 776.245 88.3652 Q780.525 84.6411 780.525 77.3598 L780.525 65.9654 Q767.907 66.41 762.405 71.4681 Q756.958 76.4705 756.958 82.3622 Z" fill="#000000" fill-rule="evenodd" fill-opacity="1" /><path clip-path="url(#clip150)" d="M803.981 93.312 L803.981 89.8103 Q810.039 89.8103 811.429 89.0877 Q812.818 88.3096 812.818 84.6411 L812.818 54.1263 Q812.818 49.902 811.317 48.846 Q809.872 47.7899 803.981 47.7899 L803.981 44.2326 L819.988 43.0098 L819.988 54.96 Q825.324 43.0098 836.83 43.0098 Q845.39 43.0098 848.78 47.2341 Q851.281 50.0688 851.782 53.237 Q852.337 56.4052 852.337 64.6314 L852.337 86.3642 Q852.449 88.7542 854.283 89.3101 Q856.117 89.8103 861.231 89.8103 L861.231 93.312 Q849.614 92.9785 848.447 92.9785 Q847.557 92.9785 835.607 93.312 L835.607 89.8103 Q841.666 89.8103 843.055 89.0877 Q844.5 88.3096 844.5 84.6411 L844.5 58.1282 Q844.5 52.3477 842.722 48.9571 Q840.943 45.511 836.052 45.511 Q830.16 45.511 825.435 50.4578 Q820.711 55.4047 820.711 63.7421 L820.711 84.6411 Q820.711 88.3096 822.1 89.0877 Q823.546 89.8103 829.549 89.8103 L829.549 93.312 Q817.932 92.9785 816.82 92.9785 Q815.931 92.9785 803.981 93.312 Z" fill="#000000" fill-rule="evenodd" fill-opacity="1" /><path clip-path="url(#clip150)" d="M867.345 68.8557 Q867.345 58.0171 874.904 50.5134 Q882.463 43.0098 892.69 43.0098 Q901.361 43.0098 907.031 50.0688 L907.031 25.4457 Q907.031 21.2214 905.53 20.1654 Q904.085 19.1093 898.193 19.1093 L898.193 15.552 L914.59 14.3292 L914.59 83.4183 Q914.59 87.6426 916.035 88.7542 Q917.536 89.8103 923.427 89.8103 L923.427 93.312 L906.697 94.5904 L906.697 87.0312 Q900.805 94.5348 891.468 94.5904 Q881.685 94.5904 874.515 87.0868 Q867.345 79.5831 867.345 68.8557 M876.794 68.9668 Q876.794 79.5275 880.073 84.7523 Q884.631 92.0336 892.023 92.0336 Q900.472 92.0336 905.474 84.0853 Q906.753 82.1399 906.697 79.861 L906.697 56.5163 Q906.697 54.2375 905.474 52.3477 Q900.805 45.511 893.191 45.511 Q885.242 45.511 880.295 52.7923 Q876.794 58.2394 876.794 68.9668 Z" fill="#000000" fill-rule="evenodd" fill-opacity="1" /><path clip-path="url(#clip150)" d="M931.376 82.4734 Q931.376 72.802 942.77 67.6884 Q949.607 64.4091 963.725 63.5753 L963.725 59.4066 Q963.725 52.3477 960.001 48.6236 Q956.332 44.844 951.663 44.844 Q943.326 44.844 939.324 50.0688 Q942.715 50.1799 943.937 51.903 Q945.16 53.5705 945.16 55.2935 Q945.16 57.5724 943.715 59.0731 Q942.326 60.5183 939.936 60.5183 Q937.657 60.5183 936.156 59.1287 Q934.655 57.6836 934.655 55.1824 Q934.655 49.6241 939.658 45.9557 Q944.716 42.2872 951.886 42.2872 Q961.224 42.2872 967.449 48.568 Q969.394 50.5134 970.339 53.0146 Q971.34 55.5159 971.451 57.1833 Q971.562 58.7952 971.562 62.019 L971.562 84.7523 Q971.562 85.4193 971.784 86.5309 Q972.007 87.6426 973.007 89.0877 Q974.063 90.4773 975.786 90.4773 Q979.899 90.4773 979.844 83.196 L979.844 76.804 L982.734 76.804 L982.734 83.196 Q982.734 89.2545 979.51 91.6445 Q976.342 93.979 973.396 93.979 Q969.617 93.979 967.227 91.1999 Q964.836 88.4207 964.503 84.6411 Q962.78 88.9766 958.834 91.8113 Q954.943 94.5904 949.607 94.5904 Q945.494 94.5904 941.603 93.5343 Q937.768 92.5338 934.544 89.6991 Q931.376 86.8088 931.376 82.4734 M940.158 82.3622 Q940.158 86.5865 943.159 89.3101 Q946.161 92.0336 950.385 92.0336 Q955.165 92.0336 959.445 88.3652 Q963.725 84.6411 963.725 77.3598 L963.725 65.9654 Q951.108 66.41 945.605 71.4681 Q940.158 76.4705 940.158 82.3622 Z" fill="#000000" fill-rule="evenodd" fill-opacity="1" /><path clip-path="url(#clip150)" d="M986.68 93.312 L986.68 89.8103 Q992.739 89.8103 994.129 89.0877 Q995.574 88.3096 995.574 84.6411 L995.574 54.1263 Q995.574 49.902 994.073 48.846 Q992.628 47.7899 986.68 47.7899 L986.68 44.2326 L1002.52 43.0098 L1002.52 55.5159 Q1004.13 50.6246 1007.52 46.845 Q1010.97 43.0098 1016.53 43.0098 Q1020.2 43.0098 1022.53 45.0663 Q1024.92 47.1229 1024.92 49.9576 Q1024.92 52.4588 1023.36 53.7372 Q1021.86 54.96 1020.03 54.96 Q1017.97 54.96 1016.53 53.6816 Q1015.14 52.3477 1015.14 50.0688 Q1015.14 48.6792 1015.75 47.6231 Q1016.42 46.5115 1016.92 46.1224 Q1017.42 45.7333 1017.75 45.6222 Q1017.53 45.511 1016.53 45.511 Q1010.25 45.511 1006.63 51.7918 Q1003.08 58.0171 1003.08 66.9103 L1003.08 84.4188 Q1003.08 87.6982 1004.41 88.7542 Q1005.8 89.8103 1011.75 89.8103 L1014.14 89.8103 L1014.14 93.312 Q1009.58 92.9785 999.687 92.9785 Q998.297 92.9785 996.129 93.0341 Q993.962 93.0897 991.127 93.2008 Q988.292 93.312 986.68 93.312 Z" fill="#000000" fill-rule="evenodd" fill-opacity="1" /><path clip-path="url(#clip150)" d="M1031.87 68.8557 Q1031.87 58.0171 1039.43 50.5134 Q1046.99 43.0098 1057.21 43.0098 Q1065.89 43.0098 1071.56 50.0688 L1071.56 25.4457 Q1071.56 21.2214 1070.05 20.1654 Q1068.61 19.1093 1062.72 19.1093 L1062.72 15.552 L1079.11 14.3292 L1079.11 83.4183 Q1079.11 87.6426 1080.56 88.7542 Q1082.06 89.8103 1087.95 89.8103 L1087.95 93.312 L1071.22 94.5904 L1071.22 87.0312 Q1065.33 94.5348 1055.99 94.5904 Q1046.21 94.5904 1039.04 87.0868 Q1031.87 79.5831 1031.87 68.8557 M1041.32 68.9668 Q1041.32 79.5275 1044.6 84.7523 Q1049.16 92.0336 1056.55 92.0336 Q1065 92.0336 1070 84.0853 Q1071.28 82.1399 1071.22 79.861 L1071.22 56.5163 Q1071.22 54.2375 1070 52.3477 Q1065.33 45.511 1057.71 45.511 Q1049.77 45.511 1044.82 52.7923 Q1041.32 58.2394 1041.32 68.9668 Z" fill="#000000" fill-rule="evenodd" fill-opacity="1" /><path clip-path="url(#clip150)" d="M1132.75 93.312 L1132.75 89.8103 Q1136.86 89.8103 1139.48 89.0321 Q1142.09 88.1984 1143.03 86.6977 Q1143.98 85.1414 1144.2 84.1409 Q1144.48 83.0848 1144.48 81.3617 L1144.48 21.944 Q1144.48 20.3321 1144.03 19.943 Q1143.65 19.5539 1141.7 19.3316 Q1138.31 19.1093 1136.03 19.1093 L1132.75 19.1093 L1132.75 15.552 L1152.09 15.552 Q1153.71 15.552 1154.15 15.7743 Q1154.6 15.9967 1155.37 17.0527 L1195.56 76.137 L1195.56 27.5023 Q1195.56 25.7792 1195.34 24.7787 Q1195.12 23.7782 1194.11 22.2219 Q1193.17 20.6656 1190.56 19.8874 Q1187.94 19.1093 1183.83 19.1093 L1183.83 15.552 Q1195.78 15.8855 1197.12 15.8855 Q1198.51 15.8855 1210.46 15.552 L1210.46 19.1093 Q1206.34 19.1093 1203.73 19.8874 Q1201.12 20.6656 1200.17 22.2219 Q1199.23 23.7782 1198.95 24.8343 Q1198.73 25.8348 1198.73 27.5023 L1198.73 90.3661 Q1198.73 92.2003 1198.51 92.7562 Q1198.28 93.312 1197.17 93.312 Q1196.39 93.312 1195.23 91.8113 L1148.76 23.5559 Q1148.31 22.8889 1147.65 22.1663 L1147.65 81.3617 Q1147.65 83.0848 1147.87 84.1409 Q1148.09 85.1414 1149.04 86.6977 Q1150.04 88.1984 1152.65 89.0321 Q1155.26 89.8103 1159.38 89.8103 L1159.38 93.312 Q1147.43 92.9785 1146.04 92.9785 Q1144.7 92.9785 1132.75 93.312 Z" fill="#000000" fill-rule="evenodd" fill-opacity="1" /><path clip-path="url(#clip150)" d="M1225.02 87.1979 Q1217.51 79.7499 1217.51 68.9668 Q1217.51 58.1282 1224.85 50.2355 Q1232.24 42.2872 1242.8 42.2872 Q1253.14 42.2872 1260.54 50.1799 Q1267.98 58.0171 1267.98 68.9668 Q1267.98 79.6943 1260.48 87.1423 Q1253.03 94.5904 1242.69 94.5904 Q1232.58 94.5904 1225.02 87.1979 M1226.96 68.0219 Q1226.96 79.0829 1229.85 84.0853 Q1234.3 91.7001 1242.8 91.7001 Q1247.03 91.7001 1250.53 89.4212 Q1254.09 87.1423 1256.03 83.3071 Q1258.53 78.3047 1258.53 68.0219 Q1258.53 57.0722 1255.53 52.2365 Q1251.09 44.844 1242.69 44.844 Q1239.03 44.844 1235.41 46.7894 Q1231.86 48.6792 1229.69 52.4588 Q1226.96 57.4612 1226.96 68.0219 Z" fill="#000000" fill-rule="evenodd" fill-opacity="1" /><path clip-path="url(#clip150)" d="M1274.43 93.312 L1274.43 89.8103 Q1280.49 89.8103 1281.88 89.0877 Q1283.32 88.3096 1283.32 84.6411 L1283.32 54.1263 Q1283.32 49.902 1281.82 48.846 Q1280.38 47.7899 1274.43 47.7899 L1274.43 44.2326 L1290.27 43.0098 L1290.27 55.5159 Q1291.88 50.6246 1295.27 46.845 Q1298.72 43.0098 1304.28 43.0098 Q1307.95 43.0098 1310.28 45.0663 Q1312.67 47.1229 1312.67 49.9576 Q1312.67 52.4588 1311.12 53.7372 Q1309.62 54.96 1307.78 54.96 Q1305.72 54.96 1304.28 53.6816 Q1302.89 52.3477 1302.89 50.0688 Q1302.89 48.6792 1303.5 47.6231 Q1304.17 46.5115 1304.67 46.1224 Q1305.17 45.7333 1305.5 45.6222 Q1305.28 45.511 1304.28 45.511 Q1298 45.511 1294.39 51.7918 Q1290.83 58.0171 1290.83 66.9103 L1290.83 84.4188 Q1290.83 87.6982 1292.16 88.7542 Q1293.55 89.8103 1299.5 89.8103 L1301.89 89.8103 L1301.89 93.312 Q1297.33 92.9785 1287.44 92.9785 Q1286.05 92.9785 1283.88 93.0341 Q1281.71 93.0897 1278.88 93.2008 Q1276.04 93.312 1274.43 93.312 Z" fill="#000000" fill-rule="evenodd" fill-opacity="1" /><path clip-path="url(#clip150)" d="M1319.4 93.312 L1319.4 89.8103 Q1325.46 89.8103 1326.85 89.0877 Q1328.24 88.3096 1328.24 84.6411 L1328.24 54.1263 Q1328.24 49.902 1326.73 48.846 Q1325.29 47.7899 1319.4 47.7899 L1319.4 44.2326 L1335.41 43.0098 L1335.41 54.96 Q1340.74 43.0098 1352.25 43.0098 Q1365.59 43.0098 1367.42 54.1263 Q1369.37 49.7909 1373.42 46.4003 Q1377.54 43.0098 1383.93 43.0098 Q1392.49 43.0098 1395.88 47.2341 Q1398.38 50.0688 1398.88 53.237 Q1399.38 56.4052 1399.38 64.6314 L1399.38 86.3642 Q1399.49 88.7542 1401.33 89.3101 Q1403.16 89.8103 1408.27 89.8103 L1408.27 93.312 Q1396.66 92.9785 1395.55 92.9785 Q1394.66 92.9785 1382.65 93.312 L1382.65 89.8103 Q1388.71 89.8103 1390.1 89.0877 Q1391.54 88.3096 1391.54 84.6411 L1391.54 58.1282 Q1391.54 52.3477 1389.77 48.9571 Q1387.99 45.511 1383.1 45.511 Q1377.2 45.511 1372.48 50.4578 Q1367.75 55.4047 1367.75 63.7421 L1367.75 84.6411 Q1367.75 88.3096 1369.14 89.0877 Q1370.59 89.8103 1376.65 89.8103 L1376.65 93.312 Q1365.03 92.9785 1363.86 92.9785 Q1362.97 92.9785 1351.02 93.312 L1351.02 89.8103 Q1357.08 89.8103 1358.47 89.0877 Q1359.92 88.3096 1359.92 84.6411 L1359.92 58.1282 Q1359.92 52.3477 1358.14 48.9571 Q1356.36 45.511 1351.47 45.511 Q1345.58 45.511 1340.85 50.4578 Q1336.13 55.4047 1336.13 63.7421 L1336.13 84.6411 Q1336.13 88.3096 1337.52 89.0877 Q1338.96 89.8103 1344.97 89.8103 L1344.97 93.312 Q1333.35 92.9785 1332.24 92.9785 Q1331.35 92.9785 1319.4 93.312 Z" fill="#000000" fill-rule="evenodd" fill-opacity="1" /><path clip-path="url(#clip150)" d="M1415.28 82.4734 Q1415.28 72.802 1426.67 67.6884 Q1433.51 64.4091 1447.63 63.5753 L1447.63 59.4066 Q1447.63 52.3477 1443.9 48.6236 Q1440.23 44.844 1435.57 44.844 Q1427.23 44.844 1423.23 50.0688 Q1426.62 50.1799 1427.84 51.903 Q1429.06 53.5705 1429.06 55.2935 Q1429.06 57.5724 1427.62 59.0731 Q1426.23 60.5183 1423.84 60.5183 Q1421.56 60.5183 1420.06 59.1287 Q1418.56 57.6836 1418.56 55.1824 Q1418.56 49.6241 1423.56 45.9557 Q1428.62 42.2872 1435.79 42.2872 Q1445.13 42.2872 1451.35 48.568 Q1453.3 50.5134 1454.24 53.0146 Q1455.24 55.5159 1455.35 57.1833 Q1455.46 58.7952 1455.46 62.019 L1455.46 84.7523 Q1455.46 85.4193 1455.69 86.5309 Q1455.91 87.6426 1456.91 89.0877 Q1457.96 90.4773 1459.69 90.4773 Q1463.8 90.4773 1463.75 83.196 L1463.75 76.804 L1466.64 76.804 L1466.64 83.196 Q1466.64 89.2545 1463.41 91.6445 Q1460.24 93.979 1457.3 93.979 Q1453.52 93.979 1451.13 91.1999 Q1448.74 88.4207 1448.4 84.6411 Q1446.68 88.9766 1442.74 91.8113 Q1438.84 94.5904 1433.51 94.5904 Q1429.4 94.5904 1425.5 93.5343 Q1421.67 92.5338 1418.45 89.6991 Q1415.28 86.8088 1415.28 82.4734 M1424.06 82.3622 Q1424.06 86.5865 1427.06 89.3101 Q1430.06 92.0336 1434.29 92.0336 Q1439.07 92.0336 1443.35 88.3652 Q1447.63 84.6411 1447.63 77.3598 L1447.63 65.9654 Q1435.01 66.41 1429.51 71.4681 Q1424.06 76.4705 1424.06 82.3622 Z" fill="#000000" fill-rule="evenodd" fill-opacity="1" /><path clip-path="url(#clip150)" d="M1471.19 93.312 L1471.19 89.8103 Q1477.25 89.8103 1478.64 89.0877 Q1480.03 88.3096 1480.03 84.6411 L1480.03 25.4457 Q1480.03 21.2214 1478.53 20.1654 Q1477.09 19.1093 1471.19 19.1093 L1471.19 15.552 L1487.53 14.3292 L1487.53 84.6411 Q1487.53 88.3096 1488.98 89.0877 Q1490.43 89.8103 1496.43 89.8103 L1496.43 93.312 Q1495.04 93.312 1492.15 93.2008 Q1489.26 93.0897 1487.15 93.0341 Q1485.03 92.9785 1483.81 92.9785 Q1482.48 92.9785 1471.19 93.312 Z" fill="#000000" fill-rule="evenodd" fill-opacity="1" /><path clip-path="url(#clip150)" d="M1540.78 93.312 L1540.78 89.8103 L1543.51 89.8103 Q1549.68 89.8103 1551.07 88.8098 Q1552.51 87.7537 1552.51 84.4188 L1552.51 24.4452 Q1552.51 21.1658 1551.07 20.1654 Q1549.62 19.1093 1543.51 19.1093 L1540.78 19.1093 L1540.78 15.552 L1582.41 15.552 Q1596.98 15.552 1607.09 27.1688 Q1617.26 38.7855 1617.26 55.0712 Q1617.26 71.0234 1607.04 82.1955 Q1596.87 93.312 1582.41 93.312 L1540.78 93.312 M1562.29 85.2525 Q1562.29 88.1984 1563.13 89.0321 Q1563.96 89.8103 1567.85 89.8103 L1579.36 89.8103 Q1586.86 89.8103 1591.92 86.7533 Q1596.98 83.6406 1599.59 80.0834 Q1605.87 71.5236 1605.87 55.0712 Q1605.87 37.785 1599.98 29.67 Q1592.36 19.1093 1579.25 19.1093 L1567.85 19.1093 Q1563.96 19.1093 1563.13 19.8874 Q1562.29 20.6656 1562.29 23.6671 L1562.29 85.2525 Z" fill="#000000" fill-rule="evenodd" fill-opacity="1" /><path clip-path="url(#clip150)" d="M1627.38 93.312 L1627.38 89.8103 Q1633.44 89.8103 1634.83 89.0877 Q1636.22 88.3096 1636.22 84.6411 L1636.22 54.0151 Q1636.22 49.7909 1634.77 48.7904 Q1633.38 47.7899 1627.83 47.7899 L1627.83 44.2326 L1643.72 43.0098 L1643.72 84.7523 Q1643.72 88.1428 1644.94 88.9766 Q1646.17 89.8103 1651.73 89.8103 L1651.73 93.312 Q1640.11 92.9785 1639.89 92.9785 Q1638.33 92.9785 1627.38 93.312 M1632.16 23.1668 Q1632.16 20.8879 1633.88 19.0537 Q1635.66 17.1639 1638.16 17.1639 Q1640.66 17.1639 1642.44 18.887 Q1644.22 20.5544 1644.22 23.2224 Q1644.22 25.8348 1642.44 27.5578 Q1640.66 29.2253 1638.16 29.2253 Q1635.55 29.2253 1633.83 27.3911 Q1632.16 25.5569 1632.16 23.1668 Z" fill="#000000" fill-rule="evenodd" fill-opacity="1" /><path clip-path="url(#clip150)" d="M1658.9 91.8113 L1658.9 76.804 Q1658.9 75.5256 1658.95 75.0809 Q1659.01 74.6363 1659.34 74.3028 Q1659.67 73.9693 1660.34 73.9693 Q1661.12 73.9693 1661.4 74.3028 Q1661.73 74.6363 1661.95 75.9147 Q1663.68 83.7518 1667.34 87.9205 Q1671.07 92.0336 1677.79 92.0336 Q1684.19 92.0336 1687.41 89.1989 Q1690.63 86.3642 1690.63 81.6952 Q1690.63 73.3579 1678.79 71.2457 Q1671.96 69.8562 1669.12 68.9668 Q1666.29 68.0219 1663.79 65.9654 Q1658.9 61.9634 1658.9 56.294 Q1658.9 50.6246 1663.18 46.4559 Q1667.51 42.2872 1677.07 42.2872 Q1683.46 42.2872 1687.8 45.511 Q1689.08 44.5105 1689.74 43.6768 Q1691.24 42.2872 1692.02 42.2872 Q1692.91 42.2872 1693.08 42.8986 Q1693.25 43.4544 1693.25 45.0663 L1693.25 56.5163 Q1693.25 57.7947 1693.19 58.2394 Q1693.13 58.6841 1692.8 59.0176 Q1692.47 59.2955 1691.75 59.2955 Q1690.47 59.2955 1690.41 58.2394 Q1689.52 44.4549 1677.07 44.4549 Q1670.35 44.4549 1667.34 47.0673 Q1664.34 49.6241 1664.34 53.1258 Q1664.34 55.0712 1665.23 56.5719 Q1666.18 58.0171 1667.34 58.9064 Q1668.57 59.7401 1670.79 60.5739 Q1673.01 61.352 1674.35 61.6299 Q1675.74 61.9079 1678.35 62.4637 Q1687.47 64.1867 1691.3 67.9108 Q1696.08 72.6909 1696.08 78.7494 Q1696.08 85.4749 1691.52 90.0326 Q1686.97 94.5904 1677.79 94.5904 Q1670.4 94.5904 1665.23 89.6436 Q1664.57 90.3105 1664.07 90.9219 Q1663.56 91.4778 1663.34 91.7001 Q1663.18 91.9224 1663.12 92.0892 Q1663.06 92.2003 1662.95 92.3115 Q1660.67 94.5904 1660.12 94.5904 Q1659.23 94.5904 1659.06 93.979 Q1658.9 93.4232 1658.9 91.8113 Z" fill="#000000" fill-rule="evenodd" fill-opacity="1" /><path clip-path="url(#clip150)" d="M1702.08 47.7899 L1702.08 45.2887 Q1707.31 45.0663 1710.75 41.3979 Q1714.26 37.6739 1715.42 33.1161 Q1716.65 28.5583 1716.76 23.278 L1719.59 23.278 L1719.59 44.2326 L1735.88 44.2326 L1735.88 47.7899 L1719.59 47.7899 L1719.59 79.4164 Q1719.59 91.7001 1727.26 91.7001 Q1730.54 91.7001 1732.71 88.3652 Q1734.88 84.9746 1734.88 78.9717 L1734.88 72.6909 L1737.71 72.6909 L1737.71 79.194 Q1737.71 85.3637 1734.88 89.977 Q1732.04 94.5904 1726.43 94.5904 Q1724.37 94.5904 1722.32 94.0346 Q1720.31 93.5343 1717.65 92.2003 Q1715.03 90.8108 1713.37 87.4758 Q1711.75 84.0853 1711.75 79.194 L1711.75 47.7899 L1702.08 47.7899 Z" fill="#000000" fill-rule="evenodd" fill-opacity="1" /><path clip-path="url(#clip150)" d="M1747.22 93.312 L1747.22 89.8103 Q1753.28 89.8103 1754.66 89.0877 Q1756.11 88.3096 1756.11 84.6411 L1756.11 54.1263 Q1756.11 49.902 1754.61 48.846 Q1753.16 47.7899 1747.22 47.7899 L1747.22 44.2326 L1763.06 43.0098 L1763.06 55.5159 Q1764.67 50.6246 1768.06 46.845 Q1771.51 43.0098 1777.06 43.0098 Q1780.73 43.0098 1783.07 45.0663 Q1785.46 47.1229 1785.46 49.9576 Q1785.46 52.4588 1783.9 53.7372 Q1782.4 54.96 1780.57 54.96 Q1778.51 54.96 1777.06 53.6816 Q1775.67 52.3477 1775.67 50.0688 Q1775.67 48.6792 1776.29 47.6231 Q1776.95 46.5115 1777.45 46.1224 Q1777.95 45.7333 1778.29 45.6222 Q1778.06 45.511 1777.06 45.511 Q1770.78 45.511 1767.17 51.7918 Q1763.61 58.0171 1763.61 66.9103 L1763.61 84.4188 Q1763.61 87.6982 1764.95 88.7542 Q1766.34 89.8103 1772.28 89.8103 L1774.67 89.8103 L1774.67 93.312 Q1770.12 92.9785 1760.22 92.9785 Q1758.83 92.9785 1756.67 93.0341 Q1754.5 93.0897 1751.66 93.2008 Q1748.83 93.312 1747.22 93.312 Z" fill="#000000" fill-rule="evenodd" fill-opacity="1" /><path clip-path="url(#clip150)" d="M1792.29 93.312 L1792.29 89.8103 Q1798.35 89.8103 1799.74 89.0877 Q1801.13 88.3096 1801.13 84.6411 L1801.13 54.0151 Q1801.13 49.7909 1799.69 48.7904 Q1798.3 47.7899 1792.74 47.7899 L1792.74 44.2326 L1808.64 43.0098 L1808.64 84.7523 Q1808.64 88.1428 1809.86 88.9766 Q1811.08 89.8103 1816.64 89.8103 L1816.64 93.312 Q1805.02 92.9785 1804.8 92.9785 Q1803.24 92.9785 1792.29 93.312 M1797.07 23.1668 Q1797.07 20.8879 1798.8 19.0537 Q1800.58 17.1639 1803.08 17.1639 Q1805.58 17.1639 1807.36 18.887 Q1809.14 20.5544 1809.14 23.2224 Q1809.14 25.8348 1807.36 27.5578 Q1805.58 29.2253 1803.08 29.2253 Q1800.46 29.2253 1798.74 27.3911 Q1797.07 25.5569 1797.07 23.1668 Z" fill="#000000" fill-rule="evenodd" fill-opacity="1" /><path clip-path="url(#clip150)" d="M1823.2 19.1093 L1823.2 15.552 L1839.59 14.3292 L1839.59 50.4023 Q1846.21 43.0098 1855.21 43.0098 Q1865 43.0098 1872.17 50.5134 Q1879.34 58.0171 1879.34 68.7445 Q1879.34 79.5831 1871.83 87.0868 Q1864.33 94.5904 1853.94 94.5904 Q1844.49 94.5904 1839.04 86.253 Q1835.04 93.2008 1834.93 93.312 L1832.09 93.312 L1832.09 25.4457 Q1832.09 21.2214 1830.59 20.1654 Q1829.09 19.1093 1823.2 19.1093 M1839.93 80.3613 Q1839.93 82.7513 1841.54 85.1414 Q1846.04 92.0336 1853.38 92.0336 Q1853.43 92.0336 1853.49 92.0336 Q1861.44 92.0336 1866.39 84.7523 Q1869.89 79.3052 1869.89 68.6333 Q1869.89 58.0727 1866.61 52.7923 Q1862.05 45.511 1854.66 45.511 Q1846.32 45.511 1841.21 52.7923 Q1839.93 54.6265 1839.93 56.9054 L1839.93 80.3613 Z" fill="#000000" fill-rule="evenodd" fill-opacity="1" /><path clip-path="url(#clip150)" d="M1886.84 47.7899 L1886.84 44.2326 L1903.57 43.0098 L1903.57 80.8059 Q1903.57 83.5295 1903.79 85.1414 Q1904.01 86.6977 1904.9 88.5319 Q1905.85 90.3661 1907.96 91.1999 Q1910.13 92.0336 1913.58 92.0336 Q1919.74 92.0336 1923.52 86.9756 Q1927.36 81.9176 1927.36 74.4139 L1927.36 54.1263 Q1927.36 49.902 1925.86 48.846 Q1924.36 47.7899 1918.47 47.7899 L1918.47 44.2326 L1935.2 43.0098 L1935.2 83.4183 Q1935.2 87.6426 1936.64 88.7542 Q1938.14 89.8103 1944.09 89.8103 L1944.09 93.312 L1927.69 94.5904 L1927.69 84.3076 Q1922.91 94.5348 1913.02 94.5904 Q1908.02 94.5904 1904.57 93.312 Q1901.18 92.0336 1899.46 90.4773 Q1897.73 88.8654 1896.79 85.8084 Q1895.9 82.7513 1895.79 80.8615 Q1895.68 78.9717 1895.68 75.3033 L1895.68 58.2394 Q1895.68 50.5134 1894.57 49.1794 Q1893.45 47.7899 1886.84 47.7899 Z" fill="#000000" fill-rule="evenodd" fill-opacity="1" /><path clip-path="url(#clip150)" d="M1948.48 47.7899 L1948.48 45.2887 Q1953.71 45.0663 1957.15 41.3979 Q1960.65 37.6739 1961.82 33.1161 Q1963.04 28.5583 1963.15 23.278 L1965.99 23.278 L1965.99 44.2326 L1982.28 44.2326 L1982.28 47.7899 L1965.99 47.7899 L1965.99 79.4164 Q1965.99 91.7001 1973.66 91.7001 Q1976.94 91.7001 1979.11 88.3652 Q1981.27 84.9746 1981.27 78.9717 L1981.27 72.6909 L1984.11 72.6909 L1984.11 79.194 Q1984.11 85.3637 1981.27 89.977 Q1978.44 94.5904 1972.83 94.5904 Q1970.77 94.5904 1968.71 94.0346 Q1966.71 93.5343 1964.04 92.2003 Q1961.43 90.8108 1959.76 87.4758 Q1958.15 84.0853 1958.15 79.194 L1958.15 47.7899 L1948.48 47.7899 Z" fill="#000000" fill-rule="evenodd" fill-opacity="1" /><path clip-path="url(#clip150)" d="M1994.23 93.312 L1994.23 89.8103 Q2000.28 89.8103 2001.67 89.0877 Q2003.06 88.3096 2003.06 84.6411 L2003.06 54.0151 Q2003.06 49.7909 2001.62 48.7904 Q2000.23 47.7899 1994.67 47.7899 L1994.67 44.2326 L2010.57 43.0098 L2010.57 84.7523 Q2010.57 88.1428 2011.79 88.9766 Q2013.01 89.8103 2018.57 89.8103 L2018.57 93.312 Q2006.95 92.9785 2006.73 92.9785 Q2005.18 92.9785 1994.23 93.312 M1999.01 23.1668 Q1999.01 20.8879 2000.73 19.0537 Q2002.51 17.1639 2005.01 17.1639 Q2007.51 17.1639 2009.29 18.887 Q2011.07 20.5544 2011.07 23.2224 Q2011.07 25.8348 2009.29 27.5578 Q2007.51 29.2253 2005.01 29.2253 Q2002.4 29.2253 2000.67 27.3911 Q1999.01 25.5569 1999.01 23.1668 Z" fill="#000000" fill-rule="evenodd" fill-opacity="1" /><path clip-path="url(#clip150)" d="M2032.63 87.1979 Q2025.13 79.7499 2025.13 68.9668 Q2025.13 58.1282 2032.47 50.2355 Q2039.86 42.2872 2050.42 42.2872 Q2060.76 42.2872 2068.15 50.1799 Q2075.6 58.0171 2075.6 68.9668 Q2075.6 79.6943 2068.09 87.1423 Q2060.65 94.5904 2050.31 94.5904 Q2040.19 94.5904 2032.63 87.1979 M2034.58 68.0219 Q2034.58 79.0829 2037.47 84.0853 Q2041.92 91.7001 2050.42 91.7001 Q2054.64 91.7001 2058.15 89.4212 Q2061.7 87.1423 2063.65 83.3071 Q2066.15 78.3047 2066.15 68.0219 Q2066.15 57.0722 2063.15 52.2365 Q2058.7 44.844 2050.31 44.844 Q2046.64 44.844 2043.03 46.7894 Q2039.47 48.6792 2037.3 52.4588 Q2034.58 57.4612 2034.58 68.0219 Z" fill="#000000" fill-rule="evenodd" fill-opacity="1" /><path clip-path="url(#clip150)" d="M2082.55 93.312 L2082.55 89.8103 Q2088.6 89.8103 2089.99 89.0877 Q2091.38 88.3096 2091.38 84.6411 L2091.38 54.1263 Q2091.38 49.902 2089.88 48.846 Q2088.44 47.7899 2082.55 47.7899 L2082.55 44.2326 L2098.55 43.0098 L2098.55 54.96 Q2103.89 43.0098 2115.4 43.0098 Q2123.96 43.0098 2127.35 47.2341 Q2129.85 50.0688 2130.35 53.237 Q2130.9 56.4052 2130.9 64.6314 L2130.9 86.3642 Q2131.01 88.7542 2132.85 89.3101 Q2134.68 89.8103 2139.8 89.8103 L2139.8 93.312 Q2128.18 92.9785 2127.01 92.9785 Q2126.12 92.9785 2114.17 93.312 L2114.17 89.8103 Q2120.23 89.8103 2121.62 89.0877 Q2123.07 88.3096 2123.07 84.6411 L2123.07 58.1282 Q2123.07 52.3477 2121.29 48.9571 Q2119.51 45.511 2114.62 45.511 Q2108.73 45.511 2104 50.4578 Q2099.28 55.4047 2099.28 63.7421 L2099.28 84.6411 Q2099.28 88.3096 2100.67 89.0877 Q2102.11 89.8103 2108.11 89.8103 L2108.11 93.312 Q2096.5 92.9785 2095.39 92.9785 Q2094.5 92.9785 2082.55 93.312 Z" fill="#000000" fill-rule="evenodd" fill-opacity="1" /><path clip-path="url(#clip152)" d="
M483.984 1314.75 L489.89 1314.64 L495.796 1314.53 L550.407 1312.88 L605.018 1309.54 L637.837 1306.19 L670.656 1301.33 L698.405 1295.66 L726.153 1288.12 L741.224 1283.09 
  L756.295 1277.3 L771.366 1270.65 L786.437 1263.07 L800.331 1255.16 L814.225 1246.29 L828.12 1236.38 L842.014 1225.35 L856.91 1212.21 L871.806 1197.59 L886.702 1181.42 
  L901.598 1163.6 L918.857 1140.8 L936.115 1115.6 L953.374 1087.91 L970.632 1057.7 L985.97 1028.7 L1001.31 997.718 L1016.64 964.778 L1031.98 929.958 L1045.43 897.954 
  L1058.88 864.671 L1072.33 830.216 L1085.78 794.716 L1115.11 714.424 L1144.43 631.724 L1173.94 548.332 L1203.44 467.279 L1211.59 445.651 L1219.75 424.469 L1227.9 403.79 
  L1236.05 383.675 L1244.21 364.179 L1252.36 345.362 L1260.52 327.277 L1268.67 309.981 L1276.43 294.303 L1284.19 279.43 L1291.95 265.404 L1299.71 252.264 L1307.47 240.05 
  L1315.22 228.795 L1322.98 218.533 L1330.74 209.295 L1338.81 200.804 L1346.88 193.476 L1354.94 187.334 L1363.01 182.4 L1371.08 178.689 L1379.14 176.212 L1387.21 174.979 
  L1395.28 174.993 L1402.07 175.972 L1408.86 177.832 L1415.65 180.57 L1422.44 184.178 L1429.23 188.649 L1436.02 193.973 L1442.82 200.136 L1449.61 207.125 L1457.9 216.754 
  L1466.19 227.557 L1474.48 239.498 L1482.77 252.538 L1491.06 266.632 L1499.35 281.735 L1507.64 297.798 L1515.93 314.768 L1531.12 348.035 L1546.31 383.817 L1553.91 402.538 
  L1561.5 421.75 L1569.1 441.407 L1576.69 461.46 L1604.75 538.201 L1632.81 617.353 L1661.23 697.718 L1689.65 776.213 L1705.58 818.716 L1721.51 859.82 L1737.43 899.305 
  L1753.36 936.99 L1767.79 969.464 L1782.23 1000.26 L1796.66 1029.33 L1811.09 1056.62 L1827.61 1085.69 L1844.14 1112.43 L1860.66 1136.89 L1877.19 1159.13 L1892.48 1177.82 
  L1907.78 1194.76 L1923.08 1210.03 L1938.38 1223.75 L1953.47 1235.83 L1968.55 1246.6 L1983.63 1256.15 L1998.72 1264.58 L2013.36 1271.78 L2028.01 1278.11 L2042.65 1283.65 
  L2057.3 1288.47 L2087.32 1296.45 L2117.35 1302.31 L2150.25 1306.88 L2183.14 1310.02 L2230.93 1312.84 L2278.72 1314.36 L2288.52 1314.57 L2298.33 1314.75 L2298.33 1315.88 
  L2288.52 1315.88 L2278.72 1315.88 L2230.93 1315.88 L2183.14 1315.88 L2150.25 1315.88 L2117.35 1315.88 L2087.32 1315.88 L2057.3 1315.88 L2042.65 1315.88 L2028.01 1315.88 
  L2013.36 1315.88 L1998.72 1315.88 L1983.63 1315.88 L1968.55 1315.88 L1953.47 1315.88 L1938.38 1315.88 L1923.08 1315.88 L1907.78 1315.88 L1892.48 1315.88 L1877.19 1315.88 
  L1860.66 1315.88 L1844.14 1315.88 L1827.61 1315.88 L1811.09 1315.88 L1796.66 1315.88 L1782.23 1315.88 L1767.79 1315.88 L1753.36 1315.88 L1737.43 1315.88 L1721.51 1315.88 
  L1705.58 1315.88 L1689.65 1315.88 L1661.23 1315.88 L1632.81 1315.88 L1604.75 1315.88 L1576.69 1315.88 L1569.1 1315.88 L1561.5 1315.88 L1553.91 1315.88 L1546.31 1315.88 
  L1531.12 1315.88 L1515.93 1315.88 L1507.64 1315.88 L1499.35 1315.88 L1491.06 1315.88 L1482.77 1315.88 L1474.48 1315.88 L1466.19 1315.88 L1457.9 1315.88 L1449.61 1315.88 
  L1442.82 1315.88 L1436.02 1315.88 L1429.23 1315.88 L1422.44 1315.88 L1415.65 1315.88 L1408.86 1315.88 L1402.07 1315.88 L1395.28 1315.88 L1387.21 1315.88 L1379.14 1315.88 
  L1371.08 1315.88 L1363.01 1315.88 L1354.94 1315.88 L1346.88 1315.88 L1338.81 1315.88 L1330.74 1315.88 L1322.98 1315.88 L1315.22 1315.88 L1307.47 1315.88 L1299.71 1315.88 
  L1291.95 1315.88 L1284.19 1315.88 L1276.43 1315.88 L1268.67 1315.88 L1260.52 1315.88 L1252.36 1315.88 L1244.21 1315.88 L1236.05 1315.88 L1227.9 1315.88 L1219.75 1315.88 
  L1211.59 1315.88 L1203.44 1315.88 L1173.94 1315.88 L1144.43 1315.88 L1115.11 1315.88 L1085.78 1315.88 L1072.33 1315.88 L1058.88 1315.88 L1045.43 1315.88 L1031.98 1315.88 
  L1016.64 1315.88 L1001.31 1315.88 L985.97 1315.88 L970.632 1315.88 L953.374 1315.88 L936.115 1315.88 L918.857 1315.88 L901.598 1315.88 L886.702 1315.88 L871.806 1315.88 
  L856.91 1315.88 L842.014 1315.88 L828.12 1315.88 L814.225 1315.88 L800.331 1315.88 L786.437 1315.88 L771.366 1315.88 L756.295 1315.88 L741.224 1315.88 L726.153 1315.88 
  L698.405 1315.88 L670.656 1315.88 L637.837 1315.88 L605.018 1315.88 L550.407 1315.88 L495.796 1315.88 L489.89 1315.88 L483.984 1315.88  Z
  " fill="#ff0000" fill-rule="evenodd" fill-opacity="0.5"/>
<polyline clip-path="url(#clip152)" style="stroke:#009af9; stroke-linecap:butt; stroke-linejoin:round; stroke-width:4; stroke-opacity:1; fill:none" points="
  483.984,1314.75 489.89,1314.64 495.796,1314.53 550.407,1312.88 605.018,1309.54 637.837,1306.19 670.656,1301.33 698.405,1295.66 726.153,1288.12 741.224,1283.09 
  756.295,1277.3 771.366,1270.65 786.437,1263.07 800.331,1255.16 814.225,1246.29 828.12,1236.38 842.014,1225.35 856.91,1212.21 871.806,1197.59 886.702,1181.42 
  901.598,1163.6 918.857,1140.8 936.115,1115.6 953.374,1087.91 970.632,1057.7 985.97,1028.7 1001.31,997.718 1016.64,964.778 1031.98,929.958 1045.43,897.954 
  1058.88,864.671 1072.33,830.216 1085.78,794.716 1115.11,714.424 1144.43,631.724 1173.94,548.332 1203.44,467.279 1211.59,445.651 1219.75,424.469 1227.9,403.79 
  1236.05,383.675 1244.21,364.179 1252.36,345.362 1260.52,327.277 1268.67,309.981 1276.43,294.303 1284.19,279.43 1291.95,265.404 1299.71,252.264 1307.47,240.05 
  1315.22,228.795 1322.98,218.533 1330.74,209.295 1338.81,200.804 1346.88,193.476 1354.94,187.334 1363.01,182.4 1371.08,178.689 1379.14,176.212 1387.21,174.979 
  1395.28,174.993 1402.07,175.972 1408.86,177.832 1415.65,180.57 1422.44,184.178 1429.23,188.649 1436.02,193.973 1442.82,200.136 1449.61,207.125 1457.9,216.754 
  1466.19,227.557 1474.48,239.498 1482.77,252.538 1491.06,266.632 1499.35,281.735 1507.64,297.798 1515.93,314.768 1531.12,348.035 1546.31,383.817 1553.91,402.538 
  1561.5,421.75 1569.1,441.407 1576.69,461.46 1604.75,538.201 1632.81,617.353 1661.23,697.718 1689.65,776.213 1705.58,818.716 1721.51,859.82 1737.43,899.305 
  1753.36,936.99 1767.79,969.464 1782.23,1000.26 1796.66,1029.33 1811.09,1056.62 1827.61,1085.69 1844.14,1112.43 1860.66,1136.89 1877.19,1159.13 1892.48,1177.82 
  1907.78,1194.76 1923.08,1210.03 1938.38,1223.75 1953.47,1235.83 1968.55,1246.6 1983.63,1256.15 1998.72,1264.58 2013.36,1271.78 2028.01,1278.11 2042.65,1283.65 
  2057.3,1288.47 2087.32,1296.45 2117.35,1302.31 2150.25,1306.88 2183.14,1310.02 2230.93,1312.84 2278.72,1314.36 2288.52,1314.57 2298.33,1314.75 
  "/>
</svg>
