<?xml version="1.0" encoding="utf-8"?>
<svg xmlns="http://www.w3.org/2000/svg" xmlns:xlink="http://www.w3.org/1999/xlink" width="600" height="400" viewBox="0 0 2400 1600">
<defs>
  <clipPath id="clip190">
    <rect x="0" y="0" width="2400" height="1600"/>
  </clipPath>
</defs>
<path clip-path="url(#clip190)" d="
M0 1600 L2400 1600 L2400 0 L0 0  Z
  " fill="#000000" fill-rule="evenodd" fill-opacity="1"/>
<defs>
  <clipPath id="clip191">
    <rect x="480" y="0" width="1681" height="1600"/>
  </clipPath>
</defs>
<path clip-path="url(#clip190)" d="
M234.125 1423.18 L2352.76 1423.18 L2352.76 123.472 L234.125 123.472  Z
  " fill="#000000" fill-rule="evenodd" fill-opacity="1"/>
<defs>
  <clipPath id="clip192">
    <rect x="234" y="123" width="2120" height="1301"/>
  </clipPath>
</defs>
<polyline clip-path="url(#clip192)" style="stroke:#ffffff; stroke-linecap:butt; stroke-linejoin:round; stroke-width:2; stroke-opacity:0.1; fill:none" points="
  260.066,1423.18 260.066,123.472 
  "/>
<polyline clip-path="url(#clip192)" style="stroke:#ffffff; stroke-linecap:butt; stroke-linejoin:round; stroke-width:2; stroke-opacity:0.1; fill:none" points="
  685.323,1423.18 685.323,123.472 
  "/>
<polyline clip-path="url(#clip192)" style="stroke:#ffffff; stroke-linecap:butt; stroke-linejoin:round; stroke-width:2; stroke-opacity:0.1; fill:none" points="
  1110.58,1423.18 1110.58,123.472 
  "/>
<polyline clip-path="url(#clip192)" style="stroke:#ffffff; stroke-linecap:butt; stroke-linejoin:round; stroke-width:2; stroke-opacity:0.1; fill:none" points="
  1535.84,1423.18 1535.84,123.472 
  "/>
<polyline clip-path="url(#clip192)" style="stroke:#ffffff; stroke-linecap:butt; stroke-linejoin:round; stroke-width:2; stroke-opacity:0.1; fill:none" points="
  1961.09,1423.18 1961.09,123.472 
  "/>
<polyline clip-path="url(#clip190)" style="stroke:#ffffff; stroke-linecap:butt; stroke-linejoin:round; stroke-width:4; stroke-opacity:1; fill:none" points="
  234.125,1423.18 2352.76,1423.18 
  "/>
<polyline clip-path="url(#clip190)" style="stroke:#ffffff; stroke-linecap:butt; stroke-linejoin:round; stroke-width:4; stroke-opacity:1; fill:none" points="
  260.066,1423.18 260.066,1404.28 
  "/>
<polyline clip-path="url(#clip190)" style="stroke:#ffffff; stroke-linecap:butt; stroke-linejoin:round; stroke-width:4; stroke-opacity:1; fill:none" points="
  685.323,1423.18 685.323,1404.28 
  "/>
<polyline clip-path="url(#clip190)" style="stroke:#ffffff; stroke-linecap:butt; stroke-linejoin:round; stroke-width:4; stroke-opacity:1; fill:none" points="
  1110.58,1423.18 1110.58,1404.28 
  "/>
<polyline clip-path="url(#clip190)" style="stroke:#ffffff; stroke-linecap:butt; stroke-linejoin:round; stroke-width:4; stroke-opacity:1; fill:none" points="
  1535.84,1423.18 1535.84,1404.28 
  "/>
<polyline clip-path="url(#clip190)" style="stroke:#ffffff; stroke-linecap:butt; stroke-linejoin:round; stroke-width:4; stroke-opacity:1; fill:none" points="
  1961.09,1423.18 1961.09,1404.28 
  "/>
<path clip-path="url(#clip190)" d="M234.754 1481.64 L242.393 1481.64 L242.393 1455.28 L234.082 1456.95 L234.082 1452.69 L242.346 1451.02 L247.022 1451.02 L247.022 1481.64 L254.661 1481.64 L254.661 1485.58 L234.754 1485.58 L234.754 1481.64 Z" fill="#ffffff" fill-rule="evenodd" fill-opacity="1" /><path clip-path="url(#clip190)" d="M274.105 1454.1 Q270.494 1454.1 268.666 1457.66 Q266.86 1461.2 266.86 1468.33 Q266.86 1475.44 268.666 1479.01 Q270.494 1482.55 274.105 1482.55 Q277.74 1482.55 279.545 1479.01 Q281.374 1475.44 281.374 1468.33 Q281.374 1461.2 279.545 1457.66 Q277.74 1454.1 274.105 1454.1 M274.105 1450.39 Q279.916 1450.39 282.971 1455 Q286.05 1459.58 286.05 1468.33 Q286.05 1477.06 282.971 1481.67 Q279.916 1486.25 274.105 1486.25 Q268.295 1486.25 265.217 1481.67 Q262.161 1477.06 262.161 1468.33 Q262.161 1459.58 265.217 1455 Q268.295 1450.39 274.105 1450.39 Z" fill="#ffffff" fill-rule="evenodd" fill-opacity="1" /><path clip-path="url(#clip190)" d="M660.508 1481.64 L668.147 1481.64 L668.147 1455.28 L659.837 1456.95 L659.837 1452.69 L668.101 1451.02 L672.777 1451.02 L672.777 1481.64 L680.416 1481.64 L680.416 1485.58 L660.508 1485.58 L660.508 1481.64 Z" fill="#ffffff" fill-rule="evenodd" fill-opacity="1" /><path clip-path="url(#clip190)" d="M689.906 1451.02 L708.263 1451.02 L708.263 1454.96 L694.189 1454.96 L694.189 1463.43 Q695.207 1463.08 696.226 1462.92 Q697.244 1462.73 698.263 1462.73 Q704.05 1462.73 707.43 1465.9 Q710.809 1469.08 710.809 1474.49 Q710.809 1480.07 707.337 1483.17 Q703.865 1486.25 697.545 1486.25 Q695.369 1486.25 693.101 1485.88 Q690.856 1485.51 688.448 1484.77 L688.448 1480.07 Q690.531 1481.2 692.754 1481.76 Q694.976 1482.32 697.453 1482.32 Q701.457 1482.32 703.795 1480.21 Q706.133 1478.1 706.133 1474.49 Q706.133 1470.88 703.795 1468.77 Q701.457 1466.67 697.453 1466.67 Q695.578 1466.67 693.703 1467.08 Q691.851 1467.5 689.906 1468.38 L689.906 1451.02 Z" fill="#ffffff" fill-rule="evenodd" fill-opacity="1" /><path clip-path="url(#clip190)" d="M1089.35 1481.64 L1105.67 1481.64 L1105.67 1485.58 L1083.73 1485.58 L1083.73 1481.64 Q1086.39 1478.89 1090.97 1474.26 Q1095.58 1469.61 1096.76 1468.27 Q1099.01 1465.74 1099.89 1464.01 Q1100.79 1462.25 1100.79 1460.56 Q1100.79 1457.8 1098.84 1456.07 Q1096.92 1454.33 1093.82 1454.33 Q1091.62 1454.33 1089.17 1455.09 Q1086.74 1455.86 1083.96 1457.41 L1083.96 1452.69 Q1086.78 1451.55 1089.24 1450.97 Q1091.69 1450.39 1093.73 1450.39 Q1099.1 1450.39 1102.29 1453.08 Q1105.49 1455.77 1105.49 1460.26 Q1105.49 1462.39 1104.68 1464.31 Q1103.89 1466.2 1101.78 1468.8 Q1101.21 1469.47 1098.1 1472.69 Q1095 1475.88 1089.35 1481.64 Z" fill="#ffffff" fill-rule="evenodd" fill-opacity="1" /><path clip-path="url(#clip190)" d="M1125.49 1454.1 Q1121.88 1454.1 1120.05 1457.66 Q1118.24 1461.2 1118.24 1468.33 Q1118.24 1475.44 1120.05 1479.01 Q1121.88 1482.55 1125.49 1482.55 Q1129.12 1482.55 1130.93 1479.01 Q1132.76 1475.44 1132.76 1468.33 Q1132.76 1461.2 1130.93 1457.66 Q1129.12 1454.1 1125.49 1454.1 M1125.49 1450.39 Q1131.3 1450.39 1134.35 1455 Q1137.43 1459.58 1137.43 1468.33 Q1137.43 1477.06 1134.35 1481.67 Q1131.3 1486.25 1125.49 1486.25 Q1119.68 1486.25 1116.6 1481.67 Q1113.54 1477.06 1113.54 1468.33 Q1113.54 1459.58 1116.6 1455 Q1119.68 1450.39 1125.49 1450.39 Z" fill="#ffffff" fill-rule="evenodd" fill-opacity="1" /><path clip-path="url(#clip190)" d="M1515.11 1481.64 L1531.43 1481.64 L1531.43 1485.58 L1509.48 1485.58 L1509.48 1481.64 Q1512.15 1478.89 1516.73 1474.26 Q1521.33 1469.61 1522.52 1468.27 Q1524.76 1465.74 1525.64 1464.01 Q1526.54 1462.25 1526.54 1460.56 Q1526.54 1457.8 1524.6 1456.07 Q1522.68 1454.33 1519.58 1454.33 Q1517.38 1454.33 1514.92 1455.09 Q1512.49 1455.86 1509.71 1457.41 L1509.71 1452.69 Q1512.54 1451.55 1514.99 1450.97 Q1517.45 1450.39 1519.48 1450.39 Q1524.85 1450.39 1528.05 1453.08 Q1531.24 1455.77 1531.24 1460.26 Q1531.24 1462.39 1530.43 1464.31 Q1529.65 1466.2 1527.54 1468.8 Q1526.96 1469.47 1523.86 1472.69 Q1520.76 1475.88 1515.11 1481.64 Z" fill="#ffffff" fill-rule="evenodd" fill-opacity="1" /><path clip-path="url(#clip190)" d="M1541.29 1451.02 L1559.64 1451.02 L1559.64 1454.96 L1545.57 1454.96 L1545.57 1463.43 Q1546.59 1463.08 1547.61 1462.92 Q1548.63 1462.73 1549.64 1462.73 Q1555.43 1462.73 1558.81 1465.9 Q1562.19 1469.08 1562.19 1474.49 Q1562.19 1480.07 1558.72 1483.17 Q1555.25 1486.25 1548.93 1486.25 Q1546.75 1486.25 1544.48 1485.88 Q1542.24 1485.51 1539.83 1484.77 L1539.83 1480.07 Q1541.91 1481.2 1544.14 1481.76 Q1546.36 1482.32 1548.83 1482.32 Q1552.84 1482.32 1555.18 1480.21 Q1557.52 1478.1 1557.52 1474.49 Q1557.52 1470.88 1555.18 1468.77 Q1552.84 1466.67 1548.83 1466.67 Q1546.96 1466.67 1545.08 1467.08 Q1543.23 1467.5 1541.29 1468.38 L1541.29 1451.02 Z" fill="#ffffff" fill-rule="evenodd" fill-opacity="1" /><path clip-path="url(#clip190)" d="M1949.94 1466.95 Q1953.29 1467.66 1955.17 1469.93 Q1957.07 1472.2 1957.07 1475.53 Q1957.07 1480.65 1953.55 1483.45 Q1950.03 1486.25 1943.55 1486.25 Q1941.37 1486.25 1939.06 1485.81 Q1936.77 1485.39 1934.31 1484.54 L1934.31 1480.02 Q1936.26 1481.16 1938.57 1481.74 Q1940.89 1482.32 1943.41 1482.32 Q1947.81 1482.32 1950.1 1480.58 Q1952.41 1478.84 1952.41 1475.53 Q1952.41 1472.48 1950.26 1470.77 Q1948.13 1469.03 1944.31 1469.03 L1940.28 1469.03 L1940.28 1465.19 L1944.5 1465.19 Q1947.95 1465.19 1949.77 1463.82 Q1951.6 1462.43 1951.6 1459.84 Q1951.6 1457.18 1949.71 1455.77 Q1947.83 1454.33 1944.31 1454.33 Q1942.39 1454.33 1940.19 1454.75 Q1937.99 1455.16 1935.35 1456.04 L1935.35 1451.88 Q1938.02 1451.14 1940.33 1450.77 Q1942.67 1450.39 1944.73 1450.39 Q1950.05 1450.39 1953.15 1452.83 Q1956.26 1455.23 1956.26 1459.35 Q1956.26 1462.22 1954.61 1464.21 Q1952.97 1466.18 1949.94 1466.95 Z" fill="#ffffff" fill-rule="evenodd" fill-opacity="1" /><path clip-path="url(#clip190)" d="M1975.93 1454.1 Q1972.32 1454.1 1970.49 1457.66 Q1968.69 1461.2 1968.69 1468.33 Q1968.69 1475.44 1970.49 1479.01 Q1972.32 1482.55 1975.93 1482.55 Q1979.57 1482.55 1981.37 1479.01 Q1983.2 1475.44 1983.2 1468.33 Q1983.2 1461.2 1981.37 1457.66 Q1979.57 1454.1 1975.93 1454.1 M1975.93 1450.39 Q1981.74 1450.39 1984.8 1455 Q1987.88 1459.58 1987.88 1468.33 Q1987.88 1477.06 1984.8 1481.67 Q1981.74 1486.25 1975.93 1486.25 Q1970.12 1486.25 1967.04 1481.67 Q1963.99 1477.06 1963.99 1468.33 Q1963.99 1459.58 1967.04 1455 Q1970.12 1450.39 1975.93 1450.39 Z" fill="#ffffff" fill-rule="evenodd" fill-opacity="1" /><path clip-path="url(#clip190)" d="M1230.1 1520.52 L1239.68 1520.52 L1251.81 1552.86 L1264 1520.52 L1273.58 1520.52 L1273.58 1568.04 L1267.31 1568.04 L1267.31 1526.32 L1255.06 1558.91 L1248.59 1558.91 L1236.34 1526.32 L1236.34 1568.04 L1230.1 1568.04 L1230.1 1520.52 Z" fill="#ffffff" fill-rule="evenodd" fill-opacity="1" /><path clip-path="url(#clip190)" d="M1291.75 1562.7 L1291.75 1581.6 L1285.87 1581.6 L1285.87 1532.4 L1291.75 1532.4 L1291.75 1537.81 Q1293.6 1534.62 1296.4 1533.1 Q1299.23 1531.54 1303.15 1531.54 Q1309.64 1531.54 1313.68 1536.69 Q1317.76 1541.85 1317.76 1550.25 Q1317.76 1558.65 1313.68 1563.81 Q1309.64 1568.97 1303.15 1568.97 Q1299.23 1568.97 1296.4 1567.44 Q1293.6 1565.88 1291.75 1562.7 M1311.68 1550.25 Q1311.68 1543.79 1309 1540.13 Q1306.36 1536.44 1301.72 1536.44 Q1297.07 1536.44 1294.4 1540.13 Q1291.75 1543.79 1291.75 1550.25 Q1291.75 1556.71 1294.4 1560.4 Q1297.07 1564.07 1301.72 1564.07 Q1306.36 1564.07 1309 1560.4 Q1311.68 1556.71 1311.68 1550.25 Z" fill="#ffffff" fill-rule="evenodd" fill-opacity="1" /><path clip-path="url(#clip190)" d="M1350.92 1549.81 Q1350.92 1543.44 1348.28 1539.94 Q1345.67 1536.44 1340.93 1536.44 Q1336.22 1536.44 1333.58 1539.94 Q1330.97 1543.44 1330.97 1549.81 Q1330.97 1556.14 1333.58 1559.64 Q1336.22 1563.14 1340.93 1563.14 Q1345.67 1563.14 1348.28 1559.64 Q1350.92 1556.14 1350.92 1549.81 M1356.78 1563.62 Q1356.78 1572.72 1352.74 1577.15 Q1348.7 1581.6 1340.36 1581.6 Q1337.27 1581.6 1334.53 1581.13 Q1331.79 1580.68 1329.22 1579.72 L1329.22 1574.03 Q1331.79 1575.43 1334.31 1576.1 Q1336.82 1576.76 1339.43 1576.76 Q1345.19 1576.76 1348.06 1573.74 Q1350.92 1570.75 1350.92 1564.67 L1350.92 1561.77 Q1349.11 1564.92 1346.28 1566.48 Q1343.44 1568.04 1339.5 1568.04 Q1332.94 1568.04 1328.93 1563.05 Q1324.92 1558.05 1324.92 1549.81 Q1324.92 1541.53 1328.93 1536.53 Q1332.94 1531.54 1339.5 1531.54 Q1343.44 1531.54 1346.28 1533.1 Q1349.11 1534.66 1350.92 1537.81 L1350.92 1532.4 L1356.78 1532.4 L1356.78 1563.62 Z" fill="#ffffff" fill-rule="evenodd" fill-opacity="1" /><polyline clip-path="url(#clip192)" style="stroke:#ffffff; stroke-linecap:butt; stroke-linejoin:round; stroke-width:2; stroke-opacity:0.1; fill:none" points="
  234.125,1395.06 2352.76,1395.06 
  "/>
<polyline clip-path="url(#clip192)" style="stroke:#ffffff; stroke-linecap:butt; stroke-linejoin:round; stroke-width:2; stroke-opacity:0.1; fill:none" points="
  234.125,1178.43 2352.76,1178.43 
  "/>
<polyline clip-path="url(#clip192)" style="stroke:#ffffff; stroke-linecap:butt; stroke-linejoin:round; stroke-width:2; stroke-opacity:0.1; fill:none" points="
  234.125,961.796 2352.76,961.796 
  "/>
<polyline clip-path="url(#clip192)" style="stroke:#ffffff; stroke-linecap:butt; stroke-linejoin:round; stroke-width:2; stroke-opacity:0.1; fill:none" points="
  234.125,745.164 2352.76,745.164 
  "/>
<polyline clip-path="url(#clip192)" style="stroke:#ffffff; stroke-linecap:butt; stroke-linejoin:round; stroke-width:2; stroke-opacity:0.1; fill:none" points="
  234.125,528.531 2352.76,528.531 
  "/>
<polyline clip-path="url(#clip192)" style="stroke:#ffffff; stroke-linecap:butt; stroke-linejoin:round; stroke-width:2; stroke-opacity:0.1; fill:none" points="
  234.125,311.899 2352.76,311.899 
  "/>
<polyline clip-path="url(#clip190)" style="stroke:#ffffff; stroke-linecap:butt; stroke-linejoin:round; stroke-width:4; stroke-opacity:1; fill:none" points="
  234.125,1423.18 234.125,123.472 
  "/>
<polyline clip-path="url(#clip190)" style="stroke:#ffffff; stroke-linecap:butt; stroke-linejoin:round; stroke-width:4; stroke-opacity:1; fill:none" points="
  234.125,1395.06 253.023,1395.06 
  "/>
<polyline clip-path="url(#clip190)" style="stroke:#ffffff; stroke-linecap:butt; stroke-linejoin:round; stroke-width:4; stroke-opacity:1; fill:none" points="
  234.125,1178.43 253.023,1178.43 
  "/>
<polyline clip-path="url(#clip190)" style="stroke:#ffffff; stroke-linecap:butt; stroke-linejoin:round; stroke-width:4; stroke-opacity:1; fill:none" points="
  234.125,961.796 253.023,961.796 
  "/>
<polyline clip-path="url(#clip190)" style="stroke:#ffffff; stroke-linecap:butt; stroke-linejoin:round; stroke-width:4; stroke-opacity:1; fill:none" points="
  234.125,745.164 253.023,745.164 
  "/>
<polyline clip-path="url(#clip190)" style="stroke:#ffffff; stroke-linecap:butt; stroke-linejoin:round; stroke-width:4; stroke-opacity:1; fill:none" points="
  234.125,528.531 253.023,528.531 
  "/>
<polyline clip-path="url(#clip190)" style="stroke:#ffffff; stroke-linecap:butt; stroke-linejoin:round; stroke-width:4; stroke-opacity:1; fill:none" points="
  234.125,311.899 253.023,311.899 
  "/>
<path clip-path="url(#clip190)" d="M146.066 1377.78 L164.422 1377.78 L164.422 1381.72 L150.348 1381.72 L150.348 1390.19 Q151.366 1389.84 152.385 1389.68 Q153.403 1389.49 154.422 1389.49 Q160.209 1389.49 163.589 1392.67 Q166.968 1395.84 166.968 1401.25 Q166.968 1406.83 163.496 1409.93 Q160.024 1413.01 153.704 1413.01 Q151.528 1413.01 149.26 1412.64 Q147.015 1412.27 144.607 1411.53 L144.607 1406.83 Q146.691 1407.97 148.913 1408.52 Q151.135 1409.08 153.612 1409.08 Q157.616 1409.08 159.954 1406.97 Q162.292 1404.86 162.292 1401.25 Q162.292 1397.64 159.954 1395.54 Q157.616 1393.43 153.612 1393.43 Q151.737 1393.43 149.862 1393.85 Q148.01 1394.26 146.066 1395.14 L146.066 1377.78 Z" fill="#ffffff" fill-rule="evenodd" fill-opacity="1" /><path clip-path="url(#clip190)" d="M186.181 1380.86 Q182.57 1380.86 180.741 1384.42 Q178.936 1387.97 178.936 1395.1 Q178.936 1402.2 180.741 1405.77 Q182.57 1409.31 186.181 1409.31 Q189.815 1409.31 191.621 1405.77 Q193.45 1402.2 193.45 1395.1 Q193.45 1387.97 191.621 1384.42 Q189.815 1380.86 186.181 1380.86 M186.181 1377.16 Q191.991 1377.16 195.047 1381.76 Q198.125 1386.35 198.125 1395.1 Q198.125 1403.82 195.047 1408.43 Q191.991 1413.01 186.181 1413.01 Q180.371 1413.01 177.292 1408.43 Q174.237 1403.82 174.237 1395.1 Q174.237 1386.35 177.292 1381.76 Q180.371 1377.16 186.181 1377.16 Z" fill="#ffffff" fill-rule="evenodd" fill-opacity="1" /><path clip-path="url(#clip190)" d="M116.668 1191.77 L124.306 1191.77 L124.306 1165.41 L115.996 1167.07 L115.996 1162.82 L124.26 1161.15 L128.936 1161.15 L128.936 1191.77 L136.575 1191.77 L136.575 1195.71 L116.668 1195.71 L116.668 1191.77 Z" fill="#ffffff" fill-rule="evenodd" fill-opacity="1" /><path clip-path="url(#clip190)" d="M156.019 1164.23 Q152.408 1164.23 150.579 1167.79 Q148.774 1171.33 148.774 1178.46 Q148.774 1185.57 150.579 1189.13 Q152.408 1192.68 156.019 1192.68 Q159.653 1192.68 161.459 1189.13 Q163.288 1185.57 163.288 1178.46 Q163.288 1171.33 161.459 1167.79 Q159.653 1164.23 156.019 1164.23 M156.019 1160.52 Q161.829 1160.52 164.885 1165.13 Q167.964 1169.71 167.964 1178.46 Q167.964 1187.19 164.885 1191.8 Q161.829 1196.38 156.019 1196.38 Q150.209 1196.38 147.13 1191.8 Q144.075 1187.19 144.075 1178.46 Q144.075 1169.71 147.13 1165.13 Q150.209 1160.52 156.019 1160.52 Z" fill="#ffffff" fill-rule="evenodd" fill-opacity="1" /><path clip-path="url(#clip190)" d="M186.181 1164.23 Q182.57 1164.23 180.741 1167.79 Q178.936 1171.33 178.936 1178.46 Q178.936 1185.57 180.741 1189.13 Q182.57 1192.68 186.181 1192.68 Q189.815 1192.68 191.621 1189.13 Q193.45 1185.57 193.45 1178.46 Q193.45 1171.33 191.621 1167.79 Q189.815 1164.23 186.181 1164.23 M186.181 1160.52 Q191.991 1160.52 195.047 1165.13 Q198.125 1169.71 198.125 1178.46 Q198.125 1187.19 195.047 1191.8 Q191.991 1196.38 186.181 1196.38 Q180.371 1196.38 177.292 1191.8 Q174.237 1187.19 174.237 1178.46 Q174.237 1169.71 177.292 1165.13 Q180.371 1160.52 186.181 1160.52 Z" fill="#ffffff" fill-rule="evenodd" fill-opacity="1" /><path clip-path="url(#clip190)" d="M116.668 975.141 L124.306 975.141 L124.306 948.775 L115.996 950.442 L115.996 946.183 L124.26 944.516 L128.936 944.516 L128.936 975.141 L136.575 975.141 L136.575 979.076 L116.668 979.076 L116.668 975.141 Z" fill="#ffffff" fill-rule="evenodd" fill-opacity="1" /><path clip-path="url(#clip190)" d="M146.066 944.516 L164.422 944.516 L164.422 948.451 L150.348 948.451 L150.348 956.924 Q151.366 956.576 152.385 956.414 Q153.403 956.229 154.422 956.229 Q160.209 956.229 163.589 959.4 Q166.968 962.572 166.968 967.988 Q166.968 973.567 163.496 976.669 Q160.024 979.747 153.704 979.747 Q151.528 979.747 149.26 979.377 Q147.015 979.007 144.607 978.266 L144.607 973.567 Q146.691 974.701 148.913 975.257 Q151.135 975.812 153.612 975.812 Q157.616 975.812 159.954 973.706 Q162.292 971.599 162.292 967.988 Q162.292 964.377 159.954 962.271 Q157.616 960.164 153.612 960.164 Q151.737 960.164 149.862 960.581 Q148.01 960.998 146.066 961.877 L146.066 944.516 Z" fill="#ffffff" fill-rule="evenodd" fill-opacity="1" /><path clip-path="url(#clip190)" d="M186.181 947.595 Q182.57 947.595 180.741 951.16 Q178.936 954.701 178.936 961.831 Q178.936 968.937 180.741 972.502 Q182.57 976.044 186.181 976.044 Q189.815 976.044 191.621 972.502 Q193.45 968.937 193.45 961.831 Q193.45 954.701 191.621 951.16 Q189.815 947.595 186.181 947.595 M186.181 943.891 Q191.991 943.891 195.047 948.498 Q198.125 953.081 198.125 961.831 Q198.125 970.558 195.047 975.164 Q191.991 979.747 186.181 979.747 Q180.371 979.747 177.292 975.164 Q174.237 970.558 174.237 961.831 Q174.237 953.081 177.292 948.498 Q180.371 943.891 186.181 943.891 Z" fill="#ffffff" fill-rule="evenodd" fill-opacity="1" /><path clip-path="url(#clip190)" d="M119.885 758.509 L136.204 758.509 L136.204 762.444 L114.26 762.444 L114.26 758.509 Q116.922 755.754 121.505 751.124 Q126.112 746.472 127.292 745.129 Q129.538 742.606 130.417 740.87 Q131.32 739.111 131.32 737.421 Q131.32 734.666 129.376 732.93 Q127.455 731.194 124.353 731.194 Q122.154 731.194 119.7 731.958 Q117.269 732.722 114.492 734.273 L114.492 729.55 Q117.316 728.416 119.769 727.837 Q122.223 727.259 124.26 727.259 Q129.63 727.259 132.825 729.944 Q136.019 732.629 136.019 737.12 Q136.019 739.249 135.209 741.171 Q134.422 743.069 132.316 745.661 Q131.737 746.333 128.635 749.55 Q125.533 752.745 119.885 758.509 Z" fill="#ffffff" fill-rule="evenodd" fill-opacity="1" /><path clip-path="url(#clip190)" d="M156.019 730.962 Q152.408 730.962 150.579 734.527 Q148.774 738.069 148.774 745.198 Q148.774 752.305 150.579 755.87 Q152.408 759.411 156.019 759.411 Q159.653 759.411 161.459 755.87 Q163.288 752.305 163.288 745.198 Q163.288 738.069 161.459 734.527 Q159.653 730.962 156.019 730.962 M156.019 727.259 Q161.829 727.259 164.885 731.865 Q167.964 736.449 167.964 745.198 Q167.964 753.925 164.885 758.532 Q161.829 763.115 156.019 763.115 Q150.209 763.115 147.13 758.532 Q144.075 753.925 144.075 745.198 Q144.075 736.449 147.13 731.865 Q150.209 727.259 156.019 727.259 Z" fill="#ffffff" fill-rule="evenodd" fill-opacity="1" /><path clip-path="url(#clip190)" d="M186.181 730.962 Q182.57 730.962 180.741 734.527 Q178.936 738.069 178.936 745.198 Q178.936 752.305 180.741 755.87 Q182.57 759.411 186.181 759.411 Q189.815 759.411 191.621 755.87 Q193.45 752.305 193.45 745.198 Q193.45 738.069 191.621 734.527 Q189.815 730.962 186.181 730.962 M186.181 727.259 Q191.991 727.259 195.047 731.865 Q198.125 736.449 198.125 745.198 Q198.125 753.925 195.047 758.532 Q191.991 763.115 186.181 763.115 Q180.371 763.115 177.292 758.532 Q174.237 753.925 174.237 745.198 Q174.237 736.449 177.292 731.865 Q180.371 727.259 186.181 727.259 Z" fill="#ffffff" fill-rule="evenodd" fill-opacity="1" /><path clip-path="url(#clip190)" d="M119.885 541.876 L136.204 541.876 L136.204 545.811 L114.26 545.811 L114.26 541.876 Q116.922 539.122 121.505 534.492 Q126.112 529.839 127.292 528.497 Q129.538 525.974 130.417 524.237 Q131.32 522.478 131.32 520.788 Q131.32 518.034 129.376 516.298 Q127.455 514.562 124.353 514.562 Q122.154 514.562 119.7 515.325 Q117.269 516.089 114.492 517.64 L114.492 512.918 Q117.316 511.784 119.769 511.205 Q122.223 510.626 124.26 510.626 Q129.63 510.626 132.825 513.312 Q136.019 515.997 136.019 520.487 Q136.019 522.617 135.209 524.538 Q134.422 526.436 132.316 529.029 Q131.737 529.7 128.635 532.918 Q125.533 536.112 119.885 541.876 Z" fill="#ffffff" fill-rule="evenodd" fill-opacity="1" /><path clip-path="url(#clip190)" d="M146.066 511.251 L164.422 511.251 L164.422 515.187 L150.348 515.187 L150.348 523.659 Q151.366 523.311 152.385 523.149 Q153.403 522.964 154.422 522.964 Q160.209 522.964 163.589 526.136 Q166.968 529.307 166.968 534.723 Q166.968 540.302 163.496 543.404 Q160.024 546.483 153.704 546.483 Q151.528 546.483 149.26 546.112 Q147.015 545.742 144.607 545.001 L144.607 540.302 Q146.691 541.436 148.913 541.992 Q151.135 542.548 153.612 542.548 Q157.616 542.548 159.954 540.441 Q162.292 538.335 162.292 534.723 Q162.292 531.112 159.954 529.006 Q157.616 526.899 153.612 526.899 Q151.737 526.899 149.862 527.316 Q148.01 527.733 146.066 528.612 L146.066 511.251 Z" fill="#ffffff" fill-rule="evenodd" fill-opacity="1" /><path clip-path="url(#clip190)" d="M186.181 514.33 Q182.57 514.33 180.741 517.895 Q178.936 521.437 178.936 528.566 Q178.936 535.673 180.741 539.237 Q182.57 542.779 186.181 542.779 Q189.815 542.779 191.621 539.237 Q193.45 535.673 193.45 528.566 Q193.45 521.437 191.621 517.895 Q189.815 514.33 186.181 514.33 M186.181 510.626 Q191.991 510.626 195.047 515.233 Q198.125 519.816 198.125 528.566 Q198.125 537.293 195.047 541.899 Q191.991 546.483 186.181 546.483 Q180.371 546.483 177.292 541.899 Q174.237 537.293 174.237 528.566 Q174.237 519.816 177.292 515.233 Q180.371 510.626 186.181 510.626 Z" fill="#ffffff" fill-rule="evenodd" fill-opacity="1" /><path clip-path="url(#clip190)" d="M130.024 310.545 Q133.38 311.262 135.255 313.531 Q137.154 315.799 137.154 319.133 Q137.154 324.248 133.635 327.049 Q130.117 329.85 123.635 329.85 Q121.459 329.85 119.144 329.41 Q116.853 328.994 114.399 328.137 L114.399 323.623 Q116.343 324.758 118.658 325.336 Q120.973 325.915 123.496 325.915 Q127.894 325.915 130.186 324.179 Q132.501 322.443 132.501 319.133 Q132.501 316.077 130.348 314.364 Q128.218 312.628 124.399 312.628 L120.371 312.628 L120.371 308.786 L124.584 308.786 Q128.033 308.786 129.862 307.42 Q131.691 306.031 131.691 303.438 Q131.691 300.776 129.792 299.364 Q127.917 297.929 124.399 297.929 Q122.478 297.929 120.279 298.346 Q118.08 298.762 115.441 299.642 L115.441 295.475 Q118.103 294.735 120.418 294.364 Q122.755 293.994 124.816 293.994 Q130.14 293.994 133.242 296.425 Q136.343 298.832 136.343 302.952 Q136.343 305.823 134.7 307.813 Q133.056 309.781 130.024 310.545 Z" fill="#ffffff" fill-rule="evenodd" fill-opacity="1" /><path clip-path="url(#clip190)" d="M156.019 297.698 Q152.408 297.698 150.579 301.262 Q148.774 304.804 148.774 311.934 Q148.774 319.04 150.579 322.605 Q152.408 326.147 156.019 326.147 Q159.653 326.147 161.459 322.605 Q163.288 319.04 163.288 311.934 Q163.288 304.804 161.459 301.262 Q159.653 297.698 156.019 297.698 M156.019 293.994 Q161.829 293.994 164.885 298.6 Q167.964 303.184 167.964 311.934 Q167.964 320.661 164.885 325.267 Q161.829 329.85 156.019 329.85 Q150.209 329.85 147.13 325.267 Q144.075 320.661 144.075 311.934 Q144.075 303.184 147.13 298.6 Q150.209 293.994 156.019 293.994 Z" fill="#ffffff" fill-rule="evenodd" fill-opacity="1" /><path clip-path="url(#clip190)" d="M186.181 297.698 Q182.57 297.698 180.741 301.262 Q178.936 304.804 178.936 311.934 Q178.936 319.04 180.741 322.605 Q182.57 326.147 186.181 326.147 Q189.815 326.147 191.621 322.605 Q193.45 319.04 193.45 311.934 Q193.45 304.804 191.621 301.262 Q189.815 297.698 186.181 297.698 M186.181 293.994 Q191.991 293.994 195.047 298.6 Q198.125 303.184 198.125 311.934 Q198.125 320.661 195.047 325.267 Q191.991 329.85 186.181 329.85 Q180.371 329.85 177.292 325.267 Q174.237 320.661 174.237 311.934 Q174.237 303.184 177.292 298.6 Q180.371 293.994 186.181 293.994 Z" fill="#ffffff" fill-rule="evenodd" fill-opacity="1" /><path clip-path="url(#clip190)" d="M16.4842 813.175 L16.4842 806.746 L35.9632 806.746 L35.9632 783.384 L16.4842 783.384 L16.4842 776.954 L64.0042 776.954 L64.0042 783.384 L41.3741 783.384 L41.3741 806.746 L64.0042 806.746 L64.0042 813.175 L16.4842 813.175 Z" fill="#ffffff" fill-rule="evenodd" fill-opacity="1" /><path clip-path="url(#clip190)" d="M21.7677 757.73 L39.6235 757.73 L39.6235 749.646 Q39.6235 745.158 37.3 742.707 Q34.9765 740.256 30.6797 740.256 Q26.4147 740.256 24.0912 742.707 Q21.7677 745.158 21.7677 749.646 L21.7677 757.73 M16.4842 764.159 L16.4842 749.646 Q16.4842 741.657 20.1126 737.583 Q23.7092 733.477 30.6797 733.477 Q37.7138 733.477 41.3104 737.583 Q44.907 741.657 44.907 749.646 L44.907 757.73 L64.0042 757.73 L64.0042 764.159 L16.4842 764.159 Z" fill="#ffffff" fill-rule="evenodd" fill-opacity="1" /><path clip-path="url(#clip190)" d="M538.372 12.096 L546.555 12.096 L546.555 36.8875 L576.289 36.8875 L576.289 12.096 L584.472 12.096 L584.472 72.576 L576.289 72.576 L576.289 43.7741 L546.555 43.7741 L546.555 72.576 L538.372 72.576 L538.372 12.096 Z" fill="#ffffff" fill-rule="evenodd" fill-opacity="1" /><path clip-path="url(#clip190)" d="M618.013 32.4315 Q612.018 32.4315 608.534 37.1306 Q605.05 41.7891 605.05 49.9314 Q605.05 58.0738 608.494 62.7728 Q611.977 67.4314 618.013 67.4314 Q623.968 67.4314 627.452 62.7323 Q630.936 58.0333 630.936 49.9314 Q630.936 41.8701 627.452 37.1711 Q623.968 32.4315 618.013 32.4315 M618.013 26.1121 Q627.735 26.1121 633.285 32.4315 Q638.835 38.7509 638.835 49.9314 Q638.835 61.0714 633.285 67.4314 Q627.735 73.7508 618.013 73.7508 Q608.25 73.7508 602.701 67.4314 Q597.192 61.0714 597.192 49.9314 Q597.192 38.7509 602.701 32.4315 Q608.25 26.1121 618.013 26.1121 Z" fill="#ffffff" fill-rule="evenodd" fill-opacity="1" /><path clip-path="url(#clip190)" d="M677.48 34.1734 Q676.225 33.4443 674.726 33.1202 Q673.267 32.7556 671.485 32.7556 Q665.166 32.7556 661.763 36.8875 Q658.401 40.9789 658.401 48.6757 L658.401 72.576 L650.907 72.576 L650.907 27.2059 L658.401 27.2059 L658.401 34.2544 Q660.75 30.1225 664.518 28.1376 Q668.285 26.1121 673.673 26.1121 Q674.442 26.1121 675.374 26.2337 Q676.306 26.3147 677.44 26.5172 L677.48 34.1734 Z" fill="#ffffff" fill-rule="evenodd" fill-opacity="1" /><path clip-path="url(#clip190)" d="M714.222 28.5427 L714.222 35.5912 Q711.062 33.9709 707.66 33.1607 Q704.257 32.3505 700.611 32.3505 Q695.061 32.3505 692.266 34.0519 Q689.512 35.7533 689.512 39.156 Q689.512 41.7486 691.497 43.2475 Q693.482 44.7058 699.477 46.0426 L702.029 46.6097 Q709.969 48.3111 713.29 51.4303 Q716.653 54.509 716.653 60.0587 Q716.653 66.3781 711.63 70.0644 Q706.647 73.7508 697.897 73.7508 Q694.251 73.7508 690.281 73.0216 Q686.352 72.3329 681.977 70.9151 L681.977 63.2184 Q686.109 65.3654 690.119 66.4591 Q694.13 67.5124 698.059 67.5124 Q703.325 67.5124 706.161 65.73 Q708.996 63.9071 708.996 60.6258 Q708.996 57.5877 706.931 55.9673 Q704.905 54.3469 697.978 52.8481 L695.385 52.2405 Q688.458 50.7821 685.38 47.7845 Q682.301 44.7463 682.301 39.4801 Q682.301 33.0797 686.838 29.5959 Q691.375 26.1121 699.72 26.1121 Q703.852 26.1121 707.498 26.7198 Q711.143 27.3274 714.222 28.5427 Z" fill="#ffffff" fill-rule="evenodd" fill-opacity="1" /><path clip-path="url(#clip190)" d="M767.329 48.0275 L767.329 51.6733 L733.059 51.6733 Q733.545 59.3701 737.677 63.421 Q741.849 67.4314 749.262 67.4314 Q753.556 67.4314 757.567 66.3781 Q761.618 65.3249 765.588 63.2184 L765.588 70.267 Q761.577 71.9684 757.364 72.8596 Q753.151 73.7508 748.817 73.7508 Q737.96 73.7508 731.601 67.4314 Q725.281 61.1119 725.281 50.3365 Q725.281 39.1965 731.276 32.6746 Q737.312 26.1121 747.521 26.1121 Q756.676 26.1121 761.982 32.0264 Q767.329 37.9003 767.329 48.0275 M759.876 45.84 Q759.795 39.7232 756.433 36.0774 Q753.111 32.4315 747.602 32.4315 Q741.363 32.4315 737.596 35.9558 Q733.869 39.4801 733.302 45.8805 L759.876 45.84 Z" fill="#ffffff" fill-rule="evenodd" fill-opacity="1" /><path clip-path="url(#clip190)" d="M786.774 65.7705 L786.774 89.8329 L779.28 89.8329 L779.28 27.2059 L786.774 27.2059 L786.774 34.0924 Q789.123 30.0415 792.688 28.0971 Q796.293 26.1121 801.276 26.1121 Q809.54 26.1121 814.685 32.6746 Q819.87 39.2371 819.87 49.9314 Q819.87 60.6258 814.685 67.1883 Q809.54 73.7508 801.276 73.7508 Q796.293 73.7508 792.688 71.8063 Q789.123 69.8214 786.774 65.7705 M812.132 49.9314 Q812.132 41.7081 808.73 37.0496 Q805.367 32.3505 799.453 32.3505 Q793.539 32.3505 790.136 37.0496 Q786.774 41.7081 786.774 49.9314 Q786.774 58.1548 790.136 62.8538 Q793.539 67.5124 799.453 67.5124 Q805.367 67.5124 808.73 62.8538 Q812.132 58.1548 812.132 49.9314 Z" fill="#ffffff" fill-rule="evenodd" fill-opacity="1" /><path clip-path="url(#clip190)" d="M849.806 32.4315 Q843.811 32.4315 840.327 37.1306 Q836.843 41.7891 836.843 49.9314 Q836.843 58.0738 840.286 62.7728 Q843.77 67.4314 849.806 67.4314 Q855.761 67.4314 859.245 62.7323 Q862.728 58.0333 862.728 49.9314 Q862.728 41.8701 859.245 37.1711 Q855.761 32.4315 849.806 32.4315 M849.806 26.1121 Q859.528 26.1121 865.078 32.4315 Q870.628 38.7509 870.628 49.9314 Q870.628 61.0714 865.078 67.4314 Q859.528 73.7508 849.806 73.7508 Q840.043 73.7508 834.493 67.4314 Q828.984 61.0714 828.984 49.9314 Q828.984 38.7509 834.493 32.4315 Q840.043 26.1121 849.806 26.1121 Z" fill="#ffffff" fill-rule="evenodd" fill-opacity="1" /><path clip-path="url(#clip190)" d="M878.648 27.2059 L886.102 27.2059 L895.419 62.6108 L904.696 27.2059 L913.486 27.2059 L922.803 62.6108 L932.08 27.2059 L939.533 27.2059 L927.664 72.576 L918.874 72.576 L909.111 35.3887 L899.308 72.576 L890.517 72.576 L878.648 27.2059 Z" fill="#ffffff" fill-rule="evenodd" fill-opacity="1" /><path clip-path="url(#clip190)" d="M989.643 48.0275 L989.643 51.6733 L955.372 51.6733 Q955.859 59.3701 959.99 63.421 Q964.163 67.4314 971.576 67.4314 Q975.87 67.4314 979.88 66.3781 Q983.931 65.3249 987.901 63.2184 L987.901 70.267 Q983.891 71.9684 979.678 72.8596 Q975.465 73.7508 971.13 73.7508 Q960.274 73.7508 953.914 67.4314 Q947.595 61.1119 947.595 50.3365 Q947.595 39.1965 953.59 32.6746 Q959.626 26.1121 969.834 26.1121 Q978.989 26.1121 984.296 32.0264 Q989.643 37.9003 989.643 48.0275 M982.189 45.84 Q982.108 39.7232 978.746 36.0774 Q975.424 32.4315 969.915 32.4315 Q963.677 32.4315 959.909 35.9558 Q956.183 39.4801 955.616 45.8805 L982.189 45.84 Z" fill="#ffffff" fill-rule="evenodd" fill-opacity="1" /><path clip-path="url(#clip190)" d="M1028.17 34.1734 Q1026.91 33.4443 1025.41 33.1202 Q1023.95 32.7556 1022.17 32.7556 Q1015.85 32.7556 1012.45 36.8875 Q1009.09 40.9789 1009.09 48.6757 L1009.09 72.576 L1001.59 72.576 L1001.59 27.2059 L1009.09 27.2059 L1009.09 34.2544 Q1011.44 30.1225 1015.2 28.1376 Q1018.97 26.1121 1024.36 26.1121 Q1025.13 26.1121 1026.06 26.2337 Q1026.99 26.3147 1028.13 26.5172 L1028.17 34.1734 Z" fill="#ffffff" fill-rule="evenodd" fill-opacity="1" /><path clip-path="url(#clip190)" d="M1094.93 49.9314 Q1094.93 41.7081 1091.52 37.0496 Q1088.16 32.3505 1082.25 32.3505 Q1076.33 32.3505 1072.93 37.0496 Q1069.57 41.7081 1069.57 49.9314 Q1069.57 58.1548 1072.93 62.8538 Q1076.33 67.5124 1082.25 67.5124 Q1088.16 67.5124 1091.52 62.8538 Q1094.93 58.1548 1094.93 49.9314 M1069.57 34.0924 Q1071.92 30.0415 1075.48 28.0971 Q1079.09 26.1121 1084.07 26.1121 Q1092.33 26.1121 1097.48 32.6746 Q1102.66 39.2371 1102.66 49.9314 Q1102.66 60.6258 1097.48 67.1883 Q1092.33 73.7508 1084.07 73.7508 Q1079.09 73.7508 1075.48 71.8063 Q1071.92 69.8214 1069.57 65.7705 L1069.57 72.576 L1062.07 72.576 L1062.07 9.54393 L1069.57 9.54393 L1069.57 34.0924 Z" fill="#ffffff" fill-rule="evenodd" fill-opacity="1" /><path clip-path="url(#clip190)" d="M1133.9 76.7889 Q1130.74 84.8907 1127.74 87.3618 Q1124.74 89.8329 1119.72 89.8329 L1113.76 89.8329 L1113.76 83.5945 L1118.14 83.5945 Q1121.22 83.5945 1122.92 82.1361 Q1124.62 80.6778 1126.69 75.2496 L1128.02 71.8468 L1109.67 27.2059 L1117.57 27.2059 L1131.75 62.6918 L1145.93 27.2059 L1153.83 27.2059 L1133.9 76.7889 Z" fill="#ffffff" fill-rule="evenodd" fill-opacity="1" /><path clip-path="url(#clip190)" d="M1190.81 12.096 L1203 12.096 L1218.44 53.2532 L1233.95 12.096 L1246.15 12.096 L1246.15 72.576 L1238.17 72.576 L1238.17 19.4686 L1222.57 60.9499 L1214.35 60.9499 L1198.75 19.4686 L1198.75 72.576 L1190.81 72.576 L1190.81 12.096 Z" fill="#ffffff" fill-rule="evenodd" fill-opacity="1" /><path clip-path="url(#clip190)" d="M1270.57 18.8205 L1270.57 41.5461 L1280.86 41.5461 Q1286.57 41.5461 1289.69 38.5889 Q1292.81 35.6318 1292.81 30.163 Q1292.81 24.7348 1289.69 21.7777 Q1286.57 18.8205 1280.86 18.8205 L1270.57 18.8205 M1262.39 12.096 L1280.86 12.096 Q1291.03 12.096 1296.22 16.714 Q1301.44 21.2916 1301.44 30.163 Q1301.44 39.1155 1296.22 43.6931 Q1291.03 48.2706 1280.86 48.2706 L1270.57 48.2706 L1270.57 72.576 L1262.39 72.576 L1262.39 12.096 Z" fill="#ffffff" fill-rule="evenodd" fill-opacity="1" /><path clip-path="url(#clip190)" d="M1353.66 63.9476 L1353.66 47.7034 L1340.29 47.7034 L1340.29 40.9789 L1361.76 40.9789 L1361.76 66.9452 Q1357.02 70.3075 1351.31 72.0494 Q1345.6 73.7508 1339.11 73.7508 Q1324.94 73.7508 1316.92 65.4869 Q1308.94 57.1826 1308.94 42.3968 Q1308.94 27.5705 1316.92 19.3066 Q1324.94 11.0023 1339.11 11.0023 Q1345.03 11.0023 1350.34 12.4606 Q1355.68 13.9189 1360.18 16.7545 L1360.18 25.464 Q1355.64 21.6156 1350.54 19.6712 Q1345.43 17.7268 1339.8 17.7268 Q1328.7 17.7268 1323.11 23.9246 Q1317.56 30.1225 1317.56 42.3968 Q1317.56 54.6305 1323.11 60.8284 Q1328.7 67.0263 1339.8 67.0263 Q1344.14 67.0263 1347.54 66.2971 Q1350.94 65.5274 1353.66 63.9476 Z" fill="#ffffff" fill-rule="evenodd" fill-opacity="1" /><path clip-path="url(#clip190)" d="M1423.37 49.7694 Q1414.34 49.7694 1410.86 51.8354 Q1407.37 53.9013 1407.37 58.8839 Q1407.37 62.8538 1409.96 65.2034 Q1412.6 67.5124 1417.09 67.5124 Q1423.29 67.5124 1427.02 63.1374 Q1430.79 58.7219 1430.79 51.4303 L1430.79 49.7694 L1423.37 49.7694 M1438.24 46.6907 L1438.24 72.576 L1430.79 72.576 L1430.79 65.6895 Q1428.23 69.8214 1424.43 71.8063 Q1420.62 73.7508 1415.11 73.7508 Q1408.14 73.7508 1404.01 69.8619 Q1399.92 65.9325 1399.92 59.3701 Q1399.92 51.7138 1405.02 47.825 Q1410.17 43.9361 1420.34 43.9361 L1430.79 43.9361 L1430.79 43.2069 Q1430.79 38.0623 1427.38 35.2672 Q1424.02 32.4315 1417.9 32.4315 Q1414.02 32.4315 1410.33 33.3632 Q1406.64 34.295 1403.24 36.1584 L1403.24 29.2718 Q1407.33 27.692 1411.18 26.9223 Q1415.03 26.1121 1418.67 26.1121 Q1428.52 26.1121 1433.38 31.2163 Q1438.24 36.3204 1438.24 46.6907 Z" fill="#ffffff" fill-rule="evenodd" fill-opacity="1" /><path clip-path="url(#clip190)" d="M1491.31 45.1919 L1491.31 72.576 L1483.85 72.576 L1483.85 45.4349 Q1483.85 38.994 1481.34 35.7938 Q1478.83 32.5936 1473.81 32.5936 Q1467.77 32.5936 1464.29 36.4419 Q1460.8 40.2903 1460.8 46.9338 L1460.8 72.576 L1453.31 72.576 L1453.31 27.2059 L1460.8 27.2059 L1460.8 34.2544 Q1463.48 30.163 1467.08 28.1376 Q1470.73 26.1121 1475.47 26.1121 Q1483.29 26.1121 1487.3 30.9732 Q1491.31 35.7938 1491.31 45.1919 Z" fill="#ffffff" fill-rule="evenodd" fill-opacity="1" /><path clip-path="url(#clip190)" d="M1536.03 34.0924 L1536.03 9.54393 L1543.48 9.54393 L1543.48 72.576 L1536.03 72.576 L1536.03 65.7705 Q1533.68 69.8214 1530.07 71.8063 Q1526.51 73.7508 1521.49 73.7508 Q1513.26 73.7508 1508.08 67.1883 Q1502.93 60.6258 1502.93 49.9314 Q1502.93 39.2371 1508.08 32.6746 Q1513.26 26.1121 1521.49 26.1121 Q1526.51 26.1121 1530.07 28.0971 Q1533.68 30.0415 1536.03 34.0924 M1510.63 49.9314 Q1510.63 58.1548 1513.99 62.8538 Q1517.39 67.5124 1523.31 67.5124 Q1529.22 67.5124 1532.63 62.8538 Q1536.03 58.1548 1536.03 49.9314 Q1536.03 41.7081 1532.63 37.0496 Q1529.22 32.3505 1523.31 32.3505 Q1517.39 32.3505 1513.99 37.0496 Q1510.63 41.7081 1510.63 49.9314 Z" fill="#ffffff" fill-rule="evenodd" fill-opacity="1" /><path clip-path="url(#clip190)" d="M1585.53 12.096 L1596.55 12.096 L1623.37 62.6918 L1623.37 12.096 L1631.31 12.096 L1631.31 72.576 L1620.29 72.576 L1593.47 21.9802 L1593.47 72.576 L1585.53 72.576 L1585.53 12.096 Z" fill="#ffffff" fill-rule="evenodd" fill-opacity="1" /><path clip-path="url(#clip190)" d="M1719.25 16.7545 L1719.25 25.383 Q1715.12 21.5346 1710.42 19.6307 Q1705.76 17.7268 1700.5 17.7268 Q1690.13 17.7268 1684.62 24.0867 Q1679.11 30.4061 1679.11 42.3968 Q1679.11 54.3469 1684.62 60.7069 Q1690.13 67.0263 1700.5 67.0263 Q1705.76 67.0263 1710.42 65.1223 Q1715.12 63.2184 1719.25 59.3701 L1719.25 67.9175 Q1714.96 70.8341 1710.14 72.2924 Q1705.36 73.7508 1700.01 73.7508 Q1686.28 73.7508 1678.38 65.3654 Q1670.48 56.9395 1670.48 42.3968 Q1670.48 27.8135 1678.38 19.4281 Q1686.28 11.0023 1700.01 11.0023 Q1705.44 11.0023 1710.22 12.4606 Q1715.04 13.8784 1719.25 16.7545 Z" fill="#ffffff" fill-rule="evenodd" fill-opacity="1" /><path clip-path="url(#clip190)" d="M1750.44 76.7889 Q1747.28 84.8907 1744.29 87.3618 Q1741.29 89.8329 1736.27 89.8329 L1730.31 89.8329 L1730.31 83.5945 L1734.69 83.5945 Q1737.76 83.5945 1739.47 82.1361 Q1741.17 80.6778 1743.23 75.2496 L1744.57 71.8468 L1726.22 27.2059 L1734.12 27.2059 L1748.3 62.6918 L1762.47 27.2059 L1770.37 27.2059 L1750.44 76.7889 Z" fill="#ffffff" fill-rule="evenodd" fill-opacity="1" /><path clip-path="url(#clip190)" d="M1780.66 9.54393 L1788.12 9.54393 L1788.12 72.576 L1780.66 72.576 L1780.66 9.54393 Z" fill="#ffffff" fill-rule="evenodd" fill-opacity="1" /><path clip-path="url(#clip190)" d="M1803.71 27.2059 L1811.17 27.2059 L1811.17 72.576 L1803.71 72.576 L1803.71 27.2059 M1803.71 9.54393 L1811.17 9.54393 L1811.17 18.9825 L1803.71 18.9825 L1803.71 9.54393 Z" fill="#ffffff" fill-rule="evenodd" fill-opacity="1" /><path clip-path="url(#clip190)" d="M1864.48 45.1919 L1864.48 72.576 L1857.02 72.576 L1857.02 45.4349 Q1857.02 38.994 1854.51 35.7938 Q1852 32.5936 1846.98 32.5936 Q1840.94 32.5936 1837.46 36.4419 Q1833.97 40.2903 1833.97 46.9338 L1833.97 72.576 L1826.48 72.576 L1826.48 27.2059 L1833.97 27.2059 L1833.97 34.2544 Q1836.65 30.163 1840.25 28.1376 Q1843.9 26.1121 1848.64 26.1121 Q1856.46 26.1121 1860.47 30.9732 Q1864.48 35.7938 1864.48 45.1919 Z" fill="#ffffff" fill-rule="evenodd" fill-opacity="1" /><path clip-path="url(#clip190)" d="M1909.2 34.0924 L1909.2 9.54393 L1916.65 9.54393 L1916.65 72.576 L1909.2 72.576 L1909.2 65.7705 Q1906.85 69.8214 1903.24 71.8063 Q1899.68 73.7508 1894.66 73.7508 Q1886.43 73.7508 1881.25 67.1883 Q1876.1 60.6258 1876.1 49.9314 Q1876.1 39.2371 1881.25 32.6746 Q1886.43 26.1121 1894.66 26.1121 Q1899.68 26.1121 1903.24 28.0971 Q1906.85 30.0415 1909.2 34.0924 M1883.8 49.9314 Q1883.8 58.1548 1887.16 62.8538 Q1890.56 67.5124 1896.48 67.5124 Q1902.39 67.5124 1905.8 62.8538 Q1909.2 58.1548 1909.2 49.9314 Q1909.2 41.7081 1905.8 37.0496 Q1902.39 32.3505 1896.48 32.3505 Q1890.56 32.3505 1887.16 37.0496 Q1883.8 41.7081 1883.8 49.9314 Z" fill="#ffffff" fill-rule="evenodd" fill-opacity="1" /><path clip-path="url(#clip190)" d="M1970.81 48.0275 L1970.81 51.6733 L1936.54 51.6733 Q1937.03 59.3701 1941.16 63.421 Q1945.33 67.4314 1952.75 67.4314 Q1957.04 67.4314 1961.05 66.3781 Q1965.1 65.3249 1969.07 63.2184 L1969.07 70.267 Q1965.06 71.9684 1960.85 72.8596 Q1956.63 73.7508 1952.3 73.7508 Q1941.44 73.7508 1935.08 67.4314 Q1928.76 61.1119 1928.76 50.3365 Q1928.76 39.1965 1934.76 32.6746 Q1940.8 26.1121 1951 26.1121 Q1960.16 26.1121 1965.47 32.0264 Q1970.81 37.9003 1970.81 48.0275 M1963.36 45.84 Q1963.28 39.7232 1959.92 36.0774 Q1956.59 32.4315 1951.08 32.4315 Q1944.85 32.4315 1941.08 35.9558 Q1937.35 39.4801 1936.79 45.8805 L1963.36 45.84 Z" fill="#ffffff" fill-rule="evenodd" fill-opacity="1" /><path clip-path="url(#clip190)" d="M2009.34 34.1734 Q2008.08 33.4443 2006.58 33.1202 Q2005.12 32.7556 2003.34 32.7556 Q1997.02 32.7556 1993.62 36.8875 Q1990.26 40.9789 1990.26 48.6757 L1990.26 72.576 L1982.76 72.576 L1982.76 27.2059 L1990.26 27.2059 L1990.26 34.2544 Q1992.61 30.1225 1996.37 28.1376 Q2000.14 26.1121 2005.53 26.1121 Q2006.3 26.1121 2007.23 26.2337 Q2008.16 26.3147 2009.3 26.5172 L2009.34 34.1734 Z" fill="#ffffff" fill-rule="evenodd" fill-opacity="1" /><path clip-path="url(#clip190)" d="M2046.08 28.5427 L2046.08 35.5912 Q2042.92 33.9709 2039.52 33.1607 Q2036.11 32.3505 2032.47 32.3505 Q2026.92 32.3505 2024.12 34.0519 Q2021.37 35.7533 2021.37 39.156 Q2021.37 41.7486 2023.35 43.2475 Q2025.34 44.7058 2031.33 46.0426 L2033.89 46.6097 Q2041.82 48.3111 2045.15 51.4303 Q2048.51 54.509 2048.51 60.0587 Q2048.51 66.3781 2043.49 70.0644 Q2038.5 73.7508 2029.75 73.7508 Q2026.11 73.7508 2022.14 73.0216 Q2018.21 72.3329 2013.83 70.9151 L2013.83 63.2184 Q2017.97 65.3654 2021.98 66.4591 Q2025.99 67.5124 2029.92 67.5124 Q2035.18 67.5124 2038.02 65.73 Q2040.85 63.9071 2040.85 60.6258 Q2040.85 57.5877 2038.79 55.9673 Q2036.76 54.3469 2029.83 52.8481 L2027.24 52.2405 Q2020.31 50.7821 2017.24 47.7845 Q2014.16 44.7463 2014.16 39.4801 Q2014.16 33.0797 2018.69 29.5959 Q2023.23 26.1121 2031.58 26.1121 Q2035.71 26.1121 2039.35 26.7198 Q2043 27.3274 2046.08 28.5427 Z" fill="#ffffff" fill-rule="evenodd" fill-opacity="1" /><circle clip-path="url(#clip192)" cx="1348.72" cy="1208.76" r="28.8" fill="#009af9" fill-rule="evenodd" fill-opacity="1" stroke="#ffffff" stroke-opacity="1" stroke-width="3.2"/>
<circle clip-path="url(#clip192)" cx="1484.81" cy="1343.07" r="28.8" fill="#009af9" fill-rule="evenodd" fill-opacity="1" stroke="#ffffff" stroke-opacity="1" stroke-width="3.2"/>
<circle clip-path="url(#clip192)" cx="1348.72" cy="1200.09" r="28.8" fill="#009af9" fill-rule="evenodd" fill-opacity="1" stroke="#ffffff" stroke-opacity="1" stroke-width="3.2"/>
<circle clip-path="url(#clip192)" cx="2165.22" cy="1325.74" r="28.8" fill="#009af9" fill-rule="evenodd" fill-opacity="1" stroke="#ffffff" stroke-opacity="1" stroke-width="3.2"/>
<circle clip-path="url(#clip192)" cx="1995.11" cy="1386.4" r="28.8" fill="#009af9" fill-rule="evenodd" fill-opacity="1" stroke="#ffffff" stroke-opacity="1" stroke-width="3.2"/>
<circle clip-path="url(#clip192)" cx="2292.79" cy="1330.07" r="28.8" fill="#009af9" fill-rule="evenodd" fill-opacity="1" stroke="#ffffff" stroke-opacity="1" stroke-width="3.2"/>
<circle clip-path="url(#clip192)" cx="1238.16" cy="1191.43" r="28.8" fill="#009af9" fill-rule="evenodd" fill-opacity="1" stroke="#ffffff" stroke-opacity="1" stroke-width="3.2"/>
<circle clip-path="url(#clip192)" cx="1731.46" cy="1325.74" r="28.8" fill="#009af9" fill-rule="evenodd" fill-opacity="1" stroke="#ffffff" stroke-opacity="1" stroke-width="3.2"/>
<circle clip-path="url(#clip192)" cx="1620.89" cy="1217.42" r="28.8" fill="#009af9" fill-rule="evenodd" fill-opacity="1" stroke="#ffffff" stroke-opacity="1" stroke-width="3.2"/>
<circle clip-path="url(#clip192)" cx="1995.11" cy="1122.1" r="28.8" fill="#009af9" fill-rule="evenodd" fill-opacity="1" stroke="#ffffff" stroke-opacity="1" stroke-width="3.2"/>
<circle clip-path="url(#clip192)" cx="1229.65" cy="1139.43" r="28.8" fill="#009af9" fill-rule="evenodd" fill-opacity="1" stroke="#ffffff" stroke-opacity="1" stroke-width="3.2"/>
<circle clip-path="url(#clip192)" cx="1195.63" cy="1135.1" r="28.8" fill="#e26f46" fill-rule="evenodd" fill-opacity="1" stroke="#ffffff" stroke-opacity="1" stroke-width="3.2"/>
<circle clip-path="url(#clip192)" cx="1195.63" cy="1135.1" r="28.8" fill="#e26f46" fill-rule="evenodd" fill-opacity="1" stroke="#ffffff" stroke-opacity="1" stroke-width="3.2"/>
<circle clip-path="url(#clip192)" cx="1229.65" cy="1135.1" r="28.8" fill="#e26f46" fill-rule="evenodd" fill-opacity="1" stroke="#ffffff" stroke-opacity="1" stroke-width="3.2"/>
<circle clip-path="url(#clip192)" cx="948.982" cy="1156.77" r="28.8" fill="#e26f46" fill-rule="evenodd" fill-opacity="1" stroke="#ffffff" stroke-opacity="1" stroke-width="3.2"/>
<circle clip-path="url(#clip192)" cx="1042.54" cy="1078.78" r="28.8" fill="#e26f46" fill-rule="evenodd" fill-opacity="1" stroke="#ffffff" stroke-opacity="1" stroke-width="3.2"/>
<circle clip-path="url(#clip192)" cx="923.467" cy="1078.78" r="28.8" fill="#e26f46" fill-rule="evenodd" fill-opacity="1" stroke="#ffffff" stroke-opacity="1" stroke-width="3.2"/>
<circle clip-path="url(#clip192)" cx="1085.06" cy="853.48" r="28.8" fill="#e26f46" fill-rule="evenodd" fill-opacity="1" stroke="#ffffff" stroke-opacity="1" stroke-width="3.2"/>
<circle clip-path="url(#clip192)" cx="1000.01" cy="853.48" r="28.8" fill="#3da44d" fill-rule="evenodd" fill-opacity="1" stroke="#ffffff" stroke-opacity="1" stroke-width="3.2"/>
<circle clip-path="url(#clip192)" cx="625.787" cy="550.195" r="28.8" fill="#3da44d" fill-rule="evenodd" fill-opacity="1" stroke="#ffffff" stroke-opacity="1" stroke-width="3.2"/>
<circle clip-path="url(#clip192)" cx="804.395" cy="831.817" r="28.8" fill="#3da44d" fill-rule="evenodd" fill-opacity="1" stroke="#ffffff" stroke-opacity="1" stroke-width="3.2"/>
<circle clip-path="url(#clip192)" cx="880.941" cy="831.817" r="28.8" fill="#3da44d" fill-rule="evenodd" fill-opacity="1" stroke="#ffffff" stroke-opacity="1" stroke-width="3.2"/>
<circle clip-path="url(#clip192)" cx="702.333" cy="831.817" r="28.8" fill="#3da44d" fill-rule="evenodd" fill-opacity="1" stroke="#ffffff" stroke-opacity="1" stroke-width="3.2"/>
<circle clip-path="url(#clip192)" cx="294.087" cy="723.501" r="28.8" fill="#3da44d" fill-rule="evenodd" fill-opacity="1" stroke="#ffffff" stroke-opacity="1" stroke-width="3.2"/>
<circle clip-path="url(#clip192)" cx="294.087" cy="680.174" r="28.8" fill="#3da44d" fill-rule="evenodd" fill-opacity="1" stroke="#ffffff" stroke-opacity="1" stroke-width="3.2"/>
<circle clip-path="url(#clip192)" cx="659.808" cy="615.184" r="28.8" fill="#3da44d" fill-rule="evenodd" fill-opacity="1" stroke="#ffffff" stroke-opacity="1" stroke-width="3.2"/>
<circle clip-path="url(#clip192)" cx="727.849" cy="961.796" r="28.8" fill="#3da44d" fill-rule="evenodd" fill-opacity="1" stroke="#ffffff" stroke-opacity="1" stroke-width="3.2"/>
<circle clip-path="url(#clip192)" cx="702.333" cy="961.796" r="28.8" fill="#3da44d" fill-rule="evenodd" fill-opacity="1" stroke="#ffffff" stroke-opacity="1" stroke-width="3.2"/>
<circle clip-path="url(#clip192)" cx="540.736" cy="550.195" r="28.8" fill="#3da44d" fill-rule="evenodd" fill-opacity="1" stroke="#ffffff" stroke-opacity="1" stroke-width="3.2"/>
<circle clip-path="url(#clip192)" cx="1042.54" cy="853.48" r="28.8" fill="#3da44d" fill-rule="evenodd" fill-opacity="1" stroke="#ffffff" stroke-opacity="1" stroke-width="3.2"/>
<circle clip-path="url(#clip192)" cx="753.364" cy="467.874" r="28.8" fill="#3da44d" fill-rule="evenodd" fill-opacity="1" stroke="#ffffff" stroke-opacity="1" stroke-width="3.2"/>
<circle clip-path="url(#clip192)" cx="685.323" cy="160.256" r="28.8" fill="#3da44d" fill-rule="evenodd" fill-opacity="1" stroke="#ffffff" stroke-opacity="1" stroke-width="3.2"/>
<path clip-path="url(#clip190)" d="
M1682.96 523.196 L2282.13 523.196 L2282.13 166.796 L1682.96 166.796  Z
  " fill="#000000" fill-rule="evenodd" fill-opacity="1"/>
<polyline clip-path="url(#clip190)" style="stroke:#ffffff; stroke-linecap:butt; stroke-linejoin:round; stroke-width:4; stroke-opacity:1; fill:none" points="
  1682.96,523.196 2282.13,523.196 2282.13,166.796 1682.96,166.796 1682.96,523.196 
  "/>
<path clip-path="url(#clip190)" d="M1799.29 214.316 L1807.94 214.316 L1829.01 254.07 L1829.01 214.316 L1835.25 214.316 L1835.25 261.836 L1826.59 261.836 L1805.52 222.082 L1805.52 261.836 L1799.29 261.836 L1799.29 214.316 Z" fill="#ffffff" fill-rule="evenodd" fill-opacity="1" /><path clip-path="url(#clip190)" d="M1904.35 217.976 L1904.35 224.755 Q1901.11 221.732 1897.41 220.236 Q1893.75 218.74 1889.62 218.74 Q1881.47 218.74 1877.14 223.737 Q1872.81 228.702 1872.81 238.123 Q1872.81 247.513 1877.14 252.51 Q1881.47 257.475 1889.62 257.475 Q1893.75 257.475 1897.41 255.979 Q1901.11 254.483 1904.35 251.46 L1904.35 258.175 Q1900.98 260.467 1897.19 261.613 Q1893.43 262.759 1889.23 262.759 Q1878.44 262.759 1872.24 256.17 Q1866.03 249.55 1866.03 238.123 Q1866.03 226.665 1872.24 220.077 Q1878.44 213.456 1889.23 213.456 Q1893.5 213.456 1897.25 214.602 Q1901.04 215.716 1904.35 217.976 Z" fill="#ffffff" fill-rule="evenodd" fill-opacity="1" /><path clip-path="url(#clip190)" d="M1928.86 265.146 Q1926.38 271.512 1924.02 273.453 Q1921.67 275.395 1917.72 275.395 L1913.04 275.395 L1913.04 270.493 L1916.48 270.493 Q1918.9 270.493 1920.23 269.347 Q1921.57 268.201 1923.19 263.936 L1924.24 261.263 L1909.83 226.188 L1916.03 226.188 L1927.17 254.07 L1938.31 226.188 L1944.52 226.188 L1928.86 265.146 Z" fill="#ffffff" fill-rule="evenodd" fill-opacity="1" /><path clip-path="url(#clip190)" d="M1952.6 212.311 L1958.46 212.311 L1958.46 261.836 L1952.6 261.836 L1952.6 212.311 Z" fill="#ffffff" fill-rule="evenodd" fill-opacity="1" /><path clip-path="url(#clip190)" d="M1970.71 226.188 L1976.57 226.188 L1976.57 261.836 L1970.71 261.836 L1970.71 226.188 M1970.71 212.311 L1976.57 212.311 L1976.57 219.727 L1970.71 219.727 L1970.71 212.311 Z" fill="#ffffff" fill-rule="evenodd" fill-opacity="1" /><path clip-path="url(#clip190)" d="M2018.46 240.32 L2018.46 261.836 L2012.6 261.836 L2012.6 240.511 Q2012.6 235.45 2010.63 232.935 Q2008.65 230.421 2004.71 230.421 Q1999.96 230.421 1997.23 233.445 Q1994.49 236.468 1994.49 241.688 L1994.49 261.836 L1988.6 261.836 L1988.6 226.188 L1994.49 226.188 L1994.49 231.726 Q1996.59 228.511 1999.42 226.92 Q2002.29 225.328 2006.01 225.328 Q2012.16 225.328 2015.31 229.148 Q2018.46 232.935 2018.46 240.32 Z" fill="#ffffff" fill-rule="evenodd" fill-opacity="1" /><path clip-path="url(#clip190)" d="M2053.6 231.599 L2053.6 212.311 L2059.45 212.311 L2059.45 261.836 L2053.6 261.836 L2053.6 256.489 Q2051.75 259.671 2048.92 261.231 Q2046.12 262.759 2042.17 262.759 Q2035.71 262.759 2031.63 257.603 Q2027.59 252.446 2027.59 244.044 Q2027.59 235.641 2031.63 230.485 Q2035.71 225.328 2042.17 225.328 Q2046.12 225.328 2048.92 226.888 Q2051.75 228.416 2053.6 231.599 M2033.64 244.044 Q2033.64 250.505 2036.28 254.197 Q2038.95 257.857 2043.6 257.857 Q2048.25 257.857 2050.92 254.197 Q2053.6 250.505 2053.6 244.044 Q2053.6 237.582 2050.92 233.922 Q2048.25 230.23 2043.6 230.23 Q2038.95 230.23 2036.28 233.922 Q2033.64 237.582 2033.64 244.044 Z" fill="#ffffff" fill-rule="evenodd" fill-opacity="1" /><path clip-path="url(#clip190)" d="M2102.01 242.548 L2102.01 245.412 L2075.08 245.412 Q2075.46 251.46 2078.71 254.642 Q2081.99 257.793 2087.81 257.793 Q2091.19 257.793 2094.34 256.966 Q2097.52 256.138 2100.64 254.483 L2100.64 260.021 Q2097.49 261.358 2094.18 262.059 Q2090.87 262.759 2087.46 262.759 Q2078.93 262.759 2073.93 257.793 Q2068.97 252.828 2068.97 244.362 Q2068.97 235.609 2073.68 230.485 Q2078.42 225.328 2086.44 225.328 Q2093.64 225.328 2097.81 229.975 Q2102.01 234.59 2102.01 242.548 M2096.15 240.829 Q2096.09 236.023 2093.45 233.158 Q2090.84 230.294 2086.51 230.294 Q2081.6 230.294 2078.64 233.063 Q2075.72 235.832 2075.27 240.861 L2096.15 240.829 Z" fill="#ffffff" fill-rule="evenodd" fill-opacity="1" /><path clip-path="url(#clip190)" d="M2132.28 231.662 Q2131.29 231.089 2130.11 230.835 Q2128.97 230.548 2127.57 230.548 Q2122.6 230.548 2119.93 233.795 Q2117.28 237.009 2117.28 243.057 L2117.28 261.836 L2111.4 261.836 L2111.4 226.188 L2117.28 226.188 L2117.28 231.726 Q2119.13 228.479 2122.09 226.92 Q2125.05 225.328 2129.28 225.328 Q2129.89 225.328 2130.62 225.424 Q2131.35 225.488 2132.24 225.647 L2132.28 231.662 Z" fill="#ffffff" fill-rule="evenodd" fill-opacity="1" /><path clip-path="url(#clip190)" d="M2161.14 227.238 L2161.14 232.776 Q2158.66 231.503 2155.99 230.867 Q2153.31 230.23 2150.45 230.23 Q2146.09 230.23 2143.89 231.567 Q2141.73 232.904 2141.73 235.577 Q2141.73 237.614 2143.29 238.792 Q2144.85 239.938 2149.56 240.988 L2151.56 241.434 Q2157.8 242.77 2160.41 245.221 Q2163.05 247.64 2163.05 252.001 Q2163.05 256.966 2159.11 259.862 Q2155.19 262.759 2148.32 262.759 Q2145.45 262.759 2142.33 262.186 Q2139.25 261.645 2135.81 260.531 L2135.81 254.483 Q2139.06 256.17 2142.21 257.03 Q2145.36 257.857 2148.44 257.857 Q2152.58 257.857 2154.81 256.457 Q2157.04 255.024 2157.04 252.446 Q2157.04 250.059 2155.42 248.786 Q2153.82 247.513 2148.38 246.335 L2146.34 245.858 Q2140.9 244.712 2138.48 242.357 Q2136.06 239.97 2136.06 235.832 Q2136.06 230.803 2139.63 228.066 Q2143.19 225.328 2149.75 225.328 Q2153 225.328 2155.86 225.806 Q2158.73 226.283 2161.14 227.238 Z" fill="#ffffff" fill-rule="evenodd" fill-opacity="1" /><circle clip-path="url(#clip190)" cx="1777.12" cy="309.356" r="23.04" fill="#009af9" fill-rule="evenodd" fill-opacity="1" stroke="#ffffff" stroke-opacity="1" stroke-width="2.56"/>
<path clip-path="url(#clip190)" d="M1886.89 296.15 L1875.08 314.599 L1886.89 314.599 L1886.89 296.15 M1885.66 292.076 L1891.54 292.076 L1891.54 314.599 L1896.47 314.599 L1896.47 318.488 L1891.54 318.488 L1891.54 326.636 L1886.89 326.636 L1886.89 318.488 L1871.29 318.488 L1871.29 313.974 L1885.66 292.076 Z" fill="#ffffff" fill-rule="evenodd" fill-opacity="1" /><circle clip-path="url(#clip190)" cx="1777.12" cy="380.636" r="23.04" fill="#e26f46" fill-rule="evenodd" fill-opacity="1" stroke="#ffffff" stroke-opacity="1" stroke-width="2.56"/>
<path clip-path="url(#clip190)" d="M1883.62 378.772 Q1880.48 378.772 1878.62 380.925 Q1876.8 383.078 1876.8 386.828 Q1876.8 390.555 1878.62 392.731 Q1880.48 394.883 1883.62 394.883 Q1886.77 394.883 1888.6 392.731 Q1890.45 390.555 1890.45 386.828 Q1890.45 383.078 1888.6 380.925 Q1886.77 378.772 1883.62 378.772 M1892.91 364.12 L1892.91 368.379 Q1891.15 367.546 1889.34 367.106 Q1887.56 366.666 1885.8 366.666 Q1881.17 366.666 1878.72 369.791 Q1876.29 372.916 1875.94 379.235 Q1877.3 377.221 1879.36 376.157 Q1881.42 375.069 1883.9 375.069 Q1889.11 375.069 1892.12 378.24 Q1895.15 381.388 1895.15 386.828 Q1895.15 392.152 1892 395.369 Q1888.86 398.587 1883.62 398.587 Q1877.63 398.587 1874.46 394.004 Q1871.29 389.397 1871.29 380.67 Q1871.29 372.476 1875.17 367.615 Q1879.06 362.731 1885.61 362.731 Q1887.37 362.731 1889.16 363.078 Q1890.96 363.425 1892.91 364.12 Z" fill="#ffffff" fill-rule="evenodd" fill-opacity="1" /><circle clip-path="url(#clip190)" cx="1777.12" cy="451.916" r="23.04" fill="#3da44d" fill-rule="evenodd" fill-opacity="1" stroke="#ffffff" stroke-opacity="1" stroke-width="2.56"/>
<path clip-path="url(#clip190)" d="M1883.14 452.784 Q1879.8 452.784 1877.88 454.566 Q1875.98 456.349 1875.98 459.474 Q1875.98 462.599 1877.88 464.381 Q1879.8 466.163 1883.14 466.163 Q1886.47 466.163 1888.39 464.381 Q1890.31 462.575 1890.31 459.474 Q1890.31 456.349 1888.39 454.566 Q1886.49 452.784 1883.14 452.784 M1878.46 450.793 Q1875.45 450.052 1873.76 447.992 Q1872.1 445.932 1872.1 442.969 Q1872.1 438.826 1875.04 436.418 Q1878 434.011 1883.14 434.011 Q1888.3 434.011 1891.24 436.418 Q1894.18 438.826 1894.18 442.969 Q1894.18 445.932 1892.49 447.992 Q1890.82 450.052 1887.84 450.793 Q1891.22 451.58 1893.09 453.872 Q1894.99 456.163 1894.99 459.474 Q1894.99 464.497 1891.91 467.182 Q1888.86 469.867 1883.14 469.867 Q1877.42 469.867 1874.34 467.182 Q1871.29 464.497 1871.29 459.474 Q1871.29 456.163 1873.18 453.872 Q1875.08 451.58 1878.46 450.793 M1876.75 443.409 Q1876.75 446.094 1878.42 447.599 Q1880.11 449.103 1883.14 449.103 Q1886.15 449.103 1887.84 447.599 Q1889.55 446.094 1889.55 443.409 Q1889.55 440.724 1887.84 439.219 Q1886.15 437.714 1883.14 437.714 Q1880.11 437.714 1878.42 439.219 Q1876.75 440.724 1876.75 443.409 Z" fill="#ffffff" fill-rule="evenodd" fill-opacity="1" /></svg>
